<?xml version="1.0" encoding="UTF-8" standalone="no"?>
<!-- Created with Inkscape (http://www.inkscape.org/) -->

<svg
   width="498.64224"
   height="563.27673"
   viewBox="0 0 131.93242 149.03365"
   version="1.1"
   id="svg8"
   inkscape:export-filename="C:\Users\厂永刄先生\Documents\VENCAQ1\新しいフォルダー\couleurs.png"
   inkscape:export-xdpi="96"
   inkscape:export-ydpi="96"
   inkscape:version="1.3 (0e150ed6c4, 2023-07-21)"
   sodipodi:docname="ermine.svg"
   xmlns:inkscape="http://www.inkscape.org/namespaces/inkscape"
   xmlns:sodipodi="http://sodipodi.sourceforge.net/DTD/sodipodi-0.dtd"
   xmlns="http://www.w3.org/2000/svg"
   xmlns:svg="http://www.w3.org/2000/svg"
   xmlns:rdf="http://www.w3.org/1999/02/22-rdf-syntax-ns#"
   xmlns:cc="http://creativecommons.org/ns#"
   xmlns:dc="http://purl.org/dc/elements/1.1/">
  <defs
     id="defs2">
    <pattern
       patternUnits="userSpaceOnUse"
       width="40.00195"
       height="40"
       patternTransform="matrix(0.26458333,0,0,0.26458333,128.93965,235.49225)"
       id="pattern1788"
       inkscape:label="pattern1788">
      <path
         id="circle1034"
         d="M 0,0 V 7.5 C 4.14214,7.5 7.5,4.14214 7.5,0 Z m 32.50195,0 c 0,4.14214 3.35787,7.5 7.5,7.5 V 0 Z m -12.5,12.5 c -4.14213,0 -7.5,3.35787 -7.5,7.5 0,4.14214 3.35787,7.5 7.5,7.5 4.14214,0 7.5,-3.35786 7.5,-7.5 0,-4.14217 -3.35782,-7.5 -7.5,-7.5 z M 0,32.5 V 40 H 7.5 C 7.5,35.85787 4.14214,32.5 0,32.5 Z m 40.00195,0 c -4.14213,0 -7.5,3.35787 -7.5,7.5 h 7.5 z"
         style="opacity:1;fill:#000000;fill-opacity:1;fill-rule:evenodd;stroke:none;stroke-width:5.4329114;stroke-linecap:butt;stroke-linejoin:round;stroke-miterlimit:4;stroke-dasharray:none;stroke-dashoffset:0;stroke-opacity:1"
         inkscape:connector-curvature="0" />
    </pattern>
    <pattern
       patternUnits="userSpaceOnUse"
       width="40.001952"
       height="39.999998"
       patternTransform="translate(1357.739,307.53276)"
       preserveAspectRatio="xMidYMid"
       id="pattern43"
       inkscape:label="pattern43">
      <path
         id="path43"
         d="M 0,0 V 7.4999999 C 4.1421354,7.4999999 7.499981,4.1421392 7.499981,0 Z m 32.501933,0 c 0,4.1421392 3.357884,7.4999999 7.500019,7.4999999 V 0 Z M 20.00194,12.500001 c -4.142135,0 -7.499981,3.357868 -7.499981,7.5 0,4.142139 3.357846,7.5 7.499981,7.5 4.142135,0 7.500019,-3.357861 7.500019,-7.5 0,-4.142173 -3.357846,-7.5 -7.500019,-7.5 z M 0,32.499998 v 7.5 h 7.499981 c 0,-4.142128 -3.3578456,-7.5 -7.499981,-7.5 z m 40.001952,0 c -4.142135,0 -7.500019,3.357872 -7.500019,7.5 h 7.500019 z"
         style="opacity:1;fill:#806000;fill-opacity:1;fill-rule:evenodd;stroke:none;stroke-width:5.43292;stroke-linecap:butt;stroke-linejoin:round;stroke-miterlimit:4;stroke-dasharray:none;stroke-dashoffset:0;stroke-opacity:1"
         inkscape:connector-curvature="0" />
    </pattern>
  </defs>
  <sodipodi:namedview
     id="base"
     pagecolor="#000000"
     bordercolor="#666666"
     borderopacity="1.0"
     inkscape:pageopacity="1"
     inkscape:pageshadow="2"
     inkscape:zoom="1.9643646"
     inkscape:cx="315.87823"
     inkscape:cy="398.85671"
     inkscape:document-units="px"
     inkscape:current-layer="layer1"
     showgrid="false"
     units="px"
     fit-margin-top="5"
     fit-margin-left="5"
     fit-margin-right="5"
     fit-margin-bottom="3"
     inkscape:window-width="1920"
     inkscape:window-height="1009"
     inkscape:window-x="-8"
     inkscape:window-y="-8"
     inkscape:window-maximized="1"
     showguides="true"
     inkscape:guide-bbox="true"
     inkscape:snap-intersection-paths="false"
     inkscape:snap-smooth-nodes="false"
     inkscape:pagecheckerboard="true"
     inkscape:showpageshadow="0"
     inkscape:deskcolor="#505050" />
  <metadata
     id="metadata5">
    <rdf:RDF>
      <cc:Work
         rdf:about="">
        <dc:format>image/svg+xml</dc:format>
        <dc:type
           rdf:resource="http://purl.org/dc/dcmitype/StillImage" />
      </cc:Work>
    </rdf:RDF>
  </metadata>
  <g
     inkscape:label="レイヤー 1"
     inkscape:groupmode="layer"
     id="layer1"
     transform="translate(-597.22485,25.060528)">
    <path
       sodipodi:nodetypes="ccsscc"
       inkscape:connector-curvature="0"
       id="path1202"
       d="m 663.19386,-24.92236 h 65.83112 V 77.45672 c 0,15.99296 -10.79492,25.82029 -25.36018,30.96895 -11.74152,4.1505 -26.84818,6.14794 -40.47094,15.4096 z"
       style="fill:none;fill-opacity:1;stroke:#a88000;stroke-width:0.264583;stroke-linecap:round;stroke-linejoin:round;stroke-miterlimit:4;stroke-dasharray:none;stroke-opacity:1" />
    <path
       style="fill:#ffffff;fill-opacity:1;stroke:#a88000;stroke-width:0.264583;stroke-linecap:round;stroke-linejoin:round;stroke-miterlimit:4;stroke-dasharray:none;stroke-opacity:1"
       d="M 663.19386,-24.92236 H 597.36275 V 77.45672 c 0,15.99296 10.79492,25.82029 25.36018,30.96895 11.74152,4.1505 26.84817,6.14794 40.47093,15.4096 z"
       id="path1204"
       inkscape:connector-curvature="0"
       sodipodi:nodetypes="ccsscc" />
    <g
       id="g13346"
       style="stroke:#806000;stroke-width:0.264583;stroke-linecap:round;stroke-linejoin:round;stroke-miterlimit:4;stroke-dasharray:none;stroke-opacity:1"
       transform="translate(-129.12414,-148.84298)" />
    <g
       id="g8329"
       style="stroke:#a88000;stroke-opacity:1"
       transform="translate(533.25851,-182.62163)">
      <path
         sodipodi:nodetypes="czccscscscscccccc"
         inkscape:connector-curvature="0"
         id="path7567"
         transform="matrix(0.26458334,0,0,0.26458334,-100.85109,145.95093)"
         d="m 872.26367,525.69531 c 0,0 -5.20898,3.90153 -5.20898,12.5 0,8.59846 5.20898,12.39649 5.20898,12.39649 z m -12.5,19.79297 c -8.59846,0 -12.5,5.20703 -12.5,5.20703 0,0 3.90154,5.20899 12.5,5.20899 8.5985,0 12.39649,-5.20899 12.39649,-5.20899 0,0 -3.79799,-5.20703 -12.39649,-5.20703 z m 12.5,5.3125 c 0,0 -5.20898,3.79599 -5.20898,12.39453 0,7.72673 -5.70482,22.20064 -11.62305,33.04688 2.37419,1.33434 4.74394,2.70047 7.10156,4.13476 0.72729,-0.76467 1.39778,-1.52552 1.9668,-2.27343 0.0775,1.407 0.29986,2.69315 0.60742,3.88476 2.39469,1.49997 4.78359,3.03534 7.15625,4.64844 z"
         style="fill:#000000;fill-opacity:1;stroke:#a88000;stroke-width:1.042;stroke-linecap:round;stroke-linejoin:round;stroke-miterlimit:4;stroke-dasharray:none;stroke-opacity:1" />
      <path
         sodipodi:nodetypes="ccscccsccc"
         inkscape:connector-curvature="0"
         id="path7581"
         d="m 84.464513,157.69905 c -0.745001,3.41881 -3.409974,8.75486 -5.031219,10.37611 0,0 1.886596,0.0621 3.897437,-1.94872 0.253778,-0.25378 0.4748,-0.50554 0.663009,-0.75292 0.14415,2.61723 2.054137,3.80958 2.054137,3.80958 0,0 1.909991,-1.19235 2.054141,-3.80958 0.188209,0.24738 0.408707,0.49914 0.66249,0.75292 2.010849,2.01087 3.897953,1.94872 3.897953,1.94872 -1.62125,-1.62125 -4.286734,-6.9573 -5.031732,-10.37611 z"
         style="fill:#000000;fill-opacity:1;stroke:#a88000;stroke-width:0.275696;stroke-linecap:round;stroke-linejoin:round;stroke-miterlimit:4;stroke-dasharray:none;stroke-opacity:1" />
      <path
         style="fill:#000000;fill-opacity:1;stroke:#a88000;stroke-width:0.275696;stroke-linecap:round;stroke-linejoin:round;stroke-miterlimit:4;stroke-dasharray:none;stroke-opacity:1"
         d="m 97.01973,163.56874 c 0,0 -1.378043,1.03227 -1.378043,3.3073 0,2.27499 1.378043,3.27984 1.378043,3.27984 0,0 1.37804,-1.00485 1.37805,-3.27984 0,-2.27503 -1.37805,-3.3073 -1.37805,-3.3073 z m -3.307293,5.23655 c -2.27501,0 -3.30729,1.37804 -3.30729,1.37804 0,0 1.03228,1.37803 3.30729,1.37803 2.27502,0 3.27983,-1.37803 3.27983,-1.37803 0,0 -1.00481,-1.37804 -3.27983,-1.37804 z m 6.614603,0 c -2.27502,0 -3.27984,1.37804 -3.27984,1.37804 0,0 1.00482,1.37803 3.27984,1.37803 2.27502,0 3.30729,-1.37803 3.30729,-1.37803 0,0 -1.03227,-1.37804 -3.30729,-1.37804 z m -3.30731,1.40549 c 0,0 -1.378043,1.00481 -1.378043,3.27984 0,3.04061 -3.33844,10.0397 -5.23654,11.93781 0,0 1.88696,0.0622 3.8978,-1.94866 0.25378,-0.25378 0.47444,-0.50569 0.66265,-0.75307 0.14415,2.61723 2.054133,3.80953 2.054133,3.80953 0,0 1.90999,-1.1923 2.05414,-3.80953 0.18821,0.24738 0.40886,0.49929 0.66265,0.75307 2.01085,2.01087 3.89781,1.94866 3.89781,1.94866 -1.89811,-1.89811 -5.23655,-8.8972 -5.23655,-11.93781 0,-2.27503 -1.37805,-3.27984 -1.37805,-3.27984 z"
         id="path7587"
         inkscape:connector-curvature="0"
         sodipodi:nodetypes="cscscscscsscscscscscccscsc" />
      <path
         style="fill:#000000;fill-opacity:1;stroke:#a88000;stroke-width:0.275696;stroke-linecap:round;stroke-linejoin:round;stroke-miterlimit:4;stroke-dasharray:none;stroke-opacity:1"
         d="m 118.96343,163.56874 c 0,0 -1.37804,1.03227 -1.37804,3.3073 0,2.27499 1.37804,3.27984 1.37804,3.27984 0,0 1.37804,-1.00485 1.37805,-3.27984 0,-2.27503 -1.37805,-3.3073 -1.37805,-3.3073 z m -3.30729,5.23655 c -2.27501,0 -3.30729,1.37804 -3.30729,1.37804 0,0 1.03228,1.37803 3.30729,1.37803 2.27502,0 3.27983,-1.37803 3.27983,-1.37803 0,0 -1.00481,-1.37804 -3.27983,-1.37804 z m 6.61459,0 c -2.27501,0 -3.27983,1.37804 -3.27983,1.37804 0,0 1.00482,1.37803 3.27983,1.37803 2.27502,0 3.30729,-1.37803 3.30729,-1.37803 0,0 -1.03227,-1.37804 -3.30729,-1.37804 z m -3.3073,1.40549 c 0,0 -1.37804,1.00481 -1.37804,3.27984 0,3.04061 -3.33844,10.0397 -5.23654,11.93781 0,0 1.88696,0.0622 3.8978,-1.94866 0.25378,-0.25378 0.47444,-0.50569 0.66265,-0.75307 0.14415,2.61723 2.05413,3.80953 2.05413,3.80953 0,0 1.90999,-1.1923 2.05414,-3.80953 0.18821,0.24738 0.40886,0.49929 0.66265,0.75307 2.01084,2.01087 3.8978,1.94866 3.8978,1.94866 -1.89811,-1.89811 -5.23654,-8.8972 -5.23654,-11.93781 0,-2.27503 -1.37805,-3.27984 -1.37805,-3.27984 z"
         id="path7589"
         inkscape:connector-curvature="0"
         sodipodi:nodetypes="cscscscscsscscscscscccscsc" />
      <path
         sodipodi:nodetypes="cscscscscsscscscscscccscsc"
         inkscape:connector-curvature="0"
         id="path7591"
         d="m 75.076012,163.56874 c 0,0 -1.37804,1.03227 -1.37804,3.3073 0,2.27499 1.37804,3.27984 1.37804,3.27984 0,0 1.37804,-1.00485 1.37805,-3.27984 0,-2.27503 -1.37805,-3.3073 -1.37805,-3.3073 z m -3.30729,5.23655 c -2.27501,0 -3.30729,1.37804 -3.30729,1.37804 0,0 1.03228,1.37803 3.30729,1.37803 2.27502,0 3.27983,-1.37803 3.27983,-1.37803 0,0 -1.00481,-1.37804 -3.27983,-1.37804 z m 6.614593,0 c -2.275013,0 -3.279833,1.37804 -3.279833,1.37804 0,0 1.00482,1.37803 3.279833,1.37803 2.27502,0 3.30729,-1.37803 3.30729,-1.37803 0,0 -1.03227,-1.37804 -3.30729,-1.37804 z m -3.307303,1.40549 c 0,0 -1.37804,1.00481 -1.37804,3.27984 0,3.04061 -3.33844,10.0397 -5.23654,11.93781 0,0 1.88696,0.0622 3.8978,-1.94866 0.25378,-0.25378 0.47444,-0.50569 0.66265,-0.75307 0.14415,2.61723 2.05413,3.80953 2.05413,3.80953 0,0 1.90999,-1.1923 2.05414,-3.80953 0.18821,0.24738 0.40886,0.49929 0.66265,0.75307 2.010843,2.01087 3.897803,1.94866 3.897803,1.94866 -1.89811,-1.89811 -5.236543,-8.8972 -5.236543,-11.93781 0,-2.27503 -1.37805,-3.27984 -1.37805,-3.27984 z"
         style="fill:#000000;fill-opacity:1;stroke:#a88000;stroke-width:0.275696;stroke-linecap:round;stroke-linejoin:round;stroke-miterlimit:4;stroke-dasharray:none;stroke-opacity:1" />
      <path
         style="fill:#000000;fill-opacity:1;stroke:#a88000;stroke-width:0.275696;stroke-linecap:round;stroke-linejoin:round;stroke-miterlimit:4;stroke-dasharray:none;stroke-opacity:1"
         d="m 107.99157,180.92198 c 0,0 -1.37804,1.03227 -1.37804,3.3073 0,2.27499 1.37804,3.27984 1.37804,3.27984 0,0 1.37804,-1.00485 1.37805,-3.27984 0,-2.27503 -1.37805,-3.3073 -1.37805,-3.3073 z m -3.30729,5.23655 c -2.27501,0 -3.30729,1.37804 -3.30729,1.37804 0,0 1.03228,1.37803 3.30729,1.37803 2.27502,0 3.27983,-1.37803 3.27983,-1.37803 0,0 -1.00481,-1.37804 -3.27983,-1.37804 z m 6.6146,0 c -2.27502,0 -3.27984,1.37804 -3.27984,1.37804 0,0 1.00482,1.37803 3.27984,1.37803 2.27502,0 3.30729,-1.37803 3.30729,-1.37803 0,0 -1.03227,-1.37804 -3.30729,-1.37804 z m -3.30731,1.40549 c 0,0 -1.37804,1.00481 -1.37804,3.27984 0,3.04061 -3.33844,10.0397 -5.23654,11.93781 0,0 1.88696,0.0622 3.8978,-1.94866 0.25378,-0.25378 0.47444,-0.50569 0.66265,-0.75307 0.14415,2.61723 2.05413,3.80953 2.05413,3.80953 0,0 1.90999,-1.1923 2.05414,-3.80953 0.18821,0.24738 0.40886,0.49929 0.66265,0.75307 2.01085,2.01087 3.89781,1.94866 3.89781,1.94866 -1.89811,-1.89811 -5.23655,-8.8972 -5.23655,-11.93781 0,-2.27503 -1.37805,-3.27984 -1.37805,-3.27984 z"
         id="path7669"
         inkscape:connector-curvature="0"
         sodipodi:nodetypes="cscscscscsscscscscscccscsc" />
      <path
         sodipodi:nodetypes="cscscscscsscscscscscccscsc"
         inkscape:connector-curvature="0"
         id="path7673"
         d="m 86.047871,180.92198 c 0,0 -1.37804,1.03227 -1.37804,3.3073 0,2.27499 1.37804,3.27984 1.37804,3.27984 0,0 1.37804,-1.00485 1.37805,-3.27984 0,-2.27503 -1.37805,-3.3073 -1.37805,-3.3073 z m -3.30729,5.23655 c -2.27501,0 -3.30729,1.37804 -3.30729,1.37804 0,0 1.03228,1.37803 3.30729,1.37803 2.27502,0 3.27983,-1.37803 3.27983,-1.37803 0,0 -1.00481,-1.37804 -3.27983,-1.37804 z m 6.614593,0 c -2.275013,0 -3.279833,1.37804 -3.279833,1.37804 0,0 1.00482,1.37803 3.279833,1.37803 2.27502,0 3.30729,-1.37803 3.30729,-1.37803 0,0 -1.03227,-1.37804 -3.30729,-1.37804 z m -3.307303,1.40549 c 0,0 -1.37804,1.00481 -1.37804,3.27984 0,3.04061 -3.33844,10.0397 -5.23654,11.93781 0,0 1.88696,0.0622 3.8978,-1.94866 0.25378,-0.25378 0.47444,-0.50569 0.66265,-0.75307 0.14415,2.61723 2.05413,3.80953 2.05413,3.80953 0,0 1.90999,-1.1923 2.05414,-3.80953 0.18821,0.24738 0.40886,0.49929 0.66265,0.75307 2.010843,2.01087 3.897803,1.94866 3.897803,1.94866 -1.89811,-1.89811 -5.236543,-8.8972 -5.236543,-11.93781 0,-2.27503 -1.37805,-3.27984 -1.37805,-3.27984 z"
         style="fill:#000000;fill-opacity:1;stroke:#a88000;stroke-width:0.275696;stroke-linecap:round;stroke-linejoin:round;stroke-miterlimit:4;stroke-dasharray:none;stroke-opacity:1" />
      <path
         sodipodi:nodetypes="csccscscsccscscc"
         inkscape:connector-curvature="0"
         id="path7751"
         d="m 64.104183,222.21556 c 0,0 1.37804,-1.00485 1.378049,-3.27984 0,-2.27503 -1.378048,-3.3073 -1.378049,-3.3073 z m 3.307299,-1.35059 c -2.275012,0 -3.279831,1.37804 -3.279831,1.37804 0,0 1.004819,1.37803 3.279831,1.37803 2.275022,0 3.30729,-1.37803 3.30729,-1.37803 0,0 -1.032268,-1.37804 -3.30729,-1.37804 z m -3.307299,17.73094 c 0,0 1.909992,-1.1923 2.054138,-3.80953 0.188209,0.24738 0.408867,0.49929 0.662653,0.75307 2.010837,2.01087 3.897798,1.94866 3.897798,1.94866 -1.898104,-1.89811 -5.23654,-8.8972 -5.23654,-11.93781 0,-2.27503 -1.378049,-3.27984 -1.378049,-3.27984 z"
         style="fill:#000000;fill-opacity:1;stroke:#a88000;stroke-width:0.275696;stroke-linecap:round;stroke-linejoin:round;stroke-miterlimit:4;stroke-dasharray:none;stroke-opacity:1" />
      <path
         sodipodi:nodetypes="cscscscscsscscscscscccscsc"
         inkscape:connector-curvature="0"
         id="path7753"
         d="m 107.99157,215.62842 c 0,0 -1.37804,1.03227 -1.37804,3.3073 0,2.27499 1.37804,3.27984 1.37804,3.27984 0,0 1.37804,-1.00485 1.37805,-3.27984 0,-2.27503 -1.37805,-3.3073 -1.37805,-3.3073 z m -3.30729,5.23655 c -2.27501,0 -3.30729,1.37804 -3.30729,1.37804 0,0 1.03228,1.37803 3.30729,1.37803 2.27502,0 3.27983,-1.37803 3.27983,-1.37803 0,0 -1.00481,-1.37804 -3.27983,-1.37804 z m 6.6146,0 c -2.27502,0 -3.27984,1.37804 -3.27984,1.37804 0,0 1.00482,1.37803 3.27984,1.37803 2.27502,0 3.30729,-1.37803 3.30729,-1.37803 0,0 -1.03227,-1.37804 -3.30729,-1.37804 z m -3.30731,1.40549 c 0,0 -1.37804,1.00481 -1.37804,3.27984 0,3.04061 -3.33844,10.0397 -5.23654,11.93781 0,0 1.88696,0.0622 3.8978,-1.94866 0.25378,-0.25378 0.47444,-0.50569 0.66265,-0.75307 0.14415,2.61723 2.05413,3.80953 2.05413,3.80953 0,0 1.90999,-1.1923 2.05414,-3.80953 0.18821,0.24738 0.40886,0.49929 0.66265,0.75307 2.01085,2.01087 3.89781,1.94866 3.89781,1.94866 -1.89811,-1.89811 -5.23655,-8.8972 -5.23655,-11.93781 0,-2.27503 -1.37805,-3.27984 -1.37805,-3.27984 z"
         style="fill:#000000;fill-opacity:1;stroke:#a88000;stroke-width:0.275696;stroke-linecap:round;stroke-linejoin:round;stroke-miterlimit:4;stroke-dasharray:none;stroke-opacity:1" />
      <path
         style="fill:#000000;fill-opacity:1;stroke:#a88000;stroke-width:0.275696;stroke-linecap:round;stroke-linejoin:round;stroke-miterlimit:4;stroke-dasharray:none;stroke-opacity:1"
         d="m 86.047871,215.62842 c 0,0 -1.37804,1.03227 -1.37804,3.3073 0,2.27499 1.37804,3.27984 1.37804,3.27984 0,0 1.37804,-1.00485 1.37805,-3.27984 0,-2.27503 -1.37805,-3.3073 -1.37805,-3.3073 z m -3.30729,5.23655 c -2.27501,0 -3.30729,1.37804 -3.30729,1.37804 0,0 1.03228,1.37803 3.30729,1.37803 2.27502,0 3.27983,-1.37803 3.27983,-1.37803 0,0 -1.00481,-1.37804 -3.27983,-1.37804 z m 6.614593,0 c -2.275013,0 -3.279833,1.37804 -3.279833,1.37804 0,0 1.00482,1.37803 3.279833,1.37803 2.27502,0 3.30729,-1.37803 3.30729,-1.37803 0,0 -1.03227,-1.37804 -3.30729,-1.37804 z m -3.307303,1.40549 c 0,0 -1.37804,1.00481 -1.37804,3.27984 0,3.04061 -3.33844,10.0397 -5.23654,11.93781 0,0 1.88696,0.0622 3.8978,-1.94866 0.25378,-0.25378 0.47444,-0.50569 0.66265,-0.75307 0.14415,2.61723 2.05413,3.80953 2.05413,3.80953 0,0 1.90999,-1.1923 2.05414,-3.80953 0.18821,0.24738 0.40886,0.49929 0.66265,0.75307 2.010843,2.01087 3.897803,1.94866 3.897803,1.94866 -1.89811,-1.89811 -5.236543,-8.8972 -5.236543,-11.93781 0,-2.27503 -1.37805,-3.27984 -1.37805,-3.27984 z"
         id="path7757"
         inkscape:connector-curvature="0"
         sodipodi:nodetypes="cscscscscsscscscscscccscsc" />
      <path
         sodipodi:nodetypes="cczcscscscsccscsc"
         inkscape:connector-curvature="0"
         id="path7835"
         transform="matrix(0.26458334,0,0,0.26458334,-100.85109,145.95093)"
         d="m 623.45312,394.52148 v 24.89649 c 0,0 5.20897,-3.79803 5.20899,-12.39649 10e-6,-8.59846 -5.20898,-12.5 -5.20899,-12.5 z m 12.5,19.79297 c -8.59847,0 -12.39648,5.20703 -12.39648,5.20703 0,0 3.79801,5.20899 12.39648,5.20899 8.59851,0 12.50001,-5.20899 12.5,-5.20899 0,0 -3.90149,-5.20703 -12.5,-5.20703 z m -12.5,5.31055 v 11.72266 c 0,14.78405 2.44654,28.1698 6.93946,40.24804 0.42529,-1.399 0.72948,-2.94595 0.82422,-4.66601 0.71134,0.93498 1.54473,1.88847 2.5039,2.84765 7.60004,7.60012 14.73243,7.36328 14.73242,7.36328 -7.17393,-7.17395 -19.79101,-33.62707 -19.79101,-45.11914 0,-8.59853 -5.20899,-12.39648 -5.20899,-12.39648 z"
         style="fill:#000000;fill-opacity:1;stroke:#a88000;stroke-width:1.042;stroke-linecap:round;stroke-linejoin:round;stroke-miterlimit:4;stroke-dasharray:none;stroke-opacity:1" />
      <path
         style="fill:#000000;fill-opacity:1;stroke:#a88000;stroke-width:0.275696;stroke-linecap:round;stroke-linejoin:round;stroke-miterlimit:4;stroke-dasharray:none;stroke-opacity:1"
         d="m 107.99157,250.3349 c 0,0 -1.37804,1.03227 -1.37804,3.3073 0,2.27499 1.37804,3.27984 1.37804,3.27984 0,0 1.37804,-1.00485 1.37805,-3.27984 0,-2.27503 -1.37805,-3.3073 -1.37805,-3.3073 z m -3.30729,5.23655 c -2.27501,0 -3.30729,1.37804 -3.30729,1.37804 0,0 1.03228,1.37803 3.30729,1.37803 2.27502,0 3.27983,-1.37803 3.27983,-1.37803 0,0 -1.00481,-1.37804 -3.27983,-1.37804 z m 6.6146,0 c -2.27502,0 -3.27984,1.37804 -3.27984,1.37804 0,0 1.00482,1.37803 3.27984,1.37803 2.27502,0 3.30729,-1.37803 3.30729,-1.37803 0,0 -1.03227,-1.37804 -3.30729,-1.37804 z m -3.30731,1.40549 c 0,0 -1.37804,1.00481 -1.37804,3.27984 0,3.04061 -3.33844,10.0397 -5.23654,11.93781 0,0 1.88696,0.0622 3.8978,-1.94866 0.25378,-0.25378 0.47444,-0.50569 0.66265,-0.75307 0.14415,2.61723 2.05413,3.80953 2.05413,3.80953 0,0 1.90999,-1.1923 2.05414,-3.80953 0.18821,0.24738 0.40886,0.49929 0.66265,0.75307 2.01085,2.01087 3.89781,1.94866 3.89781,1.94866 -1.89811,-1.89811 -5.23655,-8.8972 -5.23655,-11.93781 0,-2.27503 -1.37805,-3.27984 -1.37805,-3.27984 z"
         id="path7837"
         inkscape:connector-curvature="0"
         sodipodi:nodetypes="cscscscscsscscscscscccscsc" />
      <path
         style="fill:#000000;fill-opacity:1;stroke:#a88000;stroke-width:0.275696;stroke-linecap:round;stroke-linejoin:round;stroke-miterlimit:4;stroke-dasharray:none;stroke-opacity:1"
         d="m 129.93529,250.3349 c 0,0 -1.37804,1.03227 -1.37804,3.3073 0,2.27499 1.37804,3.27984 1.37804,3.27984 z m -3.30729,5.23655 c -2.27501,0 -3.30729,1.37804 -3.30729,1.37804 0,0 1.03228,1.37803 3.30729,1.37803 2.27502,0 3.27983,-1.37803 3.27983,-1.37803 0,0 -1.00481,-1.37804 -3.27983,-1.37804 z m 3.30729,1.40549 c 0,0 -1.37804,1.00481 -1.37804,3.27984 0,3.04061 -3.33844,10.0397 -5.23654,11.93781 0,0 1.88696,0.0622 3.8978,-1.94866 0.25378,-0.25378 0.47444,-0.50569 0.66265,-0.75307 0.14415,2.61723 2.05413,3.80953 2.05413,3.80953 z"
         id="path7839"
         inkscape:connector-curvature="0"
         sodipodi:nodetypes="csccscscscscsccc" />
      <path
         sodipodi:nodetypes="cscscscscsscscscscscccscsc"
         inkscape:connector-curvature="0"
         id="path7841"
         d="m 86.047871,250.3349 c 0,0 -1.37804,1.03227 -1.37804,3.3073 0,2.27499 1.37804,3.27984 1.37804,3.27984 0,0 1.37804,-1.00485 1.37805,-3.27984 0,-2.27503 -1.37805,-3.3073 -1.37805,-3.3073 z m -3.30729,5.23655 c -2.27501,0 -3.30729,1.37804 -3.30729,1.37804 0,0 1.03228,1.37803 3.30729,1.37803 2.27502,0 3.27983,-1.37803 3.27983,-1.37803 0,0 -1.00481,-1.37804 -3.27983,-1.37804 z m 6.614593,0 c -2.275013,0 -3.279833,1.37804 -3.279833,1.37804 0,0 1.00482,1.37803 3.279833,1.37803 2.27502,0 3.30729,-1.37803 3.30729,-1.37803 0,0 -1.03227,-1.37804 -3.30729,-1.37804 z m -3.307303,1.40549 c 0,0 -1.37804,1.00481 -1.37804,3.27984 0,3.04061 -3.33844,10.0397 -5.23654,11.93781 0,0 1.88696,0.0622 3.8978,-1.94866 0.25378,-0.25378 0.47444,-0.50569 0.66265,-0.75307 0.14415,2.61723 2.05413,3.80953 2.05413,3.80953 0,0 1.90999,-1.1923 2.05414,-3.80953 0.18821,0.24738 0.40886,0.49929 0.66265,0.75307 2.010843,2.01087 3.897803,1.94866 3.897803,1.94866 -1.89811,-1.89811 -5.236543,-8.8972 -5.236543,-11.93781 0,-2.27503 -1.37805,-3.27984 -1.37805,-3.27984 z"
         style="fill:#000000;fill-opacity:1;stroke:#a88000;stroke-width:0.275696;stroke-linecap:round;stroke-linejoin:round;stroke-miterlimit:4;stroke-dasharray:none;stroke-opacity:1" />
      <path
         sodipodi:nodetypes="czczcscscsscscscsccsc"
         inkscape:connector-curvature="0"
         id="path7907"
         transform="matrix(0.26458334,0,0,0.26458334,-100.85109,145.95093)"
         d="m 789.32617,525.69531 c 0,0 -5.20703,3.90153 -5.20703,12.5 0,8.59846 5.20703,12.39649 5.20703,12.39649 0,0 5.20897,-3.79802 5.20899,-12.39649 2e-5,-8.59847 -5.20899,-12.5 -5.20899,-12.5 z m -12.5,19.79297 c -8.59846,0 -12.5,5.20703 -12.5,5.20703 0,0 3.90154,5.20899 12.5,5.20899 8.5985,0 12.39649,-5.20899 12.39649,-5.20899 0,0 -3.79799,-5.20703 -12.39649,-5.20703 z m 25,0 c -8.5985,0 -12.39648,5.20703 -12.39648,5.20703 0,0 3.79798,5.20899 12.39648,5.20899 8.5985,0 12.5,-5.20899 12.5,-5.20899 0,0 -3.9015,-5.20703 -12.5,-5.20703 z m -12.5,5.3125 c 0,0 -5.20703,3.79599 -5.20703,12.39453 0,1.24058 -0.15638,2.66474 -0.42773,4.21094 4.00379,1.18642 8.03533,2.42115 12.08593,3.71289 -0.78473,-3.02286 -1.24218,-5.74392 -1.24218,-7.92383 0,-8.59854 -5.20899,-12.39453 -5.20899,-12.39453 z"
         style="fill:#000000;fill-opacity:1;stroke:#a88000;stroke-width:1.042;stroke-linecap:round;stroke-linejoin:round;stroke-miterlimit:4;stroke-dasharray:none;stroke-opacity:1" />
      <path
         sodipodi:nodetypes="csccscscsccs"
         inkscape:connector-curvature="0"
         id="path7909"
         transform="matrix(0.26458334,0,0,0.26458334,-100.85109,145.95093)"
         d="m 706.39062,525.69531 c 0,0 -5.20898,3.90146 -5.20898,12.5 0,1.06683 0.0802,2.05953 0.2207,2.98047 2.92518,1.33343 5.90228,2.6117 8.9336,3.82813 0.72568,-1.80147 1.26172,-4.05626 1.26172,-6.8086 2e-5,-8.59854 -5.20704,-12.5 -5.20704,-12.5 z m 12.5,19.79297 c -2.07086,0 -3.85681,0.30498 -5.38476,0.76367 1.91518,0.73482 3.84466,1.45444 5.79687,2.14453 3.51839,1.24371 7.1414,2.42484 10.81055,3.58399 0.82785,-0.72715 1.27734,-1.28516 1.27734,-1.28516 0,0 -3.90149,-5.20703 -12.5,-5.20703 z"
         style="fill:#000000;fill-opacity:1;stroke:#a88000;stroke-width:1.042;stroke-linecap:round;stroke-linejoin:round;stroke-miterlimit:4;stroke-dasharray:none;stroke-opacity:1" />
      <path
         sodipodi:nodetypes="cscscscscsscscscscscccscsc"
         inkscape:connector-curvature="0"
         id="path7969"
         d="m 97.01973,198.2752 c 0,0 -1.378043,1.03227 -1.378043,3.3073 0,2.27499 1.378043,3.27984 1.378043,3.27984 0,0 1.37804,-1.00485 1.37805,-3.27984 0,-2.27503 -1.37805,-3.3073 -1.37805,-3.3073 z m -3.307293,5.23655 c -2.27501,0 -3.30729,1.37804 -3.30729,1.37804 0,0 1.03228,1.37803 3.30729,1.37803 2.27502,0 3.27983,-1.37803 3.27983,-1.37803 0,0 -1.00481,-1.37804 -3.27983,-1.37804 z m 6.614603,0 c -2.27502,0 -3.27984,1.37804 -3.27984,1.37804 0,0 1.00482,1.37803 3.27984,1.37803 2.27502,0 3.30729,-1.37803 3.30729,-1.37803 0,0 -1.03227,-1.37804 -3.30729,-1.37804 z m -3.30731,1.40549 c 0,0 -1.378043,1.00481 -1.378043,3.27984 0,3.04061 -3.33844,10.0397 -5.23654,11.93781 0,0 1.88696,0.0622 3.8978,-1.94866 0.25378,-0.25378 0.47444,-0.50569 0.66265,-0.75307 0.14415,2.61723 2.054133,3.80953 2.054133,3.80953 0,0 1.90999,-1.1923 2.05414,-3.80953 0.18821,0.24738 0.40886,0.49929 0.66265,0.75307 2.01085,2.01087 3.89781,1.94866 3.89781,1.94866 -1.89811,-1.89811 -5.23655,-8.8972 -5.23655,-11.93781 0,-2.27503 -1.37805,-3.27984 -1.37805,-3.27984 z"
         style="fill:#000000;fill-opacity:1;stroke:#a88000;stroke-width:0.275696;stroke-linecap:round;stroke-linejoin:round;stroke-miterlimit:4;stroke-dasharray:none;stroke-opacity:1" />
      <path
         sodipodi:nodetypes="cscscscscsscscscscscccscsc"
         inkscape:connector-curvature="0"
         id="path7971"
         d="m 118.96343,198.2752 c 0,0 -1.37804,1.03227 -1.37804,3.3073 0,2.27499 1.37804,3.27984 1.37804,3.27984 0,0 1.37804,-1.00485 1.37805,-3.27984 0,-2.27503 -1.37805,-3.3073 -1.37805,-3.3073 z m -3.30729,5.23655 c -2.27501,0 -3.30729,1.37804 -3.30729,1.37804 0,0 1.03228,1.37803 3.30729,1.37803 2.27502,0 3.27983,-1.37803 3.27983,-1.37803 0,0 -1.00481,-1.37804 -3.27983,-1.37804 z m 6.61459,0 c -2.27501,0 -3.27983,1.37804 -3.27983,1.37804 0,0 1.00482,1.37803 3.27983,1.37803 2.27502,0 3.30729,-1.37803 3.30729,-1.37803 0,0 -1.03227,-1.37804 -3.30729,-1.37804 z m -3.3073,1.40549 c 0,0 -1.37804,1.00481 -1.37804,3.27984 0,3.04061 -3.33844,10.0397 -5.23654,11.93781 0,0 1.88696,0.0622 3.8978,-1.94866 0.25378,-0.25378 0.47444,-0.50569 0.66265,-0.75307 0.14415,2.61723 2.05413,3.80953 2.05413,3.80953 0,0 1.90999,-1.1923 2.05414,-3.80953 0.18821,0.24738 0.40886,0.49929 0.66265,0.75307 2.01084,2.01087 3.8978,1.94866 3.8978,1.94866 -1.89811,-1.89811 -5.23654,-8.8972 -5.23654,-11.93781 0,-2.27503 -1.37805,-3.27984 -1.37805,-3.27984 z"
         style="fill:#000000;fill-opacity:1;stroke:#a88000;stroke-width:0.275696;stroke-linecap:round;stroke-linejoin:round;stroke-miterlimit:4;stroke-dasharray:none;stroke-opacity:1" />
      <path
         style="fill:#000000;fill-opacity:1;stroke:#a88000;stroke-width:0.275696;stroke-linecap:round;stroke-linejoin:round;stroke-miterlimit:4;stroke-dasharray:none;stroke-opacity:1"
         d="m 75.076012,198.2752 c 0,0 -1.37804,1.03227 -1.37804,3.3073 0,2.27499 1.37804,3.27984 1.37804,3.27984 0,0 1.37804,-1.00485 1.37805,-3.27984 0,-2.27503 -1.37805,-3.3073 -1.37805,-3.3073 z m -3.30729,5.23655 c -2.27501,0 -3.30729,1.37804 -3.30729,1.37804 0,0 1.03228,1.37803 3.30729,1.37803 2.27502,0 3.27983,-1.37803 3.27983,-1.37803 0,0 -1.00481,-1.37804 -3.27983,-1.37804 z m 6.614593,0 c -2.275013,0 -3.279833,1.37804 -3.279833,1.37804 0,0 1.00482,1.37803 3.279833,1.37803 2.27502,0 3.30729,-1.37803 3.30729,-1.37803 0,0 -1.03227,-1.37804 -3.30729,-1.37804 z m -3.307303,1.40549 c 0,0 -1.37804,1.00481 -1.37804,3.27984 0,3.04061 -3.33844,10.0397 -5.23654,11.93781 0,0 1.88696,0.0622 3.8978,-1.94866 0.25378,-0.25378 0.47444,-0.50569 0.66265,-0.75307 0.14415,2.61723 2.05413,3.80953 2.05413,3.80953 0,0 1.90999,-1.1923 2.05414,-3.80953 0.18821,0.24738 0.40886,0.49929 0.66265,0.75307 2.010843,2.01087 3.897803,1.94866 3.897803,1.94866 -1.89811,-1.89811 -5.236543,-8.8972 -5.236543,-11.93781 0,-2.27503 -1.37805,-3.27984 -1.37805,-3.27984 z"
         id="path7973"
         inkscape:connector-curvature="0"
         sodipodi:nodetypes="cscscscscsscscscscscccscsc" />
      <path
         style="fill:#000000;fill-opacity:1;stroke:#a88000;stroke-width:0.275696;stroke-linecap:round;stroke-linejoin:round;stroke-miterlimit:4;stroke-dasharray:none;stroke-opacity:1"
         d="m 97.01973,232.98167 c 0,0 -1.378043,1.03227 -1.378043,3.3073 0,2.27499 1.378043,3.27984 1.378043,3.27984 0,0 1.37804,-1.00485 1.37805,-3.27984 0,-2.27503 -1.37805,-3.3073 -1.37805,-3.3073 z m -3.307293,5.23655 c -2.27501,0 -3.30729,1.37804 -3.30729,1.37804 0,0 1.03228,1.37803 3.30729,1.37803 2.27502,0 3.27983,-1.37803 3.27983,-1.37803 0,0 -1.00481,-1.37804 -3.27983,-1.37804 z m 6.614603,0 c -2.27502,0 -3.27984,1.37804 -3.27984,1.37804 0,0 1.00482,1.37803 3.27984,1.37803 2.27502,0 3.30729,-1.37803 3.30729,-1.37803 0,0 -1.03227,-1.37804 -3.30729,-1.37804 z m -3.30731,1.40549 c 0,0 -1.378043,1.00481 -1.378043,3.27984 0,3.04061 -3.33844,10.0397 -5.23654,11.93781 0,0 1.88696,0.0622 3.8978,-1.94866 0.25378,-0.25378 0.47444,-0.50569 0.66265,-0.75307 0.14415,2.61723 2.054133,3.80953 2.054133,3.80953 0,0 1.90999,-1.1923 2.05414,-3.80953 0.18821,0.24738 0.40886,0.49929 0.66265,0.75307 2.01085,2.01087 3.89781,1.94866 3.89781,1.94866 -1.89811,-1.89811 -5.23655,-8.8972 -5.23655,-11.93781 0,-2.27503 -1.37805,-3.27984 -1.37805,-3.27984 z"
         id="path8081"
         inkscape:connector-curvature="0"
         sodipodi:nodetypes="cscscscscsscscscscscccscsc" />
      <path
         style="fill:#000000;fill-opacity:1;stroke:#a88000;stroke-width:0.275696;stroke-linecap:round;stroke-linejoin:round;stroke-miterlimit:4;stroke-dasharray:none;stroke-opacity:1"
         d="m 118.96343,232.98167 c 0,0 -1.37804,1.03227 -1.37804,3.3073 0,2.27499 1.37804,3.27984 1.37804,3.27984 0,0 1.37804,-1.00485 1.37805,-3.27984 0,-2.27503 -1.37805,-3.3073 -1.37805,-3.3073 z m -3.30729,5.23655 c -2.27501,0 -3.30729,1.37804 -3.30729,1.37804 0,0 1.03228,1.37803 3.30729,1.37803 2.27502,0 3.27983,-1.37803 3.27983,-1.37803 0,0 -1.00481,-1.37804 -3.27983,-1.37804 z m 6.61459,0 c -2.27501,0 -3.27983,1.37804 -3.27983,1.37804 0,0 1.00482,1.37803 3.27983,1.37803 2.27502,0 3.30729,-1.37803 3.30729,-1.37803 0,0 -1.03227,-1.37804 -3.30729,-1.37804 z m -3.3073,1.40549 c 0,0 -1.37804,1.00481 -1.37804,3.27984 0,3.04061 -3.33844,10.0397 -5.23654,11.93781 0,0 1.88696,0.0622 3.8978,-1.94866 0.25378,-0.25378 0.47444,-0.50569 0.66265,-0.75307 0.14415,2.61723 2.05413,3.80953 2.05413,3.80953 0,0 1.90999,-1.1923 2.05414,-3.80953 0.18821,0.24738 0.40886,0.49929 0.66265,0.75307 2.01084,2.01087 3.8978,1.94866 3.8978,1.94866 -1.89811,-1.89811 -5.23654,-8.8972 -5.23654,-11.93781 0,-2.27503 -1.37805,-3.27984 -1.37805,-3.27984 z"
         id="path8083"
         inkscape:connector-curvature="0"
         sodipodi:nodetypes="cscscscscsscscscscscccscsc" />
      <path
         sodipodi:nodetypes="cscscscscsscscscscscccscsc"
         inkscape:connector-curvature="0"
         id="path8085"
         d="m 75.076012,232.98167 c 0,0 -1.37804,1.03227 -1.37804,3.3073 0,2.27499 1.37804,3.27984 1.37804,3.27984 0,0 1.37804,-1.00485 1.37805,-3.27984 0,-2.27503 -1.37805,-3.3073 -1.37805,-3.3073 z m -3.30729,5.23655 c -2.27501,0 -3.30729,1.37804 -3.30729,1.37804 0,0 1.03228,1.37803 3.30729,1.37803 2.27502,0 3.27983,-1.37803 3.27983,-1.37803 0,0 -1.00481,-1.37804 -3.27983,-1.37804 z m 6.614593,0 c -2.275013,0 -3.279833,1.37804 -3.279833,1.37804 0,0 1.00482,1.37803 3.279833,1.37803 2.27502,0 3.30729,-1.37803 3.30729,-1.37803 0,0 -1.03227,-1.37804 -3.30729,-1.37804 z m -3.307303,1.40549 c 0,0 -1.37804,1.00481 -1.37804,3.27984 0,3.04061 -3.33844,10.0397 -5.23654,11.93781 0,0 1.88696,0.0622 3.8978,-1.94866 0.25378,-0.25378 0.47444,-0.50569 0.66265,-0.75307 0.14415,2.61723 2.05413,3.80953 2.05413,3.80953 0,0 1.90999,-1.1923 2.05414,-3.80953 0.18821,0.24738 0.40886,0.49929 0.66265,0.75307 2.010843,2.01087 3.897803,1.94866 3.897803,1.94866 -1.89811,-1.89811 -5.236543,-8.8972 -5.236543,-11.93781 0,-2.27503 -1.37805,-3.27984 -1.37805,-3.27984 z"
         style="fill:#000000;fill-opacity:1;stroke:#a88000;stroke-width:0.275696;stroke-linecap:round;stroke-linejoin:round;stroke-miterlimit:4;stroke-dasharray:none;stroke-opacity:1" />
      <path
         sodipodi:nodetypes="cscscscscsscscscscscccscsc"
         inkscape:connector-curvature="0"
         id="path8123"
         d="m 97.01973,267.68814 c 0,0 -1.378043,1.03227 -1.378043,3.3073 0,2.27499 1.378043,3.27984 1.378043,3.27984 0,0 1.37804,-1.00485 1.37805,-3.27984 0,-2.27503 -1.37805,-3.3073 -1.37805,-3.3073 z m -3.307293,5.23655 c -2.27501,0 -3.30729,1.37804 -3.30729,1.37804 0,0 1.03228,1.37803 3.30729,1.37803 2.27502,0 3.27983,-1.37803 3.27983,-1.37803 0,0 -1.00481,-1.37804 -3.27983,-1.37804 z m 6.614603,0 c -2.27502,0 -3.27984,1.37804 -3.27984,1.37804 0,0 1.00482,1.37803 3.27984,1.37803 2.27502,0 3.30729,-1.37803 3.30729,-1.37803 0,0 -1.03227,-1.37804 -3.30729,-1.37804 z m -3.30731,1.40549 c 0,0 -1.378043,1.00481 -1.378043,3.27984 0,3.04061 -3.33844,10.0397 -5.23654,11.93781 0,0 1.88696,0.0622 3.8978,-1.94866 0.25378,-0.25378 0.47444,-0.50569 0.66265,-0.75307 0.14415,2.61723 2.054133,3.80953 2.054133,3.80953 0,0 1.90999,-1.1923 2.05414,-3.80953 0.18821,0.24738 0.40886,0.49929 0.66265,0.75307 2.01085,2.01087 3.89781,1.94866 3.89781,1.94866 -1.89811,-1.89811 -5.23655,-8.8972 -5.23655,-11.93781 0,-2.27503 -1.37805,-3.27984 -1.37805,-3.27984 z"
         style="fill:#000000;fill-opacity:1;stroke:#a88000;stroke-width:0.275696;stroke-linecap:round;stroke-linejoin:round;stroke-miterlimit:4;stroke-dasharray:none;stroke-opacity:1" />
      <path
         sodipodi:nodetypes="cscscscscsscscscscscccscsc"
         inkscape:connector-curvature="0"
         id="path8125"
         d="m 118.96343,267.68814 c 0,0 -1.37804,1.03227 -1.37804,3.3073 0,2.27499 1.37804,3.27984 1.37804,3.27984 0,0 1.37804,-1.00485 1.37805,-3.27984 0,-2.27503 -1.37805,-3.3073 -1.37805,-3.3073 z m -3.30729,5.23655 c -2.27501,0 -3.30729,1.37804 -3.30729,1.37804 0,0 1.03228,1.37803 3.30729,1.37803 2.27502,0 3.27983,-1.37803 3.27983,-1.37803 0,0 -1.00481,-1.37804 -3.27983,-1.37804 z m 6.61459,0 c -2.27501,0 -3.27983,1.37804 -3.27983,1.37804 0,0 1.00482,1.37803 3.27983,1.37803 2.27502,0 3.30729,-1.37803 3.30729,-1.37803 0,0 -1.03227,-1.37804 -3.30729,-1.37804 z m -3.3073,1.40549 c 0,0 -1.37804,1.00481 -1.37804,3.27984 0,3.04061 -3.33844,10.0397 -5.23654,11.93781 0,0 1.88696,0.0622 3.8978,-1.94866 0.25378,-0.25378 0.47444,-0.50569 0.66265,-0.75307 0.14415,2.61723 2.05413,3.80953 2.05413,3.80953 0,0 1.90999,-1.1923 2.05414,-3.80953 0.18821,0.24738 0.40886,0.49929 0.66265,0.75307 2.01084,2.01087 3.8978,1.94866 3.8978,1.94866 -1.89811,-1.89811 -5.23654,-8.8972 -5.23654,-11.93781 0,-2.27503 -1.37805,-3.27984 -1.37805,-3.27984 z"
         style="fill:#000000;fill-opacity:1;stroke:#a88000;stroke-width:0.275696;stroke-linecap:round;stroke-linejoin:round;stroke-miterlimit:4;stroke-dasharray:none;stroke-opacity:1" />
      <path
         sodipodi:nodetypes="csczcscscsscscscsccsc"
         inkscape:connector-curvature="0"
         id="path8127"
         transform="matrix(0.26458334,0,0,0.26458334,-100.85109,145.95093)"
         d="m 664.92188,460.10938 c 0,0 -5.20899,3.90146 -5.20899,12.5 0,8.59838 5.20899,12.39648 5.20899,12.39648 0,0 5.20701,-3.79802 5.20703,-12.39648 2e-5,-8.59846 -5.20704,-12.5 -5.20703,-12.5 z m -12.5,19.79101 c -8.59847,0 -12.5,5.20898 -12.5,5.20899 0,0 3.90153,5.20898 12.5,5.20898 8.5985,0 12.39648,-5.20899 12.39648,-5.20898 0,0 -3.79798,-5.20899 -12.39648,-5.20899 z m 25,0 c -8.59848,0 -12.39649,5.20898 -12.39649,5.20899 0,0 3.79801,5.20898 12.39649,5.20898 8.5985,0 12.49999,-5.20899 12.5,-5.20898 0,0 -3.9015,-5.20899 -12.5,-5.20899 z m -12.5,5.3125 c 0,0 -5.20899,3.79795 -5.20899,12.39649 0,3.52811 -1.19492,8.47054 -3.05078,13.82812 7.4279,7.26262 15.89385,13.72035 25.19531,19.41211 -5.95524,-10.86648 -11.72851,-25.46824 -11.72851,-33.24023 0,-8.59854 -5.20704,-12.39649 -5.20703,-12.39649 z"
         style="fill:#000000;fill-opacity:1;stroke:#a88000;stroke-width:1.042;stroke-linecap:round;stroke-linejoin:round;stroke-miterlimit:4;stroke-dasharray:none;stroke-opacity:1" />
      <path
         style="fill:#000000;fill-opacity:1;stroke:#a88000;stroke-width:0.275696;stroke-linecap:round;stroke-linejoin:round;stroke-miterlimit:4;stroke-dasharray:none;stroke-opacity:1"
         d="m 64.104183,187.50912 c 0,0 1.37804,-1.00485 1.378049,-3.27984 0,-2.27503 -1.378048,-3.3073 -1.378049,-3.3073 z m 3.307299,-1.35059 c -2.275012,0 -3.279831,1.37804 -3.279831,1.37804 0,0 1.004819,1.37803 3.279831,1.37803 2.275022,0 3.30729,-1.37803 3.30729,-1.37803 0,0 -1.032268,-1.37804 -3.30729,-1.37804 z m -3.307299,17.73094 c 0,0 1.909992,-1.1923 2.054138,-3.80953 0.188209,0.24738 0.408867,0.49929 0.662653,0.75307 2.010837,2.01087 3.897798,1.94866 3.897798,1.94866 -1.898104,-1.89811 -5.23654,-8.8972 -5.23654,-11.93781 0,-2.27503 -1.378049,-3.27984 -1.378049,-3.27984 z"
         id="path8162"
         inkscape:connector-curvature="0"
         sodipodi:nodetypes="csccscscsccscscc" />
      <path
         style="fill:#000000;fill-opacity:1;stroke:#a88000;stroke-width:0.275696;stroke-linecap:round;stroke-linejoin:round;stroke-miterlimit:4;stroke-dasharray:none;stroke-opacity:1"
         d="m 106.40821,157.69895 c -0.74501,3.41881 -3.40998,8.75486 -5.03122,10.37611 0,0 1.88659,0.0621 3.89743,-1.94872 0.25378,-0.25378 0.4748,-0.50554 0.66301,-0.75292 0.14415,2.61723 2.05414,3.80958 2.05414,3.80958 0,0 1.90999,-1.19235 2.05414,-3.80958 0.18821,0.24738 0.40871,0.49914 0.66249,0.75292 2.01085,2.01087 3.89795,1.94872 3.89795,1.94872 -1.62125,-1.62125 -4.28673,-6.9573 -5.03173,-10.37611 z"
         id="path8167"
         inkscape:connector-curvature="0"
         sodipodi:nodetypes="ccscccsccc" />
      <path
         sodipodi:nodetypes="cccsccc"
         inkscape:connector-curvature="0"
         id="path8169"
         d="m 129.93529,157.69895 h -1.58336 c -0.74501,3.41881 -3.40998,8.75486 -5.03122,10.37611 0,0 1.88659,0.0621 3.89743,-1.94872 0.25378,-0.25378 0.4748,-0.50554 0.66301,-0.75292 0.14415,2.61723 2.05414,3.80958 2.05414,3.80958 z"
         style="fill:#000000;fill-opacity:1;stroke:#a88000;stroke-width:0.275696;stroke-linecap:round;stroke-linejoin:round;stroke-miterlimit:4;stroke-dasharray:none;stroke-opacity:1" />
      <path
         style="fill:#000000;fill-opacity:1;stroke:#a88000;stroke-width:0.275696;stroke-linecap:round;stroke-linejoin:round;stroke-miterlimit:4;stroke-dasharray:none;stroke-opacity:1"
         d="m 64.104183,169.183 c 0,0 1.909991,-1.19235 2.054141,-3.80958 0.188209,0.24738 0.408707,0.49914 0.66249,0.75292 2.010849,2.01087 3.897953,1.94872 3.897953,1.94872 -1.62125,-1.62125 -4.286734,-6.9573 -5.031732,-10.37611 h -1.582852 z"
         id="path8171"
         inkscape:connector-curvature="0"
         sodipodi:nodetypes="ccscccc" />
      <path
         sodipodi:nodetypes="csccscscscscsccc"
         inkscape:connector-curvature="0"
         id="path1397"
         d="m 129.93529,215.62842 c 0,0 -1.37804,1.03227 -1.37804,3.3073 0,2.27499 1.37804,3.27984 1.37804,3.27984 z m -3.30729,5.23655 c -2.27501,0 -3.30729,1.37804 -3.30729,1.37804 0,0 1.03228,1.37803 3.30729,1.37803 2.27502,0 3.27983,-1.37803 3.27983,-1.37803 0,0 -1.00481,-1.37804 -3.27983,-1.37804 z m 3.30729,1.40549 c 0,0 -1.37804,1.00481 -1.37804,3.27984 0,3.04061 -3.33844,10.0397 -5.23654,11.93781 0,0 1.88696,0.0622 3.8978,-1.94866 0.25378,-0.25378 0.47444,-0.50569 0.66265,-0.75307 0.14415,2.61723 2.05413,3.80953 2.05413,3.80953 z"
         style="fill:#000000;fill-opacity:1;stroke:#a88000;stroke-width:0.275696;stroke-linecap:round;stroke-linejoin:round;stroke-miterlimit:4;stroke-dasharray:none;stroke-opacity:1" />
      <path
         style="fill:#000000;fill-opacity:1;stroke:#a88000;stroke-width:0.275696;stroke-linecap:round;stroke-linejoin:round;stroke-miterlimit:4;stroke-dasharray:none;stroke-opacity:1"
         d="m 129.93529,180.92198 c 0,0 -1.37804,1.03227 -1.37804,3.3073 0,2.27499 1.37804,3.27984 1.37804,3.27984 z m -3.30729,5.23655 c -2.27501,0 -3.30729,1.37804 -3.30729,1.37804 0,0 1.03228,1.37803 3.30729,1.37803 2.27502,0 3.27983,-1.37803 3.27983,-1.37803 0,0 -1.00481,-1.37804 -3.27983,-1.37804 z m 3.30729,1.40549 c 0,0 -1.37804,1.00481 -1.37804,3.27984 0,3.04061 -3.33844,10.0397 -5.23654,11.93781 0,0 1.88696,0.0622 3.8978,-1.94866 0.25378,-0.25378 0.47444,-0.50569 0.66265,-0.75307 0.14415,2.61723 2.05413,3.80953 2.05413,3.80953 z"
         id="path1399"
         inkscape:connector-curvature="0"
         sodipodi:nodetypes="csccscscscscsccc" />
    </g>
    <g
       id="g2422"
       style="fill:#a88000;fill-opacity:1;stroke:none;stroke-opacity:1"
       transform="translate(410.12481,-182.62161)">
      <path
         style="fill:#a88000;fill-opacity:1;stroke:none;stroke-width:0.275696;stroke-linecap:round;stroke-linejoin:round;stroke-miterlimit:4;stroke-dasharray:none;stroke-opacity:1"
         d="m 253.06893,285.04113 c 0,0 1.37821,1.03228 1.37821,3.30729 0,2.27501 -1.37821,3.27991 -1.37821,3.27991 z m 3.3073,5.23689 c 2.27501,0 3.30729,1.37769 3.30729,1.37769 0,0 -1.03228,1.37822 -3.30729,1.37822 -2.27502,0 -3.27991,-1.37822 -3.27991,-1.37822 0,0 1.00489,-1.37769 3.27991,-1.37769 z m -3.3073,1.4056 c 0,0 1.37821,1.00436 1.37821,3.27939 0,2.04436 1.5094,5.87392 3.07527,8.74365 -0.62817,0.35304 -1.25517,0.7145 -1.87895,1.09399 -0.19243,-0.20232 -0.36983,-0.40363 -0.52039,-0.60151 -0.0205,0.37227 -0.0793,0.71256 -0.16071,1.02784 -0.6336,0.39687 -1.26566,0.8031 -1.89343,1.2299 z"
         id="path1403"
         inkscape:connector-curvature="0"
         sodipodi:nodetypes="czccscscscscccccc" />
      <path
         style="fill:#a88000;fill-opacity:1;stroke:none;stroke-width:0.275696;stroke-linecap:round;stroke-linejoin:round;stroke-miterlimit:4;stroke-dasharray:none;stroke-opacity:1"
         d="m 298.53977,157.69903 c 0.745,3.41881 3.40997,8.75486 5.03122,10.37611 0,0 -1.8866,0.0621 -3.89744,-1.94872 -0.25378,-0.25378 -0.4748,-0.50554 -0.66301,-0.75292 -0.14415,2.61723 -2.05414,3.80958 -2.05414,3.80958 0,0 -1.90999,-1.19235 -2.05414,-3.80958 -0.18821,0.24738 -0.4087,0.49914 -0.66249,0.75292 -2.01085,2.01087 -3.89795,1.94872 -3.89795,1.94872 1.62125,-1.62125 4.28673,-6.9573 5.03173,-10.37611 z"
         id="path1405"
         inkscape:connector-curvature="0"
         sodipodi:nodetypes="ccscccsccc" />
      <path
         sodipodi:nodetypes="cscscscscsscscscscscccscsc"
         inkscape:connector-curvature="0"
         id="path1407"
         d="m 285.98455,163.56872 c 0,0 1.37804,1.03227 1.37804,3.3073 0,2.27499 -1.37804,3.27984 -1.37804,3.27984 0,0 -1.37804,-1.00485 -1.37805,-3.27984 0,-2.27503 1.37805,-3.3073 1.37805,-3.3073 z m 3.30729,5.23655 c 2.27501,0 3.30729,1.37804 3.30729,1.37804 0,0 -1.03228,1.37803 -3.30729,1.37803 -2.27502,0 -3.27983,-1.37803 -3.27983,-1.37803 0,0 1.00481,-1.37804 3.27983,-1.37804 z m -6.6146,0 c 2.27502,0 3.27984,1.37804 3.27984,1.37804 0,0 -1.00482,1.37803 -3.27984,1.37803 -2.27502,0 -3.30729,-1.37803 -3.30729,-1.37803 0,0 1.03227,-1.37804 3.30729,-1.37804 z m 3.30731,1.40549 c 0,0 1.37804,1.00481 1.37804,3.27984 0,3.04061 3.33844,10.0397 5.23654,11.93781 0,0 -1.88696,0.0622 -3.8978,-1.94866 -0.25378,-0.25378 -0.47444,-0.50569 -0.66265,-0.75307 -0.14415,2.61723 -2.05413,3.80953 -2.05413,3.80953 0,0 -1.90999,-1.1923 -2.05414,-3.80953 -0.18821,0.24738 -0.40886,0.49929 -0.66265,0.75307 -2.01085,2.01087 -3.89781,1.94866 -3.89781,1.94866 1.89811,-1.89811 5.23655,-8.8972 5.23655,-11.93781 0,-2.27503 1.37805,-3.27984 1.37805,-3.27984 z"
         style="fill:#a88000;fill-opacity:1;stroke:none;stroke-width:0.275696;stroke-linecap:round;stroke-linejoin:round;stroke-miterlimit:4;stroke-dasharray:none;stroke-opacity:1" />
      <path
         sodipodi:nodetypes="cscscscscsscscscscscccscsc"
         inkscape:connector-curvature="0"
         id="path1409"
         d="m 264.04085,163.56872 c 0,0 1.37804,1.03227 1.37804,3.3073 0,2.27499 -1.37804,3.27984 -1.37804,3.27984 0,0 -1.37804,-1.00485 -1.37805,-3.27984 0,-2.27503 1.37805,-3.3073 1.37805,-3.3073 z m 3.30729,5.23655 c 2.27501,0 3.30729,1.37804 3.30729,1.37804 0,0 -1.03228,1.37803 -3.30729,1.37803 -2.27502,0 -3.27983,-1.37803 -3.27983,-1.37803 0,0 1.00481,-1.37804 3.27983,-1.37804 z m -6.61459,0 c 2.27501,0 3.27983,1.37804 3.27983,1.37804 0,0 -1.00482,1.37803 -3.27983,1.37803 -2.27502,0 -3.30729,-1.37803 -3.30729,-1.37803 0,0 1.03227,-1.37804 3.30729,-1.37804 z m 3.3073,1.40549 c 0,0 1.37804,1.00481 1.37804,3.27984 0,3.04061 3.33844,10.0397 5.23654,11.93781 0,0 -1.88696,0.0622 -3.8978,-1.94866 -0.25378,-0.25378 -0.47444,-0.50569 -0.66265,-0.75307 -0.14415,2.61723 -2.05413,3.80953 -2.05413,3.80953 0,0 -1.90999,-1.1923 -2.05414,-3.80953 -0.18821,0.24738 -0.40886,0.49929 -0.66265,0.75307 -2.01084,2.01087 -3.8978,1.94866 -3.8978,1.94866 1.89811,-1.89811 5.23654,-8.8972 5.23654,-11.93781 0,-2.27503 1.37805,-3.27984 1.37805,-3.27984 z"
         style="fill:#a88000;fill-opacity:1;stroke:none;stroke-width:0.275696;stroke-linecap:round;stroke-linejoin:round;stroke-miterlimit:4;stroke-dasharray:none;stroke-opacity:1" />
      <path
         style="fill:#a88000;fill-opacity:1;stroke:none;stroke-width:0.275696;stroke-linecap:round;stroke-linejoin:round;stroke-miterlimit:4;stroke-dasharray:none;stroke-opacity:1"
         d="m 307.92827,163.56872 c 0,0 1.37804,1.03227 1.37804,3.3073 0,2.27499 -1.37804,3.27984 -1.37804,3.27984 0,0 -1.37804,-1.00485 -1.37805,-3.27984 0,-2.27503 1.37805,-3.3073 1.37805,-3.3073 z m 3.30729,5.23655 c 2.27501,0 3.30729,1.37804 3.30729,1.37804 0,0 -1.03228,1.37803 -3.30729,1.37803 -2.27502,0 -3.27983,-1.37803 -3.27983,-1.37803 0,0 1.00481,-1.37804 3.27983,-1.37804 z m -6.6146,0 c 2.27502,0 3.27984,1.37804 3.27984,1.37804 0,0 -1.00482,1.37803 -3.27984,1.37803 -2.27502,0 -3.30728,-1.37803 -3.30728,-1.37803 0,0 1.03226,-1.37804 3.30728,-1.37804 z m 3.30731,1.40549 c 0,0 1.37804,1.00481 1.37804,3.27984 0,3.04061 3.33844,10.0397 5.23654,11.93781 0,0 -1.88696,0.0622 -3.8978,-1.94866 -0.25378,-0.25378 -0.47444,-0.50569 -0.66265,-0.75307 -0.14415,2.61723 -2.05413,3.80953 -2.05413,3.80953 0,0 -1.90999,-1.1923 -2.05414,-3.80953 -0.18821,0.24738 -0.40886,0.49929 -0.66265,0.75307 -2.01085,2.01087 -3.8978,1.94866 -3.8978,1.94866 1.8981,-1.89811 5.23654,-8.8972 5.23654,-11.93781 0,-2.27503 1.37805,-3.27984 1.37805,-3.27984 z"
         id="path1411"
         inkscape:connector-curvature="0"
         sodipodi:nodetypes="cscscscscsscscscscscccscsc" />
      <path
         sodipodi:nodetypes="cscscscscsscscscscscccscsc"
         inkscape:connector-curvature="0"
         id="path1413"
         d="m 275.01271,180.92196 c 0,0 1.37804,1.03227 1.37804,3.3073 0,2.27499 -1.37804,3.27984 -1.37804,3.27984 0,0 -1.37804,-1.00485 -1.37805,-3.27984 0,-2.27503 1.37805,-3.3073 1.37805,-3.3073 z m 3.30729,5.23655 c 2.27501,0 3.30729,1.37804 3.30729,1.37804 0,0 -1.03228,1.37803 -3.30729,1.37803 -2.27502,0 -3.27983,-1.37803 -3.27983,-1.37803 0,0 1.00481,-1.37804 3.27983,-1.37804 z m -6.6146,0 c 2.27502,0 3.27984,1.37804 3.27984,1.37804 0,0 -1.00482,1.37803 -3.27984,1.37803 -2.27502,0 -3.30729,-1.37803 -3.30729,-1.37803 0,0 1.03227,-1.37804 3.30729,-1.37804 z m 3.30731,1.40549 c 0,0 1.37804,1.00481 1.37804,3.27984 0,3.04061 3.33844,10.0397 5.23654,11.93781 0,0 -1.88696,0.0622 -3.8978,-1.94866 -0.25378,-0.25378 -0.47444,-0.50569 -0.66265,-0.75307 -0.14415,2.61723 -2.05413,3.80953 -2.05413,3.80953 0,0 -1.90999,-1.1923 -2.05414,-3.80953 -0.18821,0.24738 -0.40886,0.49929 -0.66265,0.75307 -2.01085,2.01087 -3.89781,1.94866 -3.89781,1.94866 1.89811,-1.89811 5.23655,-8.8972 5.23655,-11.93781 0,-2.27503 1.37805,-3.27984 1.37805,-3.27984 z"
         style="fill:#a88000;fill-opacity:1;stroke:none;stroke-width:0.275696;stroke-linecap:round;stroke-linejoin:round;stroke-miterlimit:4;stroke-dasharray:none;stroke-opacity:1" />
      <path
         style="fill:#a88000;fill-opacity:1;stroke:none;stroke-width:0.275696;stroke-linecap:round;stroke-linejoin:round;stroke-miterlimit:4;stroke-dasharray:none;stroke-opacity:1"
         d="m 296.95641,180.92196 c 0,0 1.37804,1.03227 1.37804,3.3073 0,2.27499 -1.37804,3.27984 -1.37804,3.27984 0,0 -1.37804,-1.00485 -1.37805,-3.27984 0,-2.27503 1.37805,-3.3073 1.37805,-3.3073 z m 3.30729,5.23655 c 2.27501,0 3.30729,1.37804 3.30729,1.37804 0,0 -1.03228,1.37803 -3.30729,1.37803 -2.27502,0 -3.27983,-1.37803 -3.27983,-1.37803 0,0 1.00481,-1.37804 3.27983,-1.37804 z m -6.61459,0 c 2.27501,0 3.27983,1.37804 3.27983,1.37804 0,0 -1.00482,1.37803 -3.27983,1.37803 -2.27502,0 -3.30729,-1.37803 -3.30729,-1.37803 0,0 1.03227,-1.37804 3.30729,-1.37804 z m 3.3073,1.40549 c 0,0 1.37804,1.00481 1.37804,3.27984 0,3.04061 3.33844,10.0397 5.23654,11.93781 0,0 -1.88696,0.0622 -3.8978,-1.94866 -0.25378,-0.25378 -0.47444,-0.50569 -0.66265,-0.75307 -0.14415,2.61723 -2.05413,3.80953 -2.05413,3.80953 0,0 -1.90999,-1.1923 -2.05414,-3.80953 -0.18821,0.24738 -0.40886,0.49929 -0.66265,0.75307 -2.01084,2.01087 -3.8978,1.94866 -3.8978,1.94866 1.89811,-1.89811 5.23654,-8.8972 5.23654,-11.93781 0,-2.27503 1.37805,-3.27984 1.37805,-3.27984 z"
         id="path1415"
         inkscape:connector-curvature="0"
         sodipodi:nodetypes="cscscscscsscscscscscccscsc" />
      <path
         style="fill:#a88000;fill-opacity:1;stroke:none;stroke-width:0.275696;stroke-linecap:round;stroke-linejoin:round;stroke-miterlimit:4;stroke-dasharray:none;stroke-opacity:1"
         d="m 318.9001,222.21554 c 0,0 -1.37804,-1.00485 -1.37805,-3.27984 0,-2.27503 1.37805,-3.3073 1.37805,-3.3073 z m -3.3073,-1.35059 c 2.27501,0 3.27983,1.37804 3.27983,1.37804 0,0 -1.00482,1.37803 -3.27983,1.37803 -2.27502,0 -3.30729,-1.37803 -3.30729,-1.37803 0,0 1.03227,-1.37804 3.30729,-1.37804 z m 3.3073,17.73094 c 0,0 -1.91,-1.1923 -2.05414,-3.80953 -0.18821,0.24738 -0.40887,0.49929 -0.66265,0.75307 -2.01084,2.01087 -3.8978,1.94866 -3.8978,1.94866 1.8981,-1.89811 5.23654,-8.8972 5.23654,-11.93781 0,-2.27503 1.37805,-3.27984 1.37805,-3.27984 z"
         id="path1417"
         inkscape:connector-curvature="0"
         sodipodi:nodetypes="csccscscsccscscc" />
      <path
         style="fill:#a88000;fill-opacity:1;stroke:none;stroke-width:0.275696;stroke-linecap:round;stroke-linejoin:round;stroke-miterlimit:4;stroke-dasharray:none;stroke-opacity:1"
         d="m 275.01271,215.6284 c 0,0 1.37804,1.03227 1.37804,3.3073 0,2.27499 -1.37804,3.27984 -1.37804,3.27984 0,0 -1.37804,-1.00485 -1.37805,-3.27984 0,-2.27503 1.37805,-3.3073 1.37805,-3.3073 z m 3.30729,5.23655 c 2.27501,0 3.30729,1.37804 3.30729,1.37804 0,0 -1.03228,1.37803 -3.30729,1.37803 -2.27502,0 -3.27983,-1.37803 -3.27983,-1.37803 0,0 1.00481,-1.37804 3.27983,-1.37804 z m -6.6146,0 c 2.27502,0 3.27984,1.37804 3.27984,1.37804 0,0 -1.00482,1.37803 -3.27984,1.37803 -2.27502,0 -3.30729,-1.37803 -3.30729,-1.37803 0,0 1.03227,-1.37804 3.30729,-1.37804 z m 3.30731,1.40549 c 0,0 1.37804,1.00481 1.37804,3.27984 0,3.04061 3.33844,10.0397 5.23654,11.93781 0,0 -1.88696,0.0622 -3.8978,-1.94866 -0.25378,-0.25378 -0.47444,-0.50569 -0.66265,-0.75307 -0.14415,2.61723 -2.05413,3.80953 -2.05413,3.80953 0,0 -1.90999,-1.1923 -2.05414,-3.80953 -0.18821,0.24738 -0.40886,0.49929 -0.66265,0.75307 -2.01085,2.01087 -3.89781,1.94866 -3.89781,1.94866 1.89811,-1.89811 5.23655,-8.8972 5.23655,-11.93781 0,-2.27503 1.37805,-3.27984 1.37805,-3.27984 z"
         id="path1419"
         inkscape:connector-curvature="0"
         sodipodi:nodetypes="cscscscscsscscscscscccscsc" />
      <path
         sodipodi:nodetypes="cscscscscsscscscscscccscsc"
         inkscape:connector-curvature="0"
         id="path1421"
         d="m 296.95641,215.6284 c 0,0 1.37804,1.03227 1.37804,3.3073 0,2.27499 -1.37804,3.27984 -1.37804,3.27984 0,0 -1.37804,-1.00485 -1.37805,-3.27984 0,-2.27503 1.37805,-3.3073 1.37805,-3.3073 z m 3.30729,5.23655 c 2.27501,0 3.30729,1.37804 3.30729,1.37804 0,0 -1.03228,1.37803 -3.30729,1.37803 -2.27502,0 -3.27983,-1.37803 -3.27983,-1.37803 0,0 1.00481,-1.37804 3.27983,-1.37804 z m -6.61459,0 c 2.27501,0 3.27983,1.37804 3.27983,1.37804 0,0 -1.00482,1.37803 -3.27983,1.37803 -2.27502,0 -3.30729,-1.37803 -3.30729,-1.37803 0,0 1.03227,-1.37804 3.30729,-1.37804 z m 3.3073,1.40549 c 0,0 1.37804,1.00481 1.37804,3.27984 0,3.04061 3.33844,10.0397 5.23654,11.93781 0,0 -1.88696,0.0622 -3.8978,-1.94866 -0.25378,-0.25378 -0.47444,-0.50569 -0.66265,-0.75307 -0.14415,2.61723 -2.05413,3.80953 -2.05413,3.80953 0,0 -1.90999,-1.1923 -2.05414,-3.80953 -0.18821,0.24738 -0.40886,0.49929 -0.66265,0.75307 -2.01084,2.01087 -3.8978,1.94866 -3.8978,1.94866 1.89811,-1.89811 5.23654,-8.8972 5.23654,-11.93781 0,-2.27503 1.37805,-3.27984 1.37805,-3.27984 z"
         style="fill:#a88000;fill-opacity:1;stroke:none;stroke-width:0.275696;stroke-linecap:round;stroke-linejoin:round;stroke-miterlimit:4;stroke-dasharray:none;stroke-opacity:1" />
      <path
         style="fill:#a88000;fill-opacity:1;stroke:none;stroke-width:0.275696;stroke-linecap:round;stroke-linejoin:round;stroke-miterlimit:4;stroke-dasharray:none;stroke-opacity:1"
         d="m 318.90006,250.33472 v 6.5872 c 0,0 -1.37821,-1.0049 -1.37821,-3.27991 0,-2.27501 1.37821,-3.30729 1.37821,-3.30729 z m -3.30729,5.23689 c 2.27501,0 3.2799,1.37769 3.2799,1.37769 0,0 -1.00489,1.37822 -3.2799,1.37822 -2.27502,0 -3.30729,-1.37822 -3.30729,-1.37822 0,0 1.03227,-1.37769 3.30729,-1.37769 z m 3.30729,1.40508 v 3.10162 c 0,3.91162 -0.64731,7.45326 -1.83606,10.64897 -0.11253,-0.37016 -0.19301,-0.77945 -0.21808,-1.23455 -0.18821,0.24738 -0.40871,0.49965 -0.66249,0.75344 -2.01084,2.01086 -3.89795,1.9482 -3.89795,1.9482 1.8981,-1.89811 5.23637,-8.89716 5.23637,-11.93777 0,-2.27503 1.37821,-3.27991 1.37821,-3.27991 z"
         id="path1423"
         inkscape:connector-curvature="0"
         sodipodi:nodetypes="cczcscscscsccscsc" />
      <path
         sodipodi:nodetypes="cscscscscsscscscscscccscsc"
         inkscape:connector-curvature="0"
         id="path1425"
         d="m 275.01271,250.33488 c 0,0 1.37804,1.03227 1.37804,3.3073 0,2.27499 -1.37804,3.27984 -1.37804,3.27984 0,0 -1.37804,-1.00485 -1.37805,-3.27984 0,-2.27503 1.37805,-3.3073 1.37805,-3.3073 z m 3.30729,5.23655 c 2.27501,0 3.30729,1.37804 3.30729,1.37804 0,0 -1.03228,1.37803 -3.30729,1.37803 -2.27502,0 -3.27983,-1.37803 -3.27983,-1.37803 0,0 1.00481,-1.37804 3.27983,-1.37804 z m -6.6146,0 c 2.27502,0 3.27984,1.37804 3.27984,1.37804 0,0 -1.00482,1.37803 -3.27984,1.37803 -2.27502,0 -3.30729,-1.37803 -3.30729,-1.37803 0,0 1.03227,-1.37804 3.30729,-1.37804 z m 3.30731,1.40549 c 0,0 1.37804,1.00481 1.37804,3.27984 0,3.04061 3.33844,10.0397 5.23654,11.93781 0,0 -1.88696,0.0622 -3.8978,-1.94866 -0.25378,-0.25378 -0.47444,-0.50569 -0.66265,-0.75307 -0.14415,2.61723 -2.05413,3.80953 -2.05413,3.80953 0,0 -1.90999,-1.1923 -2.05414,-3.80953 -0.18821,0.24738 -0.40886,0.49929 -0.66265,0.75307 -2.01085,2.01087 -3.89781,1.94866 -3.89781,1.94866 1.89811,-1.89811 5.23655,-8.8972 5.23655,-11.93781 0,-2.27503 1.37805,-3.27984 1.37805,-3.27984 z"
         style="fill:#a88000;fill-opacity:1;stroke:none;stroke-width:0.275696;stroke-linecap:round;stroke-linejoin:round;stroke-miterlimit:4;stroke-dasharray:none;stroke-opacity:1" />
      <path
         sodipodi:nodetypes="csccscscscscsccc"
         inkscape:connector-curvature="0"
         id="path1427"
         d="m 253.06899,250.33488 c 0,0 1.37804,1.03227 1.37804,3.3073 0,2.27499 -1.37804,3.27984 -1.37804,3.27984 z m 3.30729,5.23655 c 2.27501,0 3.30729,1.37804 3.30729,1.37804 0,0 -1.03228,1.37803 -3.30729,1.37803 -2.27502,0 -3.27983,-1.37803 -3.27983,-1.37803 0,0 1.00481,-1.37804 3.27983,-1.37804 z m -3.30729,1.40549 c 0,0 1.37804,1.00481 1.37804,3.27984 0,3.04061 3.33844,10.0397 5.23654,11.93781 0,0 -1.88696,0.0622 -3.8978,-1.94866 -0.25378,-0.25378 -0.47444,-0.50569 -0.66265,-0.75307 -0.14415,2.61723 -2.05413,3.80953 -2.05413,3.80953 z"
         style="fill:#a88000;fill-opacity:1;stroke:none;stroke-width:0.275696;stroke-linecap:round;stroke-linejoin:round;stroke-miterlimit:4;stroke-dasharray:none;stroke-opacity:1" />
      <path
         style="fill:#a88000;fill-opacity:1;stroke:none;stroke-width:0.275696;stroke-linecap:round;stroke-linejoin:round;stroke-miterlimit:4;stroke-dasharray:none;stroke-opacity:1"
         d="m 296.95641,250.33488 c 0,0 1.37804,1.03227 1.37804,3.3073 0,2.27499 -1.37804,3.27984 -1.37804,3.27984 0,0 -1.37804,-1.00485 -1.37805,-3.27984 0,-2.27503 1.37805,-3.3073 1.37805,-3.3073 z m 3.30729,5.23655 c 2.27501,0 3.30729,1.37804 3.30729,1.37804 0,0 -1.03228,1.37803 -3.30729,1.37803 -2.27502,0 -3.27983,-1.37803 -3.27983,-1.37803 0,0 1.00481,-1.37804 3.27983,-1.37804 z m -6.61459,0 c 2.27501,0 3.27983,1.37804 3.27983,1.37804 0,0 -1.00482,1.37803 -3.27983,1.37803 -2.27502,0 -3.30729,-1.37803 -3.30729,-1.37803 0,0 1.03227,-1.37804 3.30729,-1.37804 z m 3.3073,1.40549 c 0,0 1.37804,1.00481 1.37804,3.27984 0,3.04061 3.33844,10.0397 5.23654,11.93781 0,0 -1.88696,0.0622 -3.8978,-1.94866 -0.25378,-0.25378 -0.47444,-0.50569 -0.66265,-0.75307 -0.14415,2.61723 -2.05413,3.80953 -2.05413,3.80953 0,0 -1.90999,-1.1923 -2.05414,-3.80953 -0.18821,0.24738 -0.40886,0.49929 -0.66265,0.75307 -2.01084,2.01087 -3.8978,1.94866 -3.8978,1.94866 1.89811,-1.89811 5.23654,-8.8972 5.23654,-11.93781 0,-2.27503 1.37805,-3.27984 1.37805,-3.27984 z"
         id="path1429"
         inkscape:connector-curvature="0"
         sodipodi:nodetypes="cscscscscsscscscscscccscsc" />
      <path
         style="fill:#a88000;fill-opacity:1;stroke:none;stroke-width:0.275696;stroke-linecap:round;stroke-linejoin:round;stroke-miterlimit:4;stroke-dasharray:none;stroke-opacity:1"
         d="m 275.01282,285.04113 c 0,0 1.37769,1.03228 1.37769,3.30729 0,2.27501 -1.37769,3.27991 -1.37769,3.27991 0,0 -1.37821,-1.0049 -1.37822,-3.27991 0,-2.27501 1.37822,-3.30729 1.37822,-3.30729 z m 3.30729,5.23689 c 2.27501,0 3.30729,1.37769 3.30729,1.37769 0,0 -1.03228,1.37822 -3.30729,1.37822 -2.27502,0 -3.27991,-1.37822 -3.27991,-1.37822 0,0 1.00489,-1.37769 3.27991,-1.37769 z m -6.61459,0 c 2.27502,0 3.27991,1.37769 3.27991,1.37769 0,0 -1.00489,1.37822 -3.27991,1.37822 -2.27502,0 -3.30729,-1.37822 -3.30729,-1.37822 0,0 1.03227,-1.37769 3.30729,-1.37769 z m 3.3073,1.4056 c 0,0 1.37769,1.00436 1.37769,3.27939 0,0.32823 0.0414,0.70504 0.11317,1.11414 -1.05934,0.31391 -2.12602,0.6406 -3.19774,0.98237 0.20763,-0.7998 0.32866,-1.51975 0.32866,-2.09651 0,-2.27503 1.37822,-3.27939 1.37822,-3.27939 z"
         id="path1431"
         inkscape:connector-curvature="0"
         sodipodi:nodetypes="czczcscscsscscscsccsc" />
      <path
         style="fill:#a88000;fill-opacity:1;stroke:none;stroke-width:0.275696;stroke-linecap:round;stroke-linejoin:round;stroke-miterlimit:4;stroke-dasharray:none;stroke-opacity:1"
         d="m 296.95618,285.04113 c 0,0 1.37821,1.03226 1.37821,3.30729 0,0.28227 -0.0212,0.54492 -0.0584,0.78859 -0.77396,0.3528 -1.56165,0.69101 -2.36369,1.01285 -0.192,-0.47663 -0.33383,-1.07321 -0.33383,-1.80144 0,-2.27503 1.3777,-3.30729 1.3777,-3.30729 z m -3.30729,5.23689 c 0.54791,0 1.02045,0.0807 1.42472,0.20206 -0.50673,0.19442 -1.01724,0.38482 -1.53376,0.5674 -0.93091,0.32907 -1.88949,0.64157 -2.86029,0.94827 -0.21904,-0.1924 -0.33796,-0.34004 -0.33796,-0.34004 0,0 1.03227,-1.37769 3.30729,-1.37769 z"
         id="path1433"
         inkscape:connector-curvature="0"
         sodipodi:nodetypes="csccscscsccs" />
      <path
         style="fill:#a88000;fill-opacity:1;stroke:none;stroke-width:0.275696;stroke-linecap:round;stroke-linejoin:round;stroke-miterlimit:4;stroke-dasharray:none;stroke-opacity:1"
         d="m 285.98455,198.27518 c 0,0 1.37804,1.03227 1.37804,3.3073 0,2.27499 -1.37804,3.27984 -1.37804,3.27984 0,0 -1.37804,-1.00485 -1.37805,-3.27984 0,-2.27503 1.37805,-3.3073 1.37805,-3.3073 z m 3.30729,5.23655 c 2.27501,0 3.30729,1.37804 3.30729,1.37804 0,0 -1.03228,1.37803 -3.30729,1.37803 -2.27502,0 -3.27983,-1.37803 -3.27983,-1.37803 0,0 1.00481,-1.37804 3.27983,-1.37804 z m -6.6146,0 c 2.27502,0 3.27984,1.37804 3.27984,1.37804 0,0 -1.00482,1.37803 -3.27984,1.37803 -2.27502,0 -3.30729,-1.37803 -3.30729,-1.37803 0,0 1.03227,-1.37804 3.30729,-1.37804 z m 3.30731,1.40549 c 0,0 1.37804,1.00481 1.37804,3.27984 0,3.04061 3.33844,10.0397 5.23654,11.93781 0,0 -1.88696,0.0622 -3.8978,-1.94866 -0.25378,-0.25378 -0.47444,-0.50569 -0.66265,-0.75307 -0.14415,2.61723 -2.05413,3.80953 -2.05413,3.80953 0,0 -1.90999,-1.1923 -2.05414,-3.80953 -0.18821,0.24738 -0.40886,0.49929 -0.66265,0.75307 -2.01085,2.01087 -3.89781,1.94866 -3.89781,1.94866 1.89811,-1.89811 5.23655,-8.8972 5.23655,-11.93781 0,-2.27503 1.37805,-3.27984 1.37805,-3.27984 z"
         id="path1435"
         inkscape:connector-curvature="0"
         sodipodi:nodetypes="cscscscscsscscscscscccscsc" />
      <path
         style="fill:#a88000;fill-opacity:1;stroke:none;stroke-width:0.275696;stroke-linecap:round;stroke-linejoin:round;stroke-miterlimit:4;stroke-dasharray:none;stroke-opacity:1"
         d="m 264.04085,198.27518 c 0,0 1.37804,1.03227 1.37804,3.3073 0,2.27499 -1.37804,3.27984 -1.37804,3.27984 0,0 -1.37804,-1.00485 -1.37805,-3.27984 0,-2.27503 1.37805,-3.3073 1.37805,-3.3073 z m 3.30729,5.23655 c 2.27501,0 3.30729,1.37804 3.30729,1.37804 0,0 -1.03228,1.37803 -3.30729,1.37803 -2.27502,0 -3.27983,-1.37803 -3.27983,-1.37803 0,0 1.00481,-1.37804 3.27983,-1.37804 z m -6.61459,0 c 2.27501,0 3.27983,1.37804 3.27983,1.37804 0,0 -1.00482,1.37803 -3.27983,1.37803 -2.27502,0 -3.30729,-1.37803 -3.30729,-1.37803 0,0 1.03227,-1.37804 3.30729,-1.37804 z m 3.3073,1.40549 c 0,0 1.37804,1.00481 1.37804,3.27984 0,3.04061 3.33844,10.0397 5.23654,11.93781 0,0 -1.88696,0.0622 -3.8978,-1.94866 -0.25378,-0.25378 -0.47444,-0.50569 -0.66265,-0.75307 -0.14415,2.61723 -2.05413,3.80953 -2.05413,3.80953 0,0 -1.90999,-1.1923 -2.05414,-3.80953 -0.18821,0.24738 -0.40886,0.49929 -0.66265,0.75307 -2.01084,2.01087 -3.8978,1.94866 -3.8978,1.94866 1.89811,-1.89811 5.23654,-8.8972 5.23654,-11.93781 0,-2.27503 1.37805,-3.27984 1.37805,-3.27984 z"
         id="path1437"
         inkscape:connector-curvature="0"
         sodipodi:nodetypes="cscscscscsscscscscscccscsc" />
      <path
         sodipodi:nodetypes="cscscscscsscscscscscccscsc"
         inkscape:connector-curvature="0"
         id="path1439"
         d="m 307.92827,198.27518 c 0,0 1.37804,1.03227 1.37804,3.3073 0,2.27499 -1.37804,3.27984 -1.37804,3.27984 0,0 -1.37804,-1.00485 -1.37805,-3.27984 0,-2.27503 1.37805,-3.3073 1.37805,-3.3073 z m 3.30729,5.23655 c 2.27501,0 3.30729,1.37804 3.30729,1.37804 0,0 -1.03228,1.37803 -3.30729,1.37803 -2.27502,0 -3.27983,-1.37803 -3.27983,-1.37803 0,0 1.00481,-1.37804 3.27983,-1.37804 z m -6.6146,0 c 2.27502,0 3.27984,1.37804 3.27984,1.37804 0,0 -1.00482,1.37803 -3.27984,1.37803 -2.27502,0 -3.30728,-1.37803 -3.30728,-1.37803 0,0 1.03226,-1.37804 3.30728,-1.37804 z m 3.30731,1.40549 c 0,0 1.37804,1.00481 1.37804,3.27984 0,3.04061 3.33844,10.0397 5.23654,11.93781 0,0 -1.88696,0.0622 -3.8978,-1.94866 -0.25378,-0.25378 -0.47444,-0.50569 -0.66265,-0.75307 -0.14415,2.61723 -2.05413,3.80953 -2.05413,3.80953 0,0 -1.90999,-1.1923 -2.05414,-3.80953 -0.18821,0.24738 -0.40886,0.49929 -0.66265,0.75307 -2.01085,2.01087 -3.8978,1.94866 -3.8978,1.94866 1.8981,-1.89811 5.23654,-8.8972 5.23654,-11.93781 0,-2.27503 1.37805,-3.27984 1.37805,-3.27984 z"
         style="fill:#a88000;fill-opacity:1;stroke:none;stroke-width:0.275696;stroke-linecap:round;stroke-linejoin:round;stroke-miterlimit:4;stroke-dasharray:none;stroke-opacity:1" />
      <path
         sodipodi:nodetypes="cscscscscsscscscscscccscsc"
         inkscape:connector-curvature="0"
         id="path1441"
         d="m 285.98455,232.98165 c 0,0 1.37804,1.03227 1.37804,3.3073 0,2.27499 -1.37804,3.27984 -1.37804,3.27984 0,0 -1.37804,-1.00485 -1.37805,-3.27984 0,-2.27503 1.37805,-3.3073 1.37805,-3.3073 z m 3.30729,5.23655 c 2.27501,0 3.30729,1.37804 3.30729,1.37804 0,0 -1.03228,1.37803 -3.30729,1.37803 -2.27502,0 -3.27983,-1.37803 -3.27983,-1.37803 0,0 1.00481,-1.37804 3.27983,-1.37804 z m -6.6146,0 c 2.27502,0 3.27984,1.37804 3.27984,1.37804 0,0 -1.00482,1.37803 -3.27984,1.37803 -2.27502,0 -3.30729,-1.37803 -3.30729,-1.37803 0,0 1.03227,-1.37804 3.30729,-1.37804 z m 3.30731,1.40549 c 0,0 1.37804,1.00481 1.37804,3.27984 0,3.04061 3.33844,10.0397 5.23654,11.93781 0,0 -1.88696,0.0622 -3.8978,-1.94866 -0.25378,-0.25378 -0.47444,-0.50569 -0.66265,-0.75307 -0.14415,2.61723 -2.05413,3.80953 -2.05413,3.80953 0,0 -1.90999,-1.1923 -2.05414,-3.80953 -0.18821,0.24738 -0.40886,0.49929 -0.66265,0.75307 -2.01085,2.01087 -3.89781,1.94866 -3.89781,1.94866 1.89811,-1.89811 5.23655,-8.8972 5.23655,-11.93781 0,-2.27503 1.37805,-3.27984 1.37805,-3.27984 z"
         style="fill:#a88000;fill-opacity:1;stroke:none;stroke-width:0.275696;stroke-linecap:round;stroke-linejoin:round;stroke-miterlimit:4;stroke-dasharray:none;stroke-opacity:1" />
      <path
         sodipodi:nodetypes="cscscscscsscscscscscccscsc"
         inkscape:connector-curvature="0"
         id="path1443"
         d="m 264.04085,232.98165 c 0,0 1.37804,1.03227 1.37804,3.3073 0,2.27499 -1.37804,3.27984 -1.37804,3.27984 0,0 -1.37804,-1.00485 -1.37805,-3.27984 0,-2.27503 1.37805,-3.3073 1.37805,-3.3073 z m 3.30729,5.23655 c 2.27501,0 3.30729,1.37804 3.30729,1.37804 0,0 -1.03228,1.37803 -3.30729,1.37803 -2.27502,0 -3.27983,-1.37803 -3.27983,-1.37803 0,0 1.00481,-1.37804 3.27983,-1.37804 z m -6.61459,0 c 2.27501,0 3.27983,1.37804 3.27983,1.37804 0,0 -1.00482,1.37803 -3.27983,1.37803 -2.27502,0 -3.30729,-1.37803 -3.30729,-1.37803 0,0 1.03227,-1.37804 3.30729,-1.37804 z m 3.3073,1.40549 c 0,0 1.37804,1.00481 1.37804,3.27984 0,3.04061 3.33844,10.0397 5.23654,11.93781 0,0 -1.88696,0.0622 -3.8978,-1.94866 -0.25378,-0.25378 -0.47444,-0.50569 -0.66265,-0.75307 -0.14415,2.61723 -2.05413,3.80953 -2.05413,3.80953 0,0 -1.90999,-1.1923 -2.05414,-3.80953 -0.18821,0.24738 -0.40886,0.49929 -0.66265,0.75307 -2.01084,2.01087 -3.8978,1.94866 -3.8978,1.94866 1.89811,-1.89811 5.23654,-8.8972 5.23654,-11.93781 0,-2.27503 1.37805,-3.27984 1.37805,-3.27984 z"
         style="fill:#a88000;fill-opacity:1;stroke:none;stroke-width:0.275696;stroke-linecap:round;stroke-linejoin:round;stroke-miterlimit:4;stroke-dasharray:none;stroke-opacity:1" />
      <path
         style="fill:#a88000;fill-opacity:1;stroke:none;stroke-width:0.275696;stroke-linecap:round;stroke-linejoin:round;stroke-miterlimit:4;stroke-dasharray:none;stroke-opacity:1"
         d="m 307.92827,232.98165 c 0,0 1.37804,1.03227 1.37804,3.3073 0,2.27499 -1.37804,3.27984 -1.37804,3.27984 0,0 -1.37804,-1.00485 -1.37805,-3.27984 0,-2.27503 1.37805,-3.3073 1.37805,-3.3073 z m 3.30729,5.23655 c 2.27501,0 3.30729,1.37804 3.30729,1.37804 0,0 -1.03228,1.37803 -3.30729,1.37803 -2.27502,0 -3.27983,-1.37803 -3.27983,-1.37803 0,0 1.00481,-1.37804 3.27983,-1.37804 z m -6.6146,0 c 2.27502,0 3.27984,1.37804 3.27984,1.37804 0,0 -1.00482,1.37803 -3.27984,1.37803 -2.27502,0 -3.30728,-1.37803 -3.30728,-1.37803 0,0 1.03226,-1.37804 3.30728,-1.37804 z m 3.30731,1.40549 c 0,0 1.37804,1.00481 1.37804,3.27984 0,3.04061 3.33844,10.0397 5.23654,11.93781 0,0 -1.88696,0.0622 -3.8978,-1.94866 -0.25378,-0.25378 -0.47444,-0.50569 -0.66265,-0.75307 -0.14415,2.61723 -2.05413,3.80953 -2.05413,3.80953 0,0 -1.90999,-1.1923 -2.05414,-3.80953 -0.18821,0.24738 -0.40886,0.49929 -0.66265,0.75307 -2.01085,2.01087 -3.8978,1.94866 -3.8978,1.94866 1.8981,-1.89811 5.23654,-8.8972 5.23654,-11.93781 0,-2.27503 1.37805,-3.27984 1.37805,-3.27984 z"
         id="path1445"
         inkscape:connector-curvature="0"
         sodipodi:nodetypes="cscscscscsscscscscscccscsc" />
      <path
         style="fill:#a88000;fill-opacity:1;stroke:none;stroke-width:0.275696;stroke-linecap:round;stroke-linejoin:round;stroke-miterlimit:4;stroke-dasharray:none;stroke-opacity:1"
         d="m 285.98455,267.68812 c 0,0 1.37804,1.03227 1.37804,3.3073 0,2.27499 -1.37804,3.27984 -1.37804,3.27984 0,0 -1.37804,-1.00485 -1.37805,-3.27984 0,-2.27503 1.37805,-3.3073 1.37805,-3.3073 z m 3.30729,5.23655 c 2.27501,0 3.30729,1.37804 3.30729,1.37804 0,0 -1.03228,1.37803 -3.30729,1.37803 -2.27502,0 -3.27983,-1.37803 -3.27983,-1.37803 0,0 1.00481,-1.37804 3.27983,-1.37804 z m -6.6146,0 c 2.27502,0 3.27984,1.37804 3.27984,1.37804 0,0 -1.00482,1.37803 -3.27984,1.37803 -2.27502,0 -3.30729,-1.37803 -3.30729,-1.37803 0,0 1.03227,-1.37804 3.30729,-1.37804 z m 3.30731,1.40549 c 0,0 1.37804,1.00481 1.37804,3.27984 0,3.04061 3.33844,10.0397 5.23654,11.93781 0,0 -1.88696,0.0622 -3.8978,-1.94866 -0.25378,-0.25378 -0.47444,-0.50569 -0.66265,-0.75307 -0.14415,2.61723 -2.05413,3.80953 -2.05413,3.80953 0,0 -1.90999,-1.1923 -2.05414,-3.80953 -0.18821,0.24738 -0.40886,0.49929 -0.66265,0.75307 -2.01085,2.01087 -3.89781,1.94866 -3.89781,1.94866 1.89811,-1.89811 5.23655,-8.8972 5.23655,-11.93781 0,-2.27503 1.37805,-3.27984 1.37805,-3.27984 z"
         id="path1447"
         inkscape:connector-curvature="0"
         sodipodi:nodetypes="cscscscscsscscscscscccscsc" />
      <path
         style="fill:#a88000;fill-opacity:1;stroke:none;stroke-width:0.275696;stroke-linecap:round;stroke-linejoin:round;stroke-miterlimit:4;stroke-dasharray:none;stroke-opacity:1"
         d="m 264.04085,267.68812 c 0,0 1.37804,1.03227 1.37804,3.3073 0,2.27499 -1.37804,3.27984 -1.37804,3.27984 0,0 -1.37804,-1.00485 -1.37805,-3.27984 0,-2.27503 1.37805,-3.3073 1.37805,-3.3073 z m 3.30729,5.23655 c 2.27501,0 3.30729,1.37804 3.30729,1.37804 0,0 -1.03228,1.37803 -3.30729,1.37803 -2.27502,0 -3.27983,-1.37803 -3.27983,-1.37803 0,0 1.00481,-1.37804 3.27983,-1.37804 z m -6.61459,0 c 2.27501,0 3.27983,1.37804 3.27983,1.37804 0,0 -1.00482,1.37803 -3.27983,1.37803 -2.27502,0 -3.30729,-1.37803 -3.30729,-1.37803 0,0 1.03227,-1.37804 3.30729,-1.37804 z m 3.3073,1.40549 c 0,0 1.37804,1.00481 1.37804,3.27984 0,3.04061 3.33844,10.0397 5.23654,11.93781 0,0 -1.88696,0.0622 -3.8978,-1.94866 -0.25378,-0.25378 -0.47444,-0.50569 -0.66265,-0.75307 -0.14415,2.61723 -2.05413,3.80953 -2.05413,3.80953 0,0 -1.90999,-1.1923 -2.05414,-3.80953 -0.18821,0.24738 -0.40886,0.49929 -0.66265,0.75307 -2.01084,2.01087 -3.8978,1.94866 -3.8978,1.94866 1.89811,-1.89811 5.23654,-8.8972 5.23654,-11.93781 0,-2.27503 1.37805,-3.27984 1.37805,-3.27984 z"
         id="path1449"
         inkscape:connector-curvature="0"
         sodipodi:nodetypes="cscscscscsscscscscscccscsc" />
      <path
         style="fill:#a88000;fill-opacity:1;stroke:none;stroke-width:0.275696;stroke-linecap:round;stroke-linejoin:round;stroke-miterlimit:4;stroke-dasharray:none;stroke-opacity:1"
         d="m 307.92812,267.68819 c 0,0 1.37821,1.03226 1.37821,3.30729 0,2.27499 -1.37821,3.2799 -1.37821,3.2799 0,0 -1.37769,-1.00489 -1.3777,-3.2799 0,-2.27501 1.3777,-3.30729 1.3777,-3.30729 z m 3.30729,5.23637 c 2.27501,0 3.30729,1.37821 3.30729,1.37821 0,0 -1.03228,1.37821 -3.30729,1.37821 -2.27502,0 -3.2799,-1.37821 -3.2799,-1.37821 0,0 1.00488,-1.37821 3.2799,-1.37821 z m -6.61458,0 c 2.27501,0 3.2799,1.37821 3.2799,1.37821 0,0 -1.00489,1.37821 -3.2799,1.37821 -2.27502,0 -3.30729,-1.37821 -3.3073,-1.37821 0,0 1.03228,-1.37821 3.3073,-1.37821 z m 3.30729,1.4056 c 0,0 1.37821,1.00487 1.37821,3.2799 0,0.93348 0.31616,2.24117 0.80719,3.65869 -1.9653,1.92157 -4.20525,3.63018 -6.66626,5.13612 1.57565,-2.87509 3.10316,-6.73847 3.10316,-8.79481 0,-2.27503 1.3777,-3.2799 1.3777,-3.2799 z"
         id="path1451"
         inkscape:connector-curvature="0"
         sodipodi:nodetypes="csczcscscsscscscsccsc" />
      <path
         sodipodi:nodetypes="csccscscsccscscc"
         inkscape:connector-curvature="0"
         id="path1453"
         d="m 318.9001,187.5091 c 0,0 -1.37804,-1.00485 -1.37805,-3.27984 0,-2.27503 1.37805,-3.3073 1.37805,-3.3073 z m -3.3073,-1.35059 c 2.27501,0 3.27983,1.37804 3.27983,1.37804 0,0 -1.00482,1.37803 -3.27983,1.37803 -2.27502,0 -3.30729,-1.37803 -3.30729,-1.37803 0,0 1.03227,-1.37804 3.30729,-1.37804 z m 3.3073,17.73094 c 0,0 -1.91,-1.1923 -2.05414,-3.80953 -0.18821,0.24738 -0.40887,0.49929 -0.66265,0.75307 -2.01084,2.01087 -3.8978,1.94866 -3.8978,1.94866 1.8981,-1.89811 5.23654,-8.8972 5.23654,-11.93781 0,-2.27503 1.37805,-3.27984 1.37805,-3.27984 z"
         style="fill:#a88000;fill-opacity:1;stroke:none;stroke-width:0.275696;stroke-linecap:round;stroke-linejoin:round;stroke-miterlimit:4;stroke-dasharray:none;stroke-opacity:1" />
      <path
         sodipodi:nodetypes="ccscccsccc"
         inkscape:connector-curvature="0"
         id="path1455"
         d="m 276.59607,157.69893 c 0.74501,3.41881 3.40998,8.75486 5.03122,10.37611 0,0 -1.88659,0.0621 -3.89743,-1.94872 -0.25378,-0.25378 -0.4748,-0.50554 -0.66301,-0.75292 -0.14415,2.61723 -2.05414,3.80958 -2.05414,3.80958 0,0 -1.90999,-1.19235 -2.05414,-3.80958 -0.18821,0.24738 -0.40871,0.49914 -0.66249,0.75292 -2.01085,2.01087 -3.89795,1.94872 -3.89795,1.94872 1.62125,-1.62125 4.28673,-6.9573 5.03173,-10.37611 z"
         style="fill:#a88000;fill-opacity:1;stroke:none;stroke-width:0.275696;stroke-linecap:round;stroke-linejoin:round;stroke-miterlimit:4;stroke-dasharray:none;stroke-opacity:1" />
      <path
         style="fill:#a88000;fill-opacity:1;stroke:none;stroke-width:0.275696;stroke-linecap:round;stroke-linejoin:round;stroke-miterlimit:4;stroke-dasharray:none;stroke-opacity:1"
         d="m 253.06899,157.69893 h 1.58336 c 0.74501,3.41881 3.40998,8.75486 5.03122,10.37611 0,0 -1.88659,0.0621 -3.89743,-1.94872 -0.25378,-0.25378 -0.4748,-0.50554 -0.66301,-0.75292 -0.14415,2.61723 -2.05414,3.80958 -2.05414,3.80958 z"
         id="path1457"
         inkscape:connector-curvature="0"
         sodipodi:nodetypes="cccsccc" />
      <path
         sodipodi:nodetypes="ccscccc"
         inkscape:connector-curvature="0"
         id="path1459"
         d="m 318.9001,169.18298 c 0,0 -1.90999,-1.19235 -2.05414,-3.80958 -0.18821,0.24738 -0.40871,0.49914 -0.66249,0.75292 -2.01085,2.01087 -3.89796,1.94872 -3.89796,1.94872 1.62125,-1.62125 4.28674,-6.9573 5.03173,-10.37611 h 1.58286 z"
         style="fill:#a88000;fill-opacity:1;stroke:none;stroke-width:0.275696;stroke-linecap:round;stroke-linejoin:round;stroke-miterlimit:4;stroke-dasharray:none;stroke-opacity:1" />
      <path
         style="fill:#a88000;fill-opacity:1;stroke:none;stroke-width:0.275696;stroke-linecap:round;stroke-linejoin:round;stroke-miterlimit:4;stroke-dasharray:none;stroke-opacity:1"
         d="m 253.06899,215.6284 c 0,0 1.37804,1.03227 1.37804,3.3073 0,2.27499 -1.37804,3.27984 -1.37804,3.27984 z m 3.30729,5.23655 c 2.27501,0 3.30729,1.37804 3.30729,1.37804 0,0 -1.03228,1.37803 -3.30729,1.37803 -2.27502,0 -3.27983,-1.37803 -3.27983,-1.37803 0,0 1.00481,-1.37804 3.27983,-1.37804 z m -3.30729,1.40549 c 0,0 1.37804,1.00481 1.37804,3.27984 0,3.04061 3.33844,10.0397 5.23654,11.93781 0,0 -1.88696,0.0622 -3.8978,-1.94866 -0.25378,-0.25378 -0.47444,-0.50569 -0.66265,-0.75307 -0.14415,2.61723 -2.05413,3.80953 -2.05413,3.80953 z"
         id="path1461"
         inkscape:connector-curvature="0"
         sodipodi:nodetypes="csccscscscscsccc" />
      <path
         sodipodi:nodetypes="csccscscscscsccc"
         inkscape:connector-curvature="0"
         id="path1463"
         d="m 253.06899,180.92196 c 0,0 1.37804,1.03227 1.37804,3.3073 0,2.27499 -1.37804,3.27984 -1.37804,3.27984 z m 3.30729,5.23655 c 2.27501,0 3.30729,1.37804 3.30729,1.37804 0,0 -1.03228,1.37803 -3.30729,1.37803 -2.27502,0 -3.27983,-1.37803 -3.27983,-1.37803 0,0 1.00481,-1.37804 3.27983,-1.37804 z m -3.30729,1.40549 c 0,0 1.37804,1.00481 1.37804,3.27984 0,3.04061 3.33844,10.0397 5.23654,11.93781 0,0 -1.88696,0.0622 -3.8978,-1.94866 -0.25378,-0.25378 -0.47444,-0.50569 -0.66265,-0.75307 -0.14415,2.61723 -2.05413,3.80953 -2.05413,3.80953 z"
         style="fill:#a88000;fill-opacity:1;stroke:none;stroke-width:0.275696;stroke-linecap:round;stroke-linejoin:round;stroke-miterlimit:4;stroke-dasharray:none;stroke-opacity:1" />
    </g>
  </g>
</svg>
