<?xml version="1.0" encoding="UTF-8" standalone="no"?>
<!-- Created with Inkscape (http://www.inkscape.org/) -->

<svg
   width="498.62103"
   height="563.23358"
   viewBox="0 0 131.9268 149.02223"
   version="1.1"
   id="svg8"
   inkscape:export-filename="C:\Users\厂永刄先生\Documents\VENCAQ1\新しいフォルダー\pièces II.png"
   inkscape:export-xdpi="96"
   inkscape:export-ydpi="96"
   inkscape:version="1.3 (0e150ed6c4, 2023-07-21)"
   sodipodi:docname="caironat - Copie.svg"
   xmlns:inkscape="http://www.inkscape.org/namespaces/inkscape"
   xmlns:sodipodi="http://sodipodi.sourceforge.net/DTD/sodipodi-0.dtd"
   xmlns:xlink="http://www.w3.org/1999/xlink"
   xmlns="http://www.w3.org/2000/svg"
   xmlns:svg="http://www.w3.org/2000/svg"
   xmlns:rdf="http://www.w3.org/1999/02/22-rdf-syntax-ns#"
   xmlns:cc="http://creativecommons.org/ns#"
   xmlns:dc="http://purl.org/dc/elements/1.1/">
  <defs
     id="defs2">
    <linearGradient
       id="linearGradient1"
       inkscape:collect="always">
      <stop
         style="stop-color:#ffffff;stop-opacity:1;"
         offset="0"
         id="stop1" />
      <stop
         style="stop-color:#bfbfbf;stop-opacity:1;"
         offset="1"
         id="stop2" />
    </linearGradient>
    <radialGradient
       inkscape:collect="always"
       xlink:href="#linearGradient1"
       id="radialGradient2"
       cx="247.82748"
       cy="656.59337"
       fx="247.82748"
       fy="656.59337"
       r="65.963391"
       gradientTransform="matrix(0.99972171,0,0,1.1290071,0.07584824,-84.677439)"
       gradientUnits="userSpaceOnUse" />
  </defs>
  <sodipodi:namedview
     id="base"
     pagecolor="#000000"
     bordercolor="#666666"
     borderopacity="1.0"
     inkscape:pageopacity="1"
     inkscape:pageshadow="2"
     inkscape:zoom="0.595535"
     inkscape:cx="-28.545761"
     inkscape:cy="383.68862"
     inkscape:document-units="px"
     inkscape:current-layer="layer1"
     showgrid="false"
     units="px"
     fit-margin-top="10"
     fit-margin-left="10"
     fit-margin-right="10"
     fit-margin-bottom="10"
     inkscape:window-width="1920"
     inkscape:window-height="1009"
     inkscape:window-x="-8"
     inkscape:window-y="-8"
     inkscape:window-maximized="1"
     showguides="true"
     inkscape:guide-bbox="true"
     inkscape:snap-intersection-paths="true"
     inkscape:snap-smooth-nodes="true"
     inkscape:pagecheckerboard="false"
     inkscape:showpageshadow="0"
     inkscape:deskcolor="#505050" />
  <metadata
     id="metadata5">
    <rdf:RDF>
      <cc:Work
         rdf:about="">
        <dc:format>image/svg+xml</dc:format>
        <dc:type
           rdf:resource="http://purl.org/dc/dcmitype/StillImage" />
      </cc:Work>
    </rdf:RDF>
  </metadata>
  <g
     inkscape:label="レイヤー 1"
     inkscape:groupmode="layer"
     id="layer1"
     transform="translate(-181.86409,-582.0823)">
    <g
       transform="translate(547.99099,8e-5)"
       id="g1763" />
    <g
       id="g13346"
       style="stroke:#806000;stroke-width:0.264583;stroke-linecap:round;stroke-linejoin:round;stroke-miterlimit:4;stroke-dasharray:none;stroke-opacity:1"
       transform="translate(-129.12414,-148.84298)" />
    <path
       id="path2"
       style="fill:url(#radialGradient2);stroke:#806000;stroke-width:0.26458333;stroke-linecap:round;stroke-linejoin:round;stroke-dasharray:none;stroke-opacity:1"
       d="m 247.83438,582.29754 c 0,0 -10.88099,17.84188 -19.27614,21.76895 -8.39515,3.92709 -27.26051,0 -27.26051,0 0,0 3.47738,21.30506 0,30.78589 -3.47738,9.48082 -19.27615,21.76896 -19.27615,21.76896 0,0 15.79876,12.28814 19.27615,21.76896 3.47739,9.48082 0,30.78589 0,30.78589 0,0 18.86536,-3.92709 27.26051,0 8.39515,3.92708 19.27614,21.76896 19.27614,21.76896 0,0 10.88099,-17.84187 19.27615,-21.76896 8.39515,-3.9271 27.26051,0 27.26051,0 0,0 -3.47738,-21.30507 0,-30.78589 3.47741,-9.48082 19.27615,-21.76896 19.27615,-21.76896 0,0 -15.79875,-12.28814 -19.27615,-21.76896 -3.47737,-9.48083 0,-30.78589 0,-30.78589 0,0 -18.86536,3.9271 -27.26051,0 -8.39516,-3.92708 -19.27615,-21.76895 -19.27615,-21.76895 z"
       sodipodi:nodetypes="cscscscscscscscsc" />
  </g>
</svg>
