<?xml version="1.0" encoding="UTF-8" standalone="no"?>
<!-- Created with Inkscape (http://www.inkscape.org/) -->

<svg
   width="498.62103"
   height="563.23358"
   viewBox="0 0 131.9268 149.02223"
   version="1.1"
   id="svg8"
   inkscape:export-filename="C:\Users\厂永刄先生\Documents\VENCAQ1\新しいフォルダー\pièces II.png"
   inkscape:export-xdpi="96"
   inkscape:export-ydpi="96"
   inkscape:version="1.3 (0e150ed6c4, 2023-07-21)"
   sodipodi:docname="annulets.svg"
   xmlns:inkscape="http://www.inkscape.org/namespaces/inkscape"
   xmlns:sodipodi="http://sodipodi.sourceforge.net/DTD/sodipodi-0.dtd"
   xmlns:xlink="http://www.w3.org/1999/xlink"
   xmlns="http://www.w3.org/2000/svg"
   xmlns:svg="http://www.w3.org/2000/svg"
   xmlns:rdf="http://www.w3.org/1999/02/22-rdf-syntax-ns#"
   xmlns:cc="http://creativecommons.org/ns#"
   xmlns:dc="http://purl.org/dc/elements/1.1/">
  <defs
     id="defs2">
    <linearGradient
       id="linearGradient8"
       inkscape:collect="always">
      <stop
         style="stop-color:#cc0000;stop-opacity:1;"
         offset="0.74839681"
         id="stop6" />
      <stop
         style="stop-color:#ff0000;stop-opacity:1;"
         offset="0.88"
         id="stop7" />
      <stop
         style="stop-color:#cc0000;stop-opacity:1;"
         offset="1"
         id="stop8" />
    </linearGradient>
    <linearGradient
       id="linearGradient1"
       inkscape:collect="always">
      <stop
         style="stop-color:#ffffff;stop-opacity:1;"
         offset="0"
         id="stop1" />
      <stop
         style="stop-color:#d9d9d9;stop-opacity:1;"
         offset="1"
         id="stop2" />
    </linearGradient>
    <radialGradient
       inkscape:collect="always"
       xlink:href="#linearGradient1"
       id="radialGradient2"
       cx="247.82749"
       cy="656.5934"
       fx="247.82749"
       fy="656.5934"
       r="65.963406"
       gradientTransform="matrix(1,0,0,1.1295824,0,-85.08297)"
       gradientUnits="userSpaceOnUse" />
    <radialGradient
       inkscape:collect="always"
       xlink:href="#linearGradient8"
       id="radialGradient1"
       gradientUnits="userSpaceOnUse"
       cx="247.82749"
       cy="651.63025"
       fx="247.82749"
       fy="651.63025"
       r="56.714059"
       gradientTransform="matrix(0.46752089,0,0,0.46752089,100.98291,323.64601)" />
    <radialGradient
       inkscape:collect="always"
       xlink:href="#linearGradient8"
       id="radialGradient8"
       gradientUnits="userSpaceOnUse"
       gradientTransform="matrix(0.46752089,0,0,0.46752089,131.96295,377.11399)"
       cx="247.82749"
       cy="651.63025"
       fx="247.82749"
       fy="651.63025"
       r="56.714059" />
    <radialGradient
       inkscape:collect="always"
       xlink:href="#linearGradient8"
       id="radialGradient9"
       gradientUnits="userSpaceOnUse"
       gradientTransform="matrix(0.46752089,0,0,0.46752089,162.94301,323.64601)"
       cx="247.82749"
       cy="651.63025"
       fx="247.82749"
       fy="651.63025"
       r="56.714059" />
  </defs>
  <sodipodi:namedview
     id="base"
     pagecolor="#000000"
     bordercolor="#666666"
     borderopacity="1.0"
     inkscape:pageopacity="1"
     inkscape:pageshadow="2"
     inkscape:zoom="0.84221367"
     inkscape:cx="139.51329"
     inkscape:cy="298.61781"
     inkscape:document-units="px"
     inkscape:current-layer="layer1"
     showgrid="false"
     units="px"
     fit-margin-top="10"
     fit-margin-left="10"
     fit-margin-right="10"
     fit-margin-bottom="10"
     inkscape:window-width="1920"
     inkscape:window-height="1057"
     inkscape:window-x="-8"
     inkscape:window-y="-8"
     inkscape:window-maximized="1"
     showguides="true"
     inkscape:guide-bbox="true"
     inkscape:snap-intersection-paths="true"
     inkscape:snap-smooth-nodes="true"
     inkscape:pagecheckerboard="false"
     inkscape:showpageshadow="0"
     inkscape:deskcolor="#505050" />
  <metadata
     id="metadata5">
    <rdf:RDF>
      <cc:Work
         rdf:about="">
        <dc:format>image/svg+xml</dc:format>
        <dc:type
           rdf:resource="http://purl.org/dc/dcmitype/StillImage" />
      </cc:Work>
    </rdf:RDF>
  </metadata>
  <g
     inkscape:label="レイヤー 1"
     inkscape:groupmode="layer"
     id="layer1"
     transform="translate(-181.86409,-582.0823)">
    <path
       sodipodi:nodetypes="csscsscc"
       inkscape:connector-curvature="0"
       id="path1560"
       d="m 313.65861,582.21459 v 102.37908 c 0,15.99296 -10.79496,25.82029 -25.36019,30.96895 -11.74151,4.1505 -26.84817,6.14794 -40.47093,15.4096 -13.62276,-9.26166 -28.72941,-11.2591 -40.47093,-15.4096 -14.56526,-5.14866 -25.36018,-14.97599 -25.36018,-30.96895 V 582.21459 Z"
       style="fill:url(#radialGradient2);fill-opacity:1;stroke:#806000;stroke-width:0.264583;stroke-linecap:butt;stroke-linejoin:round;stroke-miterlimit:4;stroke-dasharray:none;stroke-opacity:1" />
    <g
       transform="translate(547.99099,8e-5)"
       id="g1763" />
    <g
       id="g13346"
       style="stroke:#806000;stroke-width:0.264583;stroke-linecap:round;stroke-linejoin:round;stroke-miterlimit:4;stroke-dasharray:none;stroke-opacity:1"
       transform="translate(-129.12414,-148.84298)" />
    <path
       id="path1"
       style="fill:url(#radialGradient1);stroke:none;stroke-width:0.113349;stroke-linecap:round;stroke-linejoin:round"
       d="m 190.38911,628.29677 c 0,14.61253 11.8458,26.45833 26.45833,26.45833 14.61253,0 26.45834,-11.8458 26.45834,-26.45833 0,-14.61254 -11.84581,-26.45834 -26.45834,-26.45834 -14.61253,0 -26.45833,11.8458 -26.45833,26.45834 z m 46.30208,0 c 0,10.95939 -8.88436,19.84375 -19.84375,19.84375 -10.9594,0 -19.84375,-8.88436 -19.84375,-19.84375 0,-10.9594 8.88435,-19.84375 19.84375,-19.84375 10.95939,0 19.84375,8.88435 19.84375,19.84375 z"
       sodipodi:nodetypes="ssszsssszs" />
    <path
       id="path8"
       style="fill:url(#radialGradient8);stroke:none;stroke-width:0.113349;stroke-linecap:round;stroke-linejoin:round"
       d="m 221.36915,681.76475 c 0,14.61253 11.8458,26.45833 26.45833,26.45833 14.61253,0 26.45834,-11.8458 26.45834,-26.45833 0,-14.61254 -11.84581,-26.45834 -26.45834,-26.45834 -14.61253,0 -26.45833,11.8458 -26.45833,26.45834 z m 46.30208,0 c 0,10.95939 -8.88436,19.84375 -19.84375,19.84375 -10.9594,0 -19.84375,-8.88436 -19.84375,-19.84375 0,-10.9594 8.88435,-19.84375 19.84375,-19.84375 10.95939,0 19.84375,8.88435 19.84375,19.84375 z"
       sodipodi:nodetypes="ssszsssszs" />
    <path
       id="path9"
       style="fill:url(#radialGradient9);stroke:none;stroke-width:0.113349;stroke-linecap:round;stroke-linejoin:round"
       d="m 252.34921,628.29677 c 0,14.61253 11.8458,26.45833 26.45833,26.45833 14.61253,0 26.45834,-11.8458 26.45834,-26.45833 0,-14.61254 -11.84581,-26.45834 -26.45834,-26.45834 -14.61253,0 -26.45833,11.8458 -26.45833,26.45834 z m 46.30208,0 c 0,10.95939 -8.88436,19.84375 -19.84375,19.84375 -10.9594,0 -19.84375,-8.88436 -19.84375,-19.84375 0,-10.9594 8.88435,-19.84375 19.84375,-19.84375 10.95939,0 19.84375,8.88435 19.84375,19.84375 z"
       sodipodi:nodetypes="ssszsssszs" />
  </g>
</svg>
