<?xml version="1.0" encoding="UTF-8" standalone="no"?>
<!-- Created with Inkscape (http://www.inkscape.org/) -->

<svg
   width="498.62103"
   height="563.23358"
   viewBox="0 0 131.9268 149.02223"
   version="1.1"
   id="svg8"
   inkscape:export-filename="C:\Users\厂永刄先生\Documents\VENCAQ1\新しいフォルダー\pièces II.png"
   inkscape:export-xdpi="96"
   inkscape:export-ydpi="96"
   inkscape:version="1.3 (0e150ed6c4, 2023-07-21)"
   sodipodi:docname="key.svg"
   xmlns:inkscape="http://www.inkscape.org/namespaces/inkscape"
   xmlns:sodipodi="http://sodipodi.sourceforge.net/DTD/sodipodi-0.dtd"
   xmlns:xlink="http://www.w3.org/1999/xlink"
   xmlns="http://www.w3.org/2000/svg"
   xmlns:svg="http://www.w3.org/2000/svg"
   xmlns:rdf="http://www.w3.org/1999/02/22-rdf-syntax-ns#"
   xmlns:cc="http://creativecommons.org/ns#"
   xmlns:dc="http://purl.org/dc/elements/1.1/">
  <defs
     id="defs2">
    <linearGradient
       id="linearGradient15"
       inkscape:collect="always">
      <stop
         style="stop-color:#ff0000;stop-opacity:1;"
         offset="0"
         id="stop15" />
      <stop
         style="stop-color:#cc0000;stop-opacity:1;"
         offset="1"
         id="stop16" />
    </linearGradient>
    <linearGradient
       id="linearGradient10"
       inkscape:collect="always">
      <stop
         style="stop-color:#e50000;stop-opacity:1;"
         offset="0"
         id="stop11" />
      <stop
         style="stop-color:#cc0000;stop-opacity:1;"
         offset="1"
         id="stop12" />
    </linearGradient>
    <linearGradient
       id="linearGradient8"
       inkscape:collect="always">
      <stop
         style="stop-color:#cc0000;stop-opacity:1;"
         offset="0"
         id="stop8" />
      <stop
         style="stop-color:#e50000;stop-opacity:1;"
         offset="0.50332224"
         id="stop10" />
      <stop
         style="stop-color:#cc0000;stop-opacity:1;"
         offset="1"
         id="stop9" />
    </linearGradient>
    <linearGradient
       id="linearGradient5"
       inkscape:collect="always">
      <stop
         style="stop-color:#ff0000;stop-opacity:1;"
         offset="0.2"
         id="stop6" />
      <stop
         style="stop-color:#e50000;stop-opacity:1;"
         offset="0.80000001"
         id="stop7" />
    </linearGradient>
    <linearGradient
       id="linearGradient1"
       inkscape:collect="always">
      <stop
         style="stop-color:#e50000;stop-opacity:1;"
         offset="0.66316253"
         id="stop1" />
      <stop
         style="stop-color:#ff0000;stop-opacity:1;"
         offset="0.82999998"
         id="stop5" />
      <stop
         style="stop-color:#e50000;stop-opacity:1;"
         offset="1"
         id="stop2" />
    </linearGradient>
    <linearGradient
       id="linearGradient3"
       inkscape:collect="always">
      <stop
         style="stop-color:#ffffff;stop-opacity:1;"
         offset="0"
         id="stop3" />
      <stop
         style="stop-color:#d9d9d9;stop-opacity:1;"
         offset="1"
         id="stop4" />
    </linearGradient>
    <radialGradient
       inkscape:collect="always"
       xlink:href="#linearGradient3"
       id="radialGradient4"
       cx="247.82749"
       cy="656.5934"
       fx="247.82749"
       fy="656.5934"
       r="65.963406"
       gradientTransform="matrix(1,0,0,1.1295824,0,-85.08297)"
       gradientUnits="userSpaceOnUse" />
    <radialGradient
       inkscape:collect="always"
       xlink:href="#linearGradient1"
       id="radialGradient2"
       cx="-465.53606"
       cy="525.68604"
       fx="-465.53606"
       fy="525.68604"
       r="23.931562"
       gradientUnits="userSpaceOnUse" />
    <linearGradient
       inkscape:collect="always"
       xlink:href="#linearGradient5"
       id="linearGradient7"
       x1="-439.40857"
       y1="529.65479"
       x2="-439.40857"
       y2="521.71729"
       gradientUnits="userSpaceOnUse" />
    <linearGradient
       inkscape:collect="always"
       xlink:href="#linearGradient8"
       id="linearGradient9"
       x1="-344.15857"
       y1="529.65479"
       x2="-341.51273"
       y2="529.65479"
       gradientUnits="userSpaceOnUse" />
    <linearGradient
       inkscape:collect="always"
       xlink:href="#linearGradient10"
       id="linearGradient12"
       x1="-357.38773"
       y1="529.65479"
       x2="-373.26273"
       y2="521.71729"
       gradientUnits="userSpaceOnUse" />
    <linearGradient
       inkscape:collect="always"
       xlink:href="#linearGradient10"
       id="linearGradient13"
       gradientUnits="userSpaceOnUse"
       x1="-357.38773"
       y1="529.65479"
       x2="-373.26273"
       y2="521.71729"
       gradientTransform="matrix(-1,0,0,1,-730.65047,0)" />
    <linearGradient
       inkscape:collect="always"
       xlink:href="#linearGradient8"
       id="linearGradient14"
       gradientUnits="userSpaceOnUse"
       x1="-344.15857"
       y1="529.65479"
       x2="-341.51273"
       y2="529.65479"
       gradientTransform="translate(-97.895831)" />
    <radialGradient
       inkscape:collect="always"
       xlink:href="#linearGradient15"
       id="radialGradient16"
       cx="-459.44128"
       cy="526.29108"
       fx="-459.44128"
       fy="526.29108"
       r="1.7065625"
       gradientUnits="userSpaceOnUse" />
    <radialGradient
       inkscape:collect="always"
       xlink:href="#linearGradient15"
       id="radialGradient17"
       gradientUnits="userSpaceOnUse"
       cx="-459.44128"
       cy="526.29108"
       fx="-459.44128"
       fy="526.29108"
       r="1.7065625"
       gradientTransform="translate(-5.48978,5.48978)" />
    <radialGradient
       inkscape:collect="always"
       xlink:href="#linearGradient15"
       id="radialGradient18"
       gradientUnits="userSpaceOnUse"
       gradientTransform="translate(-5.48978,-5.48978)"
       cx="-459.44128"
       cy="526.29108"
       fx="-459.44128"
       fy="526.29108"
       r="1.7065625" />
    <radialGradient
       inkscape:collect="always"
       xlink:href="#linearGradient15"
       id="radialGradient19"
       gradientUnits="userSpaceOnUse"
       gradientTransform="translate(-10.97956)"
       cx="-459.44128"
       cy="526.29108"
       fx="-459.44128"
       fy="526.29108"
       r="1.7065625" />
    <radialGradient
       inkscape:collect="always"
       xlink:href="#linearGradient15"
       id="radialGradient20"
       gradientUnits="userSpaceOnUse"
       gradientTransform="translate(-5.48978,24.87083)"
       cx="-459.44128"
       cy="526.29108"
       fx="-459.44128"
       fy="526.29108"
       r="1.7065625" />
    <radialGradient
       inkscape:collect="always"
       xlink:href="#linearGradient15"
       id="radialGradient21"
       gradientUnits="userSpaceOnUse"
       gradientTransform="translate(-5.48978,-24.87083)"
       cx="-459.44128"
       cy="526.29108"
       fx="-459.44128"
       fy="526.29108"
       r="1.7065625" />
    <radialGradient
       inkscape:collect="always"
       xlink:href="#linearGradient15"
       id="radialGradient22"
       gradientUnits="userSpaceOnUse"
       gradientTransform="translate(-30.36061)"
       cx="-459.44128"
       cy="526.29108"
       fx="-459.44128"
       fy="526.29108"
       r="1.7065625" />
  </defs>
  <sodipodi:namedview
     id="base"
     pagecolor="#000000"
     bordercolor="#666666"
     borderopacity="1.0"
     inkscape:pageopacity="1"
     inkscape:pageshadow="2"
     inkscape:zoom="1.6844273"
     inkscape:cx="240.4378"
     inkscape:cy="311.67863"
     inkscape:document-units="px"
     inkscape:current-layer="g2049"
     showgrid="false"
     units="px"
     fit-margin-top="10"
     fit-margin-left="10"
     fit-margin-right="10"
     fit-margin-bottom="10"
     inkscape:window-width="1920"
     inkscape:window-height="1009"
     inkscape:window-x="-8"
     inkscape:window-y="-8"
     inkscape:window-maximized="1"
     showguides="true"
     inkscape:guide-bbox="true"
     inkscape:snap-intersection-paths="true"
     inkscape:snap-smooth-nodes="true"
     inkscape:pagecheckerboard="false"
     inkscape:showpageshadow="0"
     inkscape:deskcolor="#505050" />
  <metadata
     id="metadata5">
    <rdf:RDF>
      <cc:Work
         rdf:about="">
        <dc:format>image/svg+xml</dc:format>
        <dc:type
           rdf:resource="http://purl.org/dc/dcmitype/StillImage" />
      </cc:Work>
    </rdf:RDF>
  </metadata>
  <g
     inkscape:label="レイヤー 1"
     inkscape:groupmode="layer"
     id="layer1"
     transform="translate(-181.86409,-582.0823)">
    <path
       sodipodi:nodetypes="csscsscc"
       inkscape:connector-curvature="0"
       id="path1560"
       d="m 313.65861,582.21459 v 102.37908 c 0,15.99296 -10.79496,25.82029 -25.36019,30.96895 -11.74151,4.1505 -26.84817,6.14794 -40.47093,15.4096 -13.62276,-9.26166 -28.72941,-11.2591 -40.47093,-15.4096 -14.56526,-5.14866 -25.36018,-14.97599 -25.36018,-30.96895 V 582.21459 Z"
       style="fill:url(#radialGradient4);fill-opacity:1;stroke:#806000;stroke-width:0.264583;stroke-linecap:butt;stroke-linejoin:round;stroke-miterlimit:4;stroke-dasharray:none;stroke-opacity:1" />
    <g
       transform="matrix(0,-0.87462698,-0.87462698,0,707.60669,290.04974)"
       style="stroke:#806000;stroke-width:0.238125;stroke-miterlimit:4;stroke-dasharray:none;stroke-opacity:1;fill:#ff0000"
       id="g2049">
      <path
         style="opacity:1;fill:url(#radialGradient20);fill-opacity:1;fill-rule:evenodd;stroke:#806000;stroke-width:0.238125;stroke-linecap:round;stroke-linejoin:round;stroke-miterlimit:4;stroke-dasharray:none;stroke-dashoffset:0;stroke-opacity:1"
         d="m -467.12356,550.55687 a 1.5874998,1.5874998 0 0 0 1.5875,1.5875 1.5874998,1.5874998 0 0 0 1.5875,-1.5875 1.5874998,1.5874998 0 0 0 -1.5875,-1.5875 1.5874998,1.5874998 0 0 0 -1.5875,1.5875 z"
         id="path19"
         inkscape:connector-curvature="0" />
      <path
         style="opacity:1;fill:url(#radialGradient21);fill-opacity:1;fill-rule:evenodd;stroke:#806000;stroke-width:0.238125;stroke-linecap:round;stroke-linejoin:round;stroke-miterlimit:4;stroke-dasharray:none;stroke-dashoffset:0;stroke-opacity:1"
         d="m -467.12356,500.81521 a 1.5874998,1.5874998 0 0 0 1.5875,1.5875 1.5874998,1.5874998 0 0 0 1.5875,-1.5875 1.5874998,1.5874998 0 0 0 -1.5875,-1.5875 1.5874998,1.5874998 0 0 0 -1.5875,1.5875 z"
         id="path20"
         inkscape:connector-curvature="0" />
      <path
         style="opacity:1;fill:url(#radialGradient22);fill-opacity:1;fill-rule:evenodd;stroke:#806000;stroke-width:0.238125;stroke-linecap:round;stroke-linejoin:round;stroke-miterlimit:4;stroke-dasharray:none;stroke-dashoffset:0;stroke-opacity:1"
         d="m -491.99439,525.68604 a 1.5874998,1.5874998 0 0 0 1.5875,1.5875 1.5874998,1.5874998 0 0 0 1.5875,-1.5875 1.5874998,1.5874998 0 0 0 -1.5875,-1.5875 1.5874998,1.5874998 0 0 0 -1.5875,1.5875 z"
         id="path21"
         inkscape:connector-curvature="0" />
      <path
         sodipodi:nodetypes="ccccccccccccccccccccccccccccc"
         inkscape:connector-curvature="0"
         id="path2021"
         d="m -357.38773,529.65478 v 5.29166 h 10.58333 v 5.29167 h -5.29167 v 5.29167 h 5.29167 v 5.29166 h -15.875 v -5.29166 h 5.29167 v -5.29167 h -5.29167 v -5.29167 h -5.29167 v 5.29167 h -5.29167 v 5.29167 h 5.29167 v 5.29166 h -15.875 v -5.29166 h 5.29167 v -5.29167 h -5.29167 v -5.29167 h 10.58333 v -5.29166 z"
         style="fill:#ff0000;fill-opacity:1;stroke:#806000;stroke-width:0.238125;stroke-linecap:butt;stroke-linejoin:miter;stroke-miterlimit:4;stroke-dasharray:none;stroke-opacity:1" />
      <path
         style="fill:url(#linearGradient7);fill-opacity:1;stroke:#806000;stroke-width:0.238125;stroke-linecap:butt;stroke-linejoin:miter;stroke-miterlimit:4;stroke-dasharray:none;stroke-opacity:1"
         d="m -344.15855,521.71728 v 7.9375 h -95.25001 v -7.9375 z"
         id="path2023"
         inkscape:connector-curvature="0"
         sodipodi:nodetypes="ccccc" />
      <path
         style="fill:url(#linearGradient9);fill-opacity:1;stroke:#806000;stroke-width:0.238125;stroke-linecap:butt;stroke-linejoin:miter;stroke-miterlimit:4;stroke-dasharray:none;stroke-opacity:1"
         d="m -341.51273,521.71728 c 0,-0.74742 -0.59614,-1.32284 -1.32292,-1.32284 -0.72678,0 -1.32292,0.57542 -1.32292,1.32284 v 7.9375 c 0,0.74742 0.59614,1.32284 1.32292,1.32284 0.72678,0 1.32292,-0.57542 1.32292,-1.32284 z"
         id="path2025"
         inkscape:connector-curvature="0"
         sodipodi:nodetypes="szsszss" />
      <path
         style="fill:url(#linearGradient13);fill-opacity:1;stroke:#806000;stroke-width:0.238125;stroke-linecap:butt;stroke-linejoin:miter;stroke-miterlimit:4;stroke-dasharray:none;stroke-opacity:1"
         d="m -383.84607,529.65477 26.45834,-7.93749 h 10.58333 l -26.45834,7.93749 z"
         id="path12"
         inkscape:connector-curvature="0"
         sodipodi:nodetypes="ccccc" />
      <path
         style="fill:url(#linearGradient12);fill-opacity:1;stroke:#806000;stroke-width:0.238125;stroke-linecap:butt;stroke-linejoin:miter;stroke-miterlimit:4;stroke-dasharray:none;stroke-opacity:1"
         d="m -346.8044,529.65477 -26.45834,-7.93749 h -10.58333 l 26.45834,7.93749 z"
         id="path2029"
         inkscape:connector-curvature="0"
         sodipodi:nodetypes="ccccc" />
      <path
         style="opacity:1;fill:url(#radialGradient2);fill-opacity:1;fill-rule:evenodd;stroke:#806000;stroke-width:0.238125;stroke-linecap:round;stroke-linejoin:round;stroke-miterlimit:4;stroke-dasharray:none;stroke-dashoffset:0;stroke-opacity:1"
         d="m -481.41106,525.68604 c 0,8.76752 7.10748,15.875 15.875,15.875 8.76752,0 15.875,-7.10748 15.875,-15.875 0,-8.76752 -7.10748,-15.875 -15.875,-15.875 -8.76752,0 -15.875,7.10748 -15.875,15.875 z m 39.6875,0 c 0,13.15128 -10.66122,23.8125 -23.8125,23.8125 -13.15128,0 -23.8125,-10.66122 -23.8125,-23.8125 0,-13.15128 10.66122,-23.8125 23.8125,-23.8125 13.15128,0 23.8125,10.66122 23.8125,23.8125 z"
         id="path2035"
         inkscape:connector-curvature="0"
         sodipodi:nodetypes="zzzzzzzzzz" />
      <path
         style="opacity:1;fill:#d40000;fill-opacity:1;fill-rule:evenodd;stroke:#806000;stroke-width:0.238125;stroke-linecap:round;stroke-linejoin:round;stroke-miterlimit:4;stroke-dasharray:none;stroke-dashoffset:0;stroke-opacity:1"
         d="m -472.08417,526.28103 c -3.28781,10e-6 -5.9531,2.6653 -5.95311,5.95311 -10e-6,3.28782 2.66529,5.95312 5.95311,5.95313 3.28783,10e-6 5.95314,-2.6653 5.95313,-5.95313 h 1.18996 c -10e-6,3.28783 2.6653,5.95314 5.95313,5.95313 3.28782,-10e-6 5.95312,-2.66531 5.95311,-5.95313 -1e-5,-3.28781 -2.6653,-5.9531 -5.95311,-5.95311 v -1.18998 c 3.28781,-10e-6 5.9531,-2.6653 5.95311,-5.95311 10e-6,-3.28782 -2.66529,-5.95312 -5.95311,-5.95313 -3.28783,-10e-6 -5.95314,2.6653 -5.95313,5.95313 h -1.18996 c 10e-6,-3.28783 -2.6653,-5.95314 -5.95313,-5.95313 -3.28782,10e-6 -5.95312,2.66531 -5.95311,5.95313 1e-5,3.28781 2.6653,5.9531 5.95311,5.95311 z m -6.54843,-7.14309 c -10e-6,-3.6166 2.93182,-6.54844 6.54843,-6.54845 3.61661,-10e-6 6.54846,2.40267 6.54811,6.01928 -3.5e-4,-3.61661 2.9315,-6.01929 6.54811,-6.01928 3.61661,1e-5 6.54844,2.93185 6.54843,6.54845 -10e-6,3.6166 -2.40267,6.54843 -6.01926,6.5481 3.61659,-3.3e-4 6.01925,2.9315 6.01926,6.5481 1e-5,3.6166 -2.93182,6.54844 -6.54843,6.54845 -3.61661,10e-6 -6.54846,-2.40267 -6.54811,-6.01928 3.5e-4,3.61661 -2.9315,6.01929 -6.54811,6.01928 -3.61661,-10e-6 -6.54844,-2.93185 -6.54843,-6.54845 1e-5,-3.6166 2.40267,-6.54843 6.01926,-6.5481 -3.61659,3.3e-4 -6.01925,-2.9315 -6.01926,-6.5481 z"
         id="path2037"
         inkscape:connector-curvature="0"
         sodipodi:nodetypes="cssccssccssccsscczzczzczzczzcz" />
      <path
         style="opacity:1;fill:url(#radialGradient19);fill-opacity:1;fill-rule:evenodd;stroke:#806000;stroke-width:0.238125;stroke-linecap:round;stroke-linejoin:round;stroke-miterlimit:4;stroke-dasharray:none;stroke-dashoffset:0;stroke-opacity:1"
         d="m -472.61334,525.68604 a 1.5874998,1.5874998 0 0 0 1.5875,1.5875 1.5874998,1.5874998 0 0 0 1.5875,-1.5875 1.5874998,1.5874998 0 0 0 -1.5875,-1.5875 1.5874998,1.5874998 0 0 0 -1.5875,1.5875 z"
         id="path18"
         inkscape:connector-curvature="0" />
      <path
         style="opacity:1;fill:url(#radialGradient16);fill-opacity:1;fill-rule:evenodd;stroke:#806000;stroke-width:0.238125;stroke-linecap:round;stroke-linejoin:round;stroke-miterlimit:4;stroke-dasharray:none;stroke-dashoffset:0;stroke-opacity:1"
         d="m -461.63378,525.68604 a 1.5874998,1.5874998 0 0 0 1.5875,1.5875 1.5874998,1.5874998 0 0 0 1.5875,-1.5875 1.5874998,1.5874998 0 0 0 -1.5875,-1.5875 1.5874998,1.5874998 0 0 0 -1.5875,1.5875 z"
         id="path2041"
         inkscape:connector-curvature="0" />
      <path
         style="opacity:1;fill:url(#radialGradient17);fill-opacity:1;fill-rule:evenodd;stroke:#806000;stroke-width:0.238125;stroke-linecap:round;stroke-linejoin:round;stroke-miterlimit:4;stroke-dasharray:none;stroke-dashoffset:0;stroke-opacity:1"
         d="m -467.12356,531.17582 a 1.5874998,1.5874998 0 0 0 1.5875,1.5875 1.5874998,1.5874998 0 0 0 1.5875,-1.5875 1.5874998,1.5874998 0 0 0 -1.5875,-1.5875 1.5874998,1.5874998 0 0 0 -1.5875,1.5875 z"
         id="path16"
         inkscape:connector-curvature="0" />
      <path
         style="opacity:1;fill:url(#radialGradient18);fill-opacity:1;fill-rule:evenodd;stroke:#806000;stroke-width:0.238125;stroke-linecap:round;stroke-linejoin:round;stroke-miterlimit:4;stroke-dasharray:none;stroke-dashoffset:0;stroke-opacity:1"
         d="m -467.12356,520.19626 a 1.5874998,1.5874998 0 0 0 1.5875,1.5875 1.5874998,1.5874998 0 0 0 1.5875,-1.5875 1.5874998,1.5874998 0 0 0 -1.5875,-1.5875 1.5874998,1.5874998 0 0 0 -1.5875,1.5875 z"
         id="path17"
         inkscape:connector-curvature="0" />
      <path
         style="fill:url(#linearGradient14);fill-opacity:1;stroke:#806000;stroke-width:0.238125;stroke-linecap:butt;stroke-linejoin:miter;stroke-miterlimit:4;stroke-dasharray:none;stroke-opacity:1"
         d="m -439.40856,521.71728 c 0,-0.74742 -0.59614,-1.32284 -1.32292,-1.32284 -0.72678,0 -1.32292,0.57542 -1.32292,1.32284 v 7.9375 c 0,0.74742 0.59614,1.32284 1.32292,1.32284 0.72678,0 1.32292,-0.57542 1.32292,-1.32284 z"
         id="path2025-2"
         inkscape:connector-curvature="0"
         sodipodi:nodetypes="szsszss" />
    </g>
    <g
       transform="translate(547.99099,8e-5)"
       id="g1763" />
    <g
       id="g13346"
       style="stroke:#806000;stroke-width:0.264583;stroke-linecap:round;stroke-linejoin:round;stroke-miterlimit:4;stroke-dasharray:none;stroke-opacity:1"
       transform="translate(-129.12414,-148.84298)" />
  </g>
</svg>
