<?xml version="1.0" encoding="UTF-8" standalone="no"?>
<!-- Created with Inkscape (http://www.inkscape.org/) -->

<svg
   width="498.62103"
   height="563.23358"
   viewBox="0 0 131.9268 149.02223"
   version="1.1"
   id="svg8"
   inkscape:export-filename="C:\Users\厂永刄先生\Documents\VENCAQ1\新しいフォルダー\pièces II.png"
   inkscape:export-xdpi="96"
   inkscape:export-ydpi="96"
   inkscape:version="1.3 (0e150ed6c4, 2023-07-21)"
   sodipodi:docname="billet - Copie.svg"
   xmlns:inkscape="http://www.inkscape.org/namespaces/inkscape"
   xmlns:sodipodi="http://sodipodi.sourceforge.net/DTD/sodipodi-0.dtd"
   xmlns:xlink="http://www.w3.org/1999/xlink"
   xmlns="http://www.w3.org/2000/svg"
   xmlns:svg="http://www.w3.org/2000/svg"
   xmlns:rdf="http://www.w3.org/1999/02/22-rdf-syntax-ns#"
   xmlns:cc="http://creativecommons.org/ns#"
   xmlns:dc="http://purl.org/dc/elements/1.1/">
  <defs
     id="defs2">
    <linearGradient
       id="linearGradient44"
       inkscape:collect="always">
      <stop
         style="stop-color:#a87e00;stop-opacity:0;"
         offset="0.15614618"
         id="stop45" />
      <stop
         style="stop-color:#a87e00;stop-opacity:1;"
         offset="0.4601329"
         id="stop44" />
    </linearGradient>
    <linearGradient
       id="linearGradient43"
       inkscape:collect="always">
      <stop
         style="stop-color:#ff0000;stop-opacity:1;"
         offset="0"
         id="stop42" />
      <stop
         style="stop-color:#ff1a1a;stop-opacity:1;"
         offset="1"
         id="stop43" />
    </linearGradient>
    <linearGradient
       id="linearGradient39"
       inkscape:collect="always">
      <stop
         style="stop-color:#ff0000;stop-opacity:0;"
         offset="0"
         id="stop39" />
      <stop
         style="stop-color:#e50000;stop-opacity:1;"
         offset="0.3654485"
         id="stop40" />
    </linearGradient>
    <linearGradient
       id="linearGradient36"
       inkscape:collect="always">
      <stop
         style="stop-color:#e50000;stop-opacity:1;"
         offset="0"
         id="stop36" />
      <stop
         style="stop-color:#ff0000;stop-opacity:1;"
         offset="0.40000001"
         id="stop38" />
      <stop
         style="stop-color:#fa0000;stop-opacity:1;"
         offset="0.60000002"
         id="stop46" />
      <stop
         style="stop-color:#e50000;stop-opacity:1;"
         offset="1"
         id="stop37" />
    </linearGradient>
    <linearGradient
       id="linearGradient3"
       inkscape:collect="always">
      <stop
         style="stop-color:#ffffff;stop-opacity:1;"
         offset="0"
         id="stop3" />
      <stop
         style="stop-color:#d9d9d9;stop-opacity:1;"
         offset="1"
         id="stop4" />
    </linearGradient>
    <radialGradient
       inkscape:collect="always"
       xlink:href="#linearGradient3"
       id="radialGradient4"
       cx="247.82749"
       cy="656.5934"
       fx="247.82749"
       fy="656.5934"
       r="65.963406"
       gradientTransform="matrix(1,0,0,1.1295824,0,-85.08297)"
       gradientUnits="userSpaceOnUse" />
    <linearGradient
       inkscape:collect="always"
       xlink:href="#linearGradient36"
       id="linearGradient37"
       x1="211.46803"
       y1="675.14711"
       x2="282.97679"
       y2="675.14711"
       gradientUnits="userSpaceOnUse" />
    <radialGradient
       inkscape:collect="always"
       xlink:href="#linearGradient43"
       id="radialGradient41"
       gradientUnits="userSpaceOnUse"
       gradientTransform="matrix(1.1459642,0,0,1.8627878,-36.085615,-598.9954)"
       cx="247.22241"
       cy="693.05353"
       fx="247.22241"
       fy="693.05353"
       r="57.231599" />
    <radialGradient
       inkscape:collect="always"
       xlink:href="#linearGradient39"
       id="radialGradient42"
       gradientUnits="userSpaceOnUse"
       gradientTransform="matrix(0.98251514,0,0,1.8627866,4.322653,-598.99465)"
       cx="247.2224"
       cy="693.05359"
       fx="247.2224"
       fy="693.05359"
       r="57.231599" />
    <radialGradient
       inkscape:collect="always"
       xlink:href="#linearGradient44"
       id="radialGradient45"
       cx="247.22241"
       cy="694.59436"
       fx="247.22241"
       fy="694.59436"
       r="56.356204"
       gradientTransform="matrix(0.99777667,6.6703517e-7,-9.9177321e-7,1.8917211,0.55033939,-621.96267)"
       gradientUnits="userSpaceOnUse" />
  </defs>
  <sodipodi:namedview
     id="base"
     pagecolor="#000000"
     bordercolor="#666666"
     borderopacity="1.0"
     inkscape:pageopacity="1"
     inkscape:pageshadow="2"
     inkscape:zoom="1.4142136"
     inkscape:cx="334.46151"
     inkscape:cy="308.29856"
     inkscape:document-units="px"
     inkscape:current-layer="g43"
     showgrid="false"
     units="px"
     fit-margin-top="10"
     fit-margin-left="10"
     fit-margin-right="10"
     fit-margin-bottom="10"
     inkscape:window-width="1920"
     inkscape:window-height="1009"
     inkscape:window-x="-8"
     inkscape:window-y="-8"
     inkscape:window-maximized="1"
     showguides="true"
     inkscape:guide-bbox="true"
     inkscape:snap-intersection-paths="true"
     inkscape:snap-smooth-nodes="true"
     inkscape:pagecheckerboard="false"
     inkscape:showpageshadow="0"
     inkscape:deskcolor="#505050" />
  <metadata
     id="metadata5">
    <rdf:RDF>
      <cc:Work
         rdf:about="">
        <dc:format>image/svg+xml</dc:format>
        <dc:type
           rdf:resource="http://purl.org/dc/dcmitype/StillImage" />
      </cc:Work>
    </rdf:RDF>
  </metadata>
  <g
     inkscape:label="レイヤー 1"
     inkscape:groupmode="layer"
     id="layer1"
     transform="translate(-181.86409,-582.0823)">
    <path
       sodipodi:nodetypes="csscsscc"
       inkscape:connector-curvature="0"
       id="path1560"
       d="m 313.65861,582.21459 v 102.37908 c 0,15.99296 -10.79496,25.82029 -25.36019,30.96895 -11.74151,4.1505 -26.84817,6.14794 -40.47093,15.4096 -13.62276,-9.26166 -28.72941,-11.2591 -40.47093,-15.4096 -14.56526,-5.14866 -25.36018,-14.97599 -25.36018,-30.96895 V 582.21459 Z"
       style="fill:url(#radialGradient4);fill-opacity:1;stroke:#a87f00;stroke-width:0.26458333;stroke-linecap:butt;stroke-linejoin:round;stroke-miterlimit:4;stroke-dasharray:none;stroke-opacity:1" />
    <g
       transform="translate(547.99099,8e-5)"
       id="g1763" />
    <g
       id="g13346"
       style="stroke:#806000;stroke-width:0.264583;stroke-linecap:round;stroke-linejoin:round;stroke-miterlimit:4;stroke-dasharray:none;stroke-opacity:1"
       transform="translate(-129.12414,-148.84298)" />
    <g
       id="g43"
       style="stroke:#a87e00;stroke-width:0.26458333;stroke-dasharray:none;stroke-opacity:1"
       transform="translate(0.605085,11.003106)">
      <path
         style="fill:url(#linearGradient37);stroke:#a87e00;stroke-width:0.26458333;stroke-linecap:round;stroke-linejoin:round;stroke-dasharray:none;stroke-opacity:1;paint-order:normal"
         d="m 218.54609,656.96422 c 0,0 -0.4757,20.54607 -6.5481,32.15749 -1.13424,2.16886 0.30263,4.31533 2.41952,4.20418 11.75546,-0.61721 21.86122,-1.30962 32.8049,-1.30962 10.94368,0 21.04944,0.69241 32.8049,1.30962 2.11689,0.11115 3.55376,-2.03532 2.41952,-4.20418 -6.0724,-11.61142 -6.5481,-32.15749 -6.5481,-32.15749"
         id="path3"
         sodipodi:nodetypes="csszssc" />
      <path
         id="path35"
         style="fill:url(#radialGradient41);fill-opacity:1;stroke:#a87e00;stroke-width:0.26458333;stroke-linecap:round;stroke-linejoin:round;stroke-dasharray:none;stroke-opacity:1;paint-order:normal"
         d="m 247.22241,697.30794 c 17.59924,0 8.55341,-33.33981 55.85932,-51.8604 1.41594,0 1.72806,-8.52295 0.36463,-8.52295 -1.36343,0 -2.70826,-8.03448 -1.09153,-8.46769 1.61673,-0.4332 -1.12313,-8.72323 -2.51944,-8.19309 -1.39631,0.53013 -5.08296,-6.53884 -3.88209,-7.70633 1.20088,-1.16749 -3.66781,-8.23303 -5.14419,-7.01994 -1.47638,1.21309 -7.11674,-4.7368 -6.27306,-6.15177 0.84368,-1.41497 -6.57408,-6.90263 -7.23947,-5.12426 -0.66539,1.77837 -8.38391,-1.98521 -8.01837,-3.96403 0.36554,-1.97881 -7.81964,-4.02316 -8.58961,-2.70114 -0.76996,1.32203 -8.51553,-0.27221 -8.93837,-1.36829 -0.42284,-1.09608 -8.6328,-1.09608 -9.05564,0 -0.42284,1.09608 -8.16841,2.69032 -8.93837,1.36829 -0.76997,-1.32202 -8.95515,0.72233 -8.58961,2.70114 0.36554,1.97882 -7.35298,5.7424 -8.01837,3.96403 -0.66539,-1.77837 -8.08315,3.70929 -7.23947,5.12426 0.84368,1.41497 -4.79668,7.36486 -6.27306,6.15177 -1.47638,-1.21309 -6.34507,5.85245 -5.14419,7.01994 1.20087,1.16749 -2.48578,8.23646 -3.88209,7.70633 -1.39631,-0.53014 -4.13617,7.75989 -2.51944,8.19309 1.61673,0.43321 0.2719,8.46769 -1.09153,8.46769 -1.36343,0 -1.05131,8.52295 0.36463,8.52295 47.30591,18.52059 38.26008,51.8604 55.85932,51.8604"
         sodipodi:nodetypes="cczzzzzzzzzzzzzzzzzzzzcc" />
      <path
         id="path36"
         style="fill:url(#radialGradient42);fill-opacity:1;stroke:url(#radialGradient45);stroke-width:0.26458333;stroke-linecap:round;stroke-linejoin:round;stroke-dasharray:none;stroke-opacity:1;paint-order:normal"
         d="m 244.57849,693.27108 c -8.20323,2.19805 -7.90447,-31.14354 -53.58003,-56.34649 1.24382,0 2.47217,-6.68666 1.45063,-8.18874 46.92535,36.11392 46.2625,63.41028 51.07107,62.94772 m -0.29531,-1.31559 c -4.5779,-8.48108 -17.35642,-47.97583 -48.61542,-70.10417 1.3984,0.53935 5.08296,-6.53884 3.88209,-7.70633 12.20577,11.31232 32.25433,38.02217 45.02864,76.48024 m 0.52917,-1.05834 c -11.71598,-41.1039 -28.61841,-67.34433 -40.41362,-82.44184 1.48273,1.21392 7.11674,-4.7368 6.27306,-6.15177 11.14743,18.19149 26.26104,47.48971 34.66973,88.06444 m 0.52917,-0.52917 c -6.55661,-39.11952 -18.26721,-69.44096 -27.95943,-92.65953 0.66539,1.77837 8.38931,-1.98502 8.01837,-3.96403 8.3873,29.36701 14.70652,56.84854 20.46829,96.62162 m 0.52917,-0.19449 c -3.51671,-35.84422 -7.20734,-65.5282 -12.40785,-99.12827 0.76996,1.32203 8.51553,-0.27221 8.93837,-1.36829 l 4.1046,100.49656 m 0.84644,0 4.1046,-100.49656 c 0.42284,1.09608 8.16841,2.69032 8.93837,1.36829 -5.20051,33.60007 -8.89114,63.28405 -12.40785,99.12827 m 0.52917,0.19449 c 5.76177,-39.77308 12.08099,-67.25461 20.46829,-96.62162 -0.37094,1.97901 7.35298,5.7424 8.01837,3.96403 -9.69222,23.21857 -21.40282,53.54001 -27.95943,92.65953 m 0.52917,0.52917 c 8.40869,-40.57473 23.5223,-69.87295 34.66973,-88.06444 -0.84368,1.41497 4.79033,7.36569 6.27306,6.15177 -11.79521,15.09751 -28.69764,41.33794 -40.41362,82.44184 m 0.52917,1.05834 c 12.77431,-38.45807 32.82287,-65.16792 45.02864,-76.48024 -1.20087,1.16749 2.48369,8.24568 3.88209,7.70633 -31.259,22.12834 -44.03752,61.62309 -48.61542,70.10417 m -0.29531,1.31559 c 4.80857,0.46256 4.14572,-26.8338 51.07107,-62.94772 -1.02154,1.50208 0.20681,8.18874 1.45063,8.18874 -45.67556,25.20295 -45.3768,58.54454 -53.58003,56.34649"
         sodipodi:nodetypes="cccccccccccccccccccccccccccccccccccccccc" />
    </g>
  </g>
</svg>
