<?xml version="1.0" encoding="UTF-8" standalone="no"?>
<!-- Created with Inkscape (http://www.inkscape.org/) -->

<svg
   width="498.62103"
   height="563.23358"
   viewBox="0 0 131.92681 149.02222"
   version="1.1"
   id="svg8"
   inkscape:export-filename="C:\Users\厂永刄先生\Documents\VENCAQ1\新しいフォルダー\pièces I.png"
   inkscape:export-xdpi="96"
   inkscape:export-ydpi="96"
   inkscape:version="1.3 (0e150ed6c4, 2023-07-21)"
   sodipodi:docname="bendlet.svg"
   xmlns:inkscape="http://www.inkscape.org/namespaces/inkscape"
   xmlns:sodipodi="http://sodipodi.sourceforge.net/DTD/sodipodi-0.dtd"
   xmlns="http://www.w3.org/2000/svg"
   xmlns:svg="http://www.w3.org/2000/svg"
   xmlns:rdf="http://www.w3.org/1999/02/22-rdf-syntax-ns#"
   xmlns:cc="http://creativecommons.org/ns#"
   xmlns:dc="http://purl.org/dc/elements/1.1/">
  <defs
     id="defs2" />
  <sodipodi:namedview
     id="base"
     pagecolor="#000000"
     bordercolor="#666666"
     borderopacity="1.0"
     inkscape:pageopacity="1"
     inkscape:pageshadow="2"
     inkscape:zoom="1.4142136"
     inkscape:cx="132.22897"
     inkscape:cy="413.30391"
     inkscape:document-units="px"
     inkscape:current-layer="g3002"
     showgrid="false"
     units="px"
     fit-margin-top="1"
     fit-margin-left="1"
     fit-margin-right="1"
     fit-margin-bottom="1"
     inkscape:window-width="1920"
     inkscape:window-height="1009"
     inkscape:window-x="-8"
     inkscape:window-y="-8"
     inkscape:window-maximized="1"
     showguides="false"
     inkscape:guide-bbox="true"
     inkscape:snap-intersection-paths="true"
     inkscape:snap-smooth-nodes="true"
     inkscape:pagecheckerboard="false"
     inkscape:snap-nodes="false"
     inkscape:showpageshadow="0"
     inkscape:deskcolor="#505050" />
  <metadata
     id="metadata5">
    <rdf:RDF>
      <cc:Work
         rdf:about="">
        <dc:format>image/svg+xml</dc:format>
        <dc:type
           rdf:resource="http://purl.org/dc/dcmitype/StillImage" />
      </cc:Work>
    </rdf:RDF>
  </metadata>
  <g
     inkscape:label="レイヤー 1"
     inkscape:groupmode="layer"
     id="layer1"
     transform="translate(-181.86395,-157.56699)">
    <g
       transform="translate(547.99099,8e-5)"
       id="g1763" />
    <g
       id="g3002"
       transform="translate(1.809733e-5,1.198731e-4)">
      <g
         id="path1"
         style="opacity:0.67" />
      <path
         id="path8"
         style="fill:#ff0000;fill-opacity:1;stroke:#806000;stroke-width:0.264583;stroke-linecap:butt;stroke-linejoin:round;stroke-miterlimit:4;stroke-dasharray:none;stroke-opacity:1"
         d="m 313.65847,236.02978 v 24.04866 c 0,1.10416 -0.0627,2.17202 -0.1633,3.21789 l -65.66782,-69.24021 -65.66782,69.24021 c -0.1006,-1.04587 -0.1633,-2.11373 -0.1633,-3.21789 v -24.04866 l 65.83112,-69.41282 z m -8.96896,45.42048 c -4.3445,4.18176 -10.00497,7.33935 -16.39125,9.59683 -0.13081,0.0463 -0.27402,0.0856 -0.40566,0.13126 l -40.06525,-42.24496 -40.06525,42.24496 c -0.13164,-0.0457 -0.27485,-0.085 -0.40566,-0.13126 -6.38628,-2.25748 -12.04675,-5.41507 -16.39125,-9.59683 l 56.86216,-59.95551 z m -37.08301,15.77733 -19.77915,-20.85557 -19.77915,20.85557 c 6.58535,2.12564 13.34494,4.85501 19.77915,9.22941 6.43421,-4.3744 13.1938,-7.10377 19.77915,-9.22941 z"
         sodipodi:nodetypes="cscccsccccscccscccccccc" />
      <path
         id="path9"
         style="fill:#ffffff;fill-opacity:1;stroke:#806000;stroke-width:0.264583;stroke-linecap:butt;stroke-linejoin:round;stroke-miterlimit:4;stroke-dasharray:none;stroke-opacity:1"
         d="m 182.15953,263.29633 c 0.71761,7.4607 3.92575,13.45681 8.80566,18.15393 l 56.86216,-59.95551 56.86216,59.95551 c 4.87991,-4.69712 8.08805,-10.69323 8.80566,-18.15393 l -65.66782,-69.24021 z m -0.1633,-105.59717 v 78.33062 l 65.83112,-69.41282 65.83112,69.41282 v -78.33062 z m 25.76587,133.47919 c 6.10345,2.11974 13.08403,3.72454 20.2861,6.04924 l 19.77915,-20.85557 19.77915,20.85557 c 7.20207,-2.3247 14.18265,-3.9295 20.2861,-6.04924 l -40.06525,-42.24496 z"
         sodipodi:nodetypes="cccccccccccccccccccc" />
    </g>
    <g
       id="g13346"
       style="stroke:#806000;stroke-width:0.264583;stroke-linecap:round;stroke-linejoin:round;stroke-miterlimit:4;stroke-dasharray:none;stroke-opacity:1"
       transform="translate(-129.12414,-148.84298)" />
  </g>
</svg>
