<?xml version="1.0" encoding="UTF-8" standalone="no"?>
<!-- Created with Inkscape (http://www.inkscape.org/) -->

<svg
   width="498.62103"
   height="563.23358"
   viewBox="0 0 131.92681 149.02222"
   version="1.1"
   id="svg8"
   inkscape:export-filename="C:\Users\厂永刄先生\Documents\VENCAQ1\新しいフォルダー\pièces I.png"
   inkscape:export-xdpi="96"
   inkscape:export-ydpi="96"
   inkscape:version="1.3 (0e150ed6c4, 2023-07-21)"
   sodipodi:docname="fessEngrailedBig.svg"
   xmlns:inkscape="http://www.inkscape.org/namespaces/inkscape"
   xmlns:sodipodi="http://sodipodi.sourceforge.net/DTD/sodipodi-0.dtd"
   xmlns="http://www.w3.org/2000/svg"
   xmlns:svg="http://www.w3.org/2000/svg"
   xmlns:rdf="http://www.w3.org/1999/02/22-rdf-syntax-ns#"
   xmlns:cc="http://creativecommons.org/ns#"
   xmlns:dc="http://purl.org/dc/elements/1.1/">
  <defs
     id="defs2" />
  <sodipodi:namedview
     id="base"
     pagecolor="#000000"
     bordercolor="#666666"
     borderopacity="1.0"
     inkscape:pageopacity="1"
     inkscape:pageshadow="2"
     inkscape:zoom="1.0818181"
     inkscape:cx="382.68911"
     inkscape:cy="273.15129"
     inkscape:document-units="px"
     inkscape:current-layer="g2979"
     showgrid="false"
     units="px"
     fit-margin-top="1"
     fit-margin-left="1"
     fit-margin-right="1"
     fit-margin-bottom="1"
     inkscape:window-width="1920"
     inkscape:window-height="1009"
     inkscape:window-x="-8"
     inkscape:window-y="-8"
     inkscape:window-maximized="1"
     showguides="false"
     inkscape:guide-bbox="true"
     inkscape:snap-intersection-paths="true"
     inkscape:snap-smooth-nodes="true"
     inkscape:pagecheckerboard="false"
     inkscape:snap-nodes="false"
     inkscape:showpageshadow="0"
     inkscape:deskcolor="#505050" />
  <metadata
     id="metadata5">
    <rdf:RDF>
      <cc:Work
         rdf:about="">
        <dc:format>image/svg+xml</dc:format>
        <dc:type
           rdf:resource="http://purl.org/dc/dcmitype/StillImage" />
      </cc:Work>
    </rdf:RDF>
  </metadata>
  <g
     inkscape:label="レイヤー 1"
     inkscape:groupmode="layer"
     id="layer1"
     transform="translate(-44.910127,-157.56696)">
    <g
       transform="translate(547.99099,8e-5)"
       id="g1763" />
    <g
       id="g2979">
      <path
         id="path7"
         style="fill:#ffffff;stroke-width:0.26458333;stroke-linecap:round;stroke-linejoin:round;stroke:#806000;stroke-opacity:1;stroke-dasharray:none"
         d="m 45.042431,249.42633 c 6e-6,-5.4797 7.368401,-9.92187 16.457777,-9.92187 9.089376,0 16.457773,4.44217 16.457777,9.92187 5e-6,-5.4797 7.368402,-9.92187 16.457777,-9.92187 9.089378,0 16.457778,4.44217 16.457778,9.92187 0,-5.4797 7.3684,-9.92187 16.45778,-9.92187 9.08937,0 16.45777,4.44217 16.45777,9.92187 0,-5.4797 7.3684,-9.92187 16.45778,-9.92187 9.08937,0 16.45776,4.44217 16.45777,9.92187 0,3.55067 10e-6,7.10133 10e-6,10.652 2e-5,15.99296 -10.79496,25.82029 -25.36018,30.96895 -11.74153,4.1505 -26.84818,6.14794 -40.47094,15.4096 -13.622761,-9.26166 -28.729411,-11.2591 -40.470931,-15.4096 -14.565259,-5.14866 -25.360198,-14.97599 -25.36018,-30.96895 z"
         sodipodi:nodetypes="sscscscsssscsss" />
      <path
         style="fill:#ffffff;fill-opacity:1;stroke:#806000;stroke-width:0.26458333;stroke-linecap:butt;stroke-linejoin:round;stroke-miterlimit:4;stroke-dasharray:none;stroke-opacity:1"
         d="M 176.70465,157.69925 H 45.042419 l 1.2e-5,47.09875 c 10e-7,5.4797 7.368401,9.92187 16.457777,9.92187 9.089376,0 16.457773,-4.44217 16.457777,-9.92187 5e-6,5.4797 7.368402,9.92187 16.457777,9.92187 9.089378,0 16.457778,-4.44217 16.457778,-9.92187 0,5.4797 7.3684,9.92187 16.45778,9.92187 9.08937,0 16.45777,-4.44217 16.45777,-9.92187 0,5.4797 7.3684,9.92187 16.45778,9.92187 9.08937,0 16.45777,-4.44217 16.45777,-9.92187 z"
         id="path8"
         inkscape:connector-curvature="0"
         sodipodi:nodetypes="ccsscscscssc" />
      <path
         id="path9"
         style="fill:#ff0000;stroke-width:0.26458333;stroke-linecap:round;stroke-linejoin:round;stroke:#806000;stroke-opacity:1;stroke-dasharray:none"
         d="m 45.042431,249.42633 c 6e-6,-5.4797 7.368401,-9.92187 16.457777,-9.92187 9.089376,0 16.457773,4.44217 16.457777,9.92187 5e-6,-5.4797 7.368402,-9.92187 16.457777,-9.92187 9.089378,0 16.457778,4.44217 16.457778,9.92187 0,-5.4797 7.3684,-9.92187 16.45778,-9.92187 9.08937,0 16.45777,4.44217 16.45777,9.92187 0,-5.4797 7.3684,-9.92187 16.45778,-9.92187 9.08937,0 16.45776,4.44217 16.45777,9.92187 V 204.798 c 0,5.4797 -7.3684,9.92187 -16.45777,9.92187 -9.08938,0 -16.45778,-4.44217 -16.45778,-9.92187 0,5.4797 -7.3684,9.92187 -16.45777,9.92187 -9.08938,0 -16.45778,-4.44217 -16.45778,-9.92187 0,5.4797 -7.3684,9.92187 -16.457778,9.92187 -9.089375,0 -16.457772,-4.44217 -16.457777,-9.92187 -4e-6,5.4797 -7.368401,9.92187 -16.457777,9.92187 -9.089376,0 -16.457776,-4.44217 -16.457777,-9.92187 z"
         sodipodi:nodetypes="cscscscsccscscscscc" />
    </g>
    <g
       id="g13346"
       style="stroke:#806000;stroke-width:0.264583;stroke-linecap:round;stroke-linejoin:round;stroke-miterlimit:4;stroke-dasharray:none;stroke-opacity:1"
       transform="translate(-129.12414,-148.84298)" />
  </g>
</svg>
