<?xml version="1.0" encoding="UTF-8" standalone="no"?>
<!-- Created with Inkscape (http://www.inkscape.org/) -->

<svg
   width="498.62103"
   height="563.23358"
   viewBox="0 0 131.92681 149.02222"
   version="1.1"
   id="svg8"
   inkscape:export-filename="C:\Users\厂永刄先生\Documents\VENCAQ1\新しいフォルダー\pièces I.png"
   inkscape:export-xdpi="96"
   inkscape:export-ydpi="96"
   inkscape:version="1.3 (0e150ed6c4, 2023-07-21)"
   sodipodi:docname="fessinvected.svg"
   xmlns:inkscape="http://www.inkscape.org/namespaces/inkscape"
   xmlns:sodipodi="http://sodipodi.sourceforge.net/DTD/sodipodi-0.dtd"
   xmlns="http://www.w3.org/2000/svg"
   xmlns:svg="http://www.w3.org/2000/svg"
   xmlns:rdf="http://www.w3.org/1999/02/22-rdf-syntax-ns#"
   xmlns:cc="http://creativecommons.org/ns#"
   xmlns:dc="http://purl.org/dc/elements/1.1/">
  <defs
     id="defs2" />
  <sodipodi:namedview
     id="base"
     pagecolor="#000000"
     bordercolor="#666666"
     borderopacity="1.0"
     inkscape:pageopacity="1"
     inkscape:pageshadow="2"
     inkscape:zoom="1.0818181"
     inkscape:cx="158.06724"
     inkscape:cy="287.01683"
     inkscape:document-units="px"
     inkscape:current-layer="g2979"
     showgrid="false"
     units="px"
     fit-margin-top="1"
     fit-margin-left="1"
     fit-margin-right="1"
     fit-margin-bottom="1"
     inkscape:window-width="1920"
     inkscape:window-height="1009"
     inkscape:window-x="-8"
     inkscape:window-y="-8"
     inkscape:window-maximized="1"
     showguides="false"
     inkscape:guide-bbox="true"
     inkscape:snap-intersection-paths="true"
     inkscape:snap-smooth-nodes="true"
     inkscape:pagecheckerboard="false"
     inkscape:snap-nodes="false"
     inkscape:showpageshadow="0"
     inkscape:deskcolor="#505050" />
  <metadata
     id="metadata5">
    <rdf:RDF>
      <cc:Work
         rdf:about="">
        <dc:format>image/svg+xml</dc:format>
        <dc:type
           rdf:resource="http://purl.org/dc/dcmitype/StillImage" />
      </cc:Work>
    </rdf:RDF>
  </metadata>
  <g
     inkscape:label="レイヤー 1"
     inkscape:groupmode="layer"
     id="layer1"
     transform="translate(-44.910127,-157.56696)">
    <g
       transform="translate(547.99099,8e-5)"
       id="g1763" />
    <g
       id="g2979">
      <path
         id="path7"
         style="fill:#ffffff;stroke:#806000;stroke-width:0.264583;stroke-linecap:round;stroke-linejoin:round;stroke-dasharray:none;stroke-opacity:1"
         d="m 176.70465,260.07833 c 3e-5,15.99296 -10.79496,25.82029 -25.36018,30.96895 -11.74153,4.1505 -26.84818,6.14794 -40.47094,15.4096 C 97.250769,297.19522 82.144119,295.19778 70.402599,291.04728 55.83734,285.89862 45.0424,276.07129 45.042419,260.07833 l 1.3e-5,-19.72737 c 1e-6,4.54469 3.684198,8.2289 8.228887,8.2289 4.544689,0 8.228888,-3.68421 8.228888,-8.2289 0,4.54469 3.684198,8.22889 8.228887,8.22889 4.544689,0 8.228888,-3.6842 8.228888,-8.22889 0,4.54469 3.684198,8.22889 8.228887,8.22889 4.544689,0 8.228892,-3.6842 8.228892,-8.22889 0,4.54469 3.68419,8.22889 8.228879,8.22889 4.54469,0 8.22889,-3.6842 8.22889,-8.22889 0,4.54469 3.6842,8.22889 8.22889,8.22889 4.54469,0 8.22889,-3.6842 8.22889,-8.22889 0,4.54469 3.6842,8.22889 8.22888,8.22889 4.54469,0 8.22889,-3.6842 8.22889,-8.22889 0,4.54469 3.6842,8.22889 8.22888,8.22889 4.54469,0 8.22889,-3.6842 8.22889,-8.22889 0,4.54469 3.6842,8.22889 8.22889,8.22889 4.54469,0 8.22889,-3.6842 8.22889,-8.22889 z"
         sodipodi:nodetypes="sscsscscscscscscscscscs" />
      <path
         style="fill:#ffffff;fill-opacity:1;stroke:#806000;stroke-width:0.264583;stroke-linecap:butt;stroke-linejoin:round;stroke-miterlimit:4;stroke-dasharray:none;stroke-opacity:1"
         d="M 176.70465,157.69925 H 45.042419 l 1.3e-5,56.17413 c 6e-6,-4.54469 3.684198,-8.2289 8.228887,-8.2289 4.544689,0 8.228888,3.68421 8.228888,8.2289 0,-4.54469 3.684198,-8.22889 8.228887,-8.22889 4.544689,0 8.228888,3.6842 8.228888,8.22889 0,-4.54469 3.684198,-8.22889 8.228887,-8.22889 4.544689,0 8.228892,3.6842 8.228892,8.22889 0,-4.54469 3.68419,-8.22889 8.228879,-8.22889 4.54469,0 8.22889,3.6842 8.22889,8.22889 0,-4.54469 3.6842,-8.22889 8.22889,-8.22889 4.54469,0 8.22889,3.6842 8.22889,8.22889 0,-4.54469 3.6842,-8.22889 8.22888,-8.22889 4.54469,0 8.22889,3.6842 8.22889,8.22889 0,-4.54469 3.6842,-8.22889 8.22888,-8.22889 4.54469,0 8.22889,3.6842 8.22889,8.22889 0,-4.54469 3.6842,-8.22889 8.22889,-8.22889 4.54469,0 8.22888,3.6842 8.22889,8.22889 z"
         id="path8"
         inkscape:connector-curvature="0"
         sodipodi:nodetypes="cccscscscscscscscscc" />
      <path
         style="fill:#ff0000;fill-opacity:1;stroke:#806000;stroke-width:0.264583;stroke-linecap:butt;stroke-linejoin:round;stroke-miterlimit:4;stroke-dasharray:none;stroke-opacity:1"
         d="m 176.70463,213.87338 c -1e-5,-4.54469 -3.6842,-8.22889 -8.22889,-8.22889 -4.54469,0 -8.22889,3.6842 -8.22889,8.22889 0,-4.54469 -3.6842,-8.22889 -8.22889,-8.22889 -4.54468,0 -8.22888,3.6842 -8.22888,8.22889 0,-4.54469 -3.6842,-8.22889 -8.22889,-8.22889 -4.54468,0 -8.22888,3.6842 -8.22888,8.22889 0,-4.54469 -3.6842,-8.22889 -8.22889,-8.22889 -4.54469,0 -8.22889,3.6842 -8.22889,8.22889 0,-4.54469 -3.6842,-8.22889 -8.22889,-8.22889 -4.544689,0 -8.228879,3.6842 -8.228879,8.22889 0,-4.54469 -3.684203,-8.22889 -8.228892,-8.22889 -4.544689,0 -8.228887,3.6842 -8.228887,8.22889 0,-4.54469 -3.684199,-8.22889 -8.228888,-8.22889 -4.544689,0 -8.228887,3.6842 -8.228887,8.22889 0,-4.54469 -3.684199,-8.2289 -8.228888,-8.2289 -4.544689,0 -8.228881,3.68421 -8.228887,8.2289 v 26.47758 c 1e-6,4.54469 3.684198,8.2289 8.228887,8.2289 4.544689,0 8.228888,-3.68421 8.228888,-8.2289 0,4.54469 3.684198,8.22889 8.228887,8.22889 4.544689,0 8.228888,-3.6842 8.228888,-8.22889 0,4.54469 3.684198,8.22889 8.228887,8.22889 4.544689,0 8.228892,-3.6842 8.228892,-8.22889 0,4.54469 3.68419,8.22889 8.228879,8.22889 4.54469,0 8.22889,-3.6842 8.22889,-8.22889 0,4.54469 3.6842,8.22889 8.22889,8.22889 4.54469,0 8.22889,-3.6842 8.22889,-8.22889 0,4.54469 3.6842,8.22889 8.22888,8.22889 4.54469,0 8.22889,-3.6842 8.22889,-8.22889 0,4.54469 3.6842,8.22889 8.22888,8.22889 4.54469,0 8.22889,-3.6842 8.22889,-8.22889 0,4.54469 3.6842,8.22889 8.22889,8.22889 4.54469,0 8.22889,-3.6842 8.22889,-8.22889 z"
         id="path3"
         inkscape:connector-curvature="0"
         sodipodi:nodetypes="cscscscscscscscsccscscscscscscscscc" />
    </g>
    <g
       id="g13346"
       style="stroke:#806000;stroke-width:0.264583;stroke-linecap:round;stroke-linejoin:round;stroke-miterlimit:4;stroke-dasharray:none;stroke-opacity:1"
       transform="translate(-129.12414,-148.84298)" />
  </g>
</svg>
