<?xml version="1.0" encoding="UTF-8" standalone="no"?>
<!-- Created with Inkscape (http://www.inkscape.org/) -->

<svg
   width="498.62103"
   height="563.23358"
   viewBox="0 0 131.92681 149.02222"
   version="1.1"
   id="svg8"
   inkscape:export-filename="C:\Users\厂永刄先生\Documents\VENCAQ1\新しいフォルダー\pièces I.png"
   inkscape:export-xdpi="96"
   inkscape:export-ydpi="96"
   inkscape:version="1.3 (0e150ed6c4, 2023-07-21)"
   sodipodi:docname="fesswavydeep.svg"
   xmlns:inkscape="http://www.inkscape.org/namespaces/inkscape"
   xmlns:sodipodi="http://sodipodi.sourceforge.net/DTD/sodipodi-0.dtd"
   xmlns="http://www.w3.org/2000/svg"
   xmlns:svg="http://www.w3.org/2000/svg"
   xmlns:rdf="http://www.w3.org/1999/02/22-rdf-syntax-ns#"
   xmlns:cc="http://creativecommons.org/ns#"
   xmlns:dc="http://purl.org/dc/elements/1.1/">
  <defs
     id="defs2" />
  <sodipodi:namedview
     id="base"
     pagecolor="#000000"
     bordercolor="#666666"
     borderopacity="1.0"
     inkscape:pageopacity="1"
     inkscape:pageshadow="2"
     inkscape:zoom="1.0818181"
     inkscape:cx="72.100846"
     inkscape:cy="322.14288"
     inkscape:document-units="px"
     inkscape:current-layer="g2979"
     showgrid="false"
     units="px"
     fit-margin-top="1"
     fit-margin-left="1"
     fit-margin-right="1"
     fit-margin-bottom="1"
     inkscape:window-width="1920"
     inkscape:window-height="1009"
     inkscape:window-x="-8"
     inkscape:window-y="-8"
     inkscape:window-maximized="1"
     showguides="false"
     inkscape:guide-bbox="true"
     inkscape:snap-intersection-paths="true"
     inkscape:snap-smooth-nodes="true"
     inkscape:pagecheckerboard="false"
     inkscape:snap-nodes="false"
     inkscape:showpageshadow="0"
     inkscape:deskcolor="#505050" />
  <metadata
     id="metadata5">
    <rdf:RDF>
      <cc:Work
         rdf:about="">
        <dc:format>image/svg+xml</dc:format>
        <dc:type
           rdf:resource="http://purl.org/dc/dcmitype/StillImage" />
      </cc:Work>
    </rdf:RDF>
  </metadata>
  <g
     inkscape:label="レイヤー 1"
     inkscape:groupmode="layer"
     id="layer1"
     transform="translate(-44.910127,-157.56696)">
    <g
       transform="translate(547.99099,8e-5)"
       id="g1763" />
    <g
       id="g2979">
      <path
         style="fill:#ffffff;fill-opacity:1;stroke:#806000;stroke-width:0.264583;stroke-linecap:butt;stroke-linejoin:round;stroke-miterlimit:4;stroke-dasharray:none;stroke-opacity:1"
         d="M 176.70465,157.69925 H 45.042419 l 3e-6,67.93468 c 7.52424,0 14.41947,-26.45833 21.94371,-26.45833 7.52424,0 14.41946,26.45833 21.9437,26.45833 7.52424,0 14.419458,-26.45833 21.943698,-26.45833 7.52424,0 14.41946,26.45833 21.9437,26.45833 7.52424,0 14.41947,-26.45833 21.94372,-26.45833 7.52424,0 14.41946,26.45833 21.9437,26.45833 z"
         id="path1768"
         inkscape:connector-curvature="0"
         sodipodi:nodetypes="ccczzzzzcc" />
      <path
         style="fill:#ffffff;fill-opacity:1;stroke:#806000;stroke-width:0.264583;stroke-linecap:butt;stroke-linejoin:round;stroke-miterlimit:4;stroke-dasharray:none;stroke-opacity:1"
         d="m 45.042419,260.07833 c -1e-5,15.99296 10.794921,25.82029 25.36018,30.96895 11.74152,4.1505 26.84817,6.14794 40.470931,15.4096 13.62276,-9.26166 28.72941,-11.2591 40.47094,-15.4096 14.56522,-5.14866 25.36018,-14.97599 25.36018,-30.96895 v -5.02961 c -7.52424,0 -14.41946,-26.45833 -21.9437,-26.45833 -7.52425,0 -14.41948,26.45833 -21.94372,26.45833 -7.52424,0 -14.41946,-26.45833 -21.9437,-26.45833 -7.52424,0 -14.419458,26.45833 -21.943698,26.45833 -7.52424,0 -14.41946,-26.45833 -21.9437,-26.45833 -7.52424,0 -14.41947,26.45833 -21.94371,26.45833 z"
         id="path1"
         inkscape:connector-curvature="0"
         sodipodi:nodetypes="sscssczzzzzcs" />
      <path
         style="fill:#ff0000;fill-opacity:1;stroke:#806000;stroke-width:0.264583;stroke-linecap:butt;stroke-linejoin:round;stroke-miterlimit:4;stroke-dasharray:none;stroke-opacity:1"
         d="m 176.70465,255.04872 c -7.52424,0 -14.41946,-26.45833 -21.9437,-26.45833 -7.52425,0 -14.41948,26.45833 -21.94372,26.45833 -7.52424,0 -14.41946,-26.45833 -21.9437,-26.45833 -7.52424,0 -14.419458,26.45833 -21.943698,26.45833 -7.52424,0 -14.41946,-26.45833 -21.9437,-26.45833 -7.52424,0 -14.41947,26.45833 -21.94371,26.45833 v -29.41479 c 7.52424,0 14.41947,-26.45833 21.94371,-26.45833 7.52424,0 14.41946,26.45833 21.9437,26.45833 7.52424,0 14.419458,-26.45833 21.943698,-26.45833 7.52424,0 14.41946,26.45833 21.9437,26.45833 7.52424,0 14.41947,-26.45833 21.94372,-26.45833 7.52424,0 14.41946,26.45833 21.9437,26.45833 z"
         id="path5"
         inkscape:connector-curvature="0"
         sodipodi:nodetypes="czzzzzcczzzzzcc" />
    </g>
    <g
       id="g13346"
       style="stroke:#806000;stroke-width:0.264583;stroke-linecap:round;stroke-linejoin:round;stroke-miterlimit:4;stroke-dasharray:none;stroke-opacity:1"
       transform="translate(-129.12414,-148.84298)" />
  </g>
</svg>
