<?xml version="1.0" encoding="UTF-8" standalone="no"?>
<!-- Created with Inkscape (http://www.inkscape.org/) -->

<svg
   width="498.62103"
   height="563.23358"
   viewBox="0 0 131.92681 149.02222"
   version="1.1"
   id="svg8"
   inkscape:export-filename="C:\Users\厂永刄先生\Documents\VENCAQ1\新しいフォルダー\pièces I.png"
   inkscape:export-xdpi="96"
   inkscape:export-ydpi="96"
   inkscape:version="1.3 (0e150ed6c4, 2023-07-21)"
   sodipodi:docname="fessembattled - Copie.svg"
   xmlns:inkscape="http://www.inkscape.org/namespaces/inkscape"
   xmlns:sodipodi="http://sodipodi.sourceforge.net/DTD/sodipodi-0.dtd"
   xmlns="http://www.w3.org/2000/svg"
   xmlns:svg="http://www.w3.org/2000/svg"
   xmlns:rdf="http://www.w3.org/1999/02/22-rdf-syntax-ns#"
   xmlns:cc="http://creativecommons.org/ns#"
   xmlns:dc="http://purl.org/dc/elements/1.1/">
  <defs
     id="defs2" />
  <sodipodi:namedview
     id="base"
     pagecolor="#000000"
     bordercolor="#666666"
     borderopacity="1.0"
     inkscape:pageopacity="1"
     inkscape:pageshadow="2"
     inkscape:zoom="1.0818181"
     inkscape:cx="256.05044"
     inkscape:cy="316.59667"
     inkscape:document-units="px"
     inkscape:current-layer="g2979"
     showgrid="false"
     units="px"
     fit-margin-top="1"
     fit-margin-left="1"
     fit-margin-right="1"
     fit-margin-bottom="1"
     inkscape:window-width="1920"
     inkscape:window-height="1009"
     inkscape:window-x="-8"
     inkscape:window-y="-8"
     inkscape:window-maximized="1"
     showguides="false"
     inkscape:guide-bbox="true"
     inkscape:snap-intersection-paths="true"
     inkscape:snap-smooth-nodes="true"
     inkscape:pagecheckerboard="false"
     inkscape:snap-nodes="false"
     inkscape:showpageshadow="0"
     inkscape:deskcolor="#505050" />
  <metadata
     id="metadata5">
    <rdf:RDF>
      <cc:Work
         rdf:about="">
        <dc:format>image/svg+xml</dc:format>
        <dc:type
           rdf:resource="http://purl.org/dc/dcmitype/StillImage" />
      </cc:Work>
    </rdf:RDF>
  </metadata>
  <g
     inkscape:label="レイヤー 1"
     inkscape:groupmode="layer"
     id="layer1"
     transform="translate(-44.910127,-157.56696)">
    <g
       transform="translate(547.99099,8e-5)"
       id="g1763" />
    <g
       id="g2979">
      <path
         style="fill:#ffffff;fill-opacity:1;stroke:none;stroke-width:0.264583;stroke-linecap:butt;stroke-linejoin:round;stroke-miterlimit:4;stroke-dasharray:none;stroke-opacity:1"
         d="m 45.042419,157.69925 v 102.37908 c 0,15.99296 10.794921,25.82029 25.36018,30.96895 11.74152,4.1505 26.84817,6.14794 40.470931,15.4096 13.62276,-9.26166 28.72941,-11.2591 40.47094,-15.4096 14.56522,-5.14866 25.36018,-14.97599 25.36018,-30.96895 V 157.69925 Z"
         id="path1768"
         inkscape:connector-curvature="0"
         sodipodi:nodetypes="csscsscc" />
      <path
         id="path11"
         style="fill:#ff0000;fill-opacity:1;stroke:#806000;stroke-width:0.26458333;stroke-linecap:butt;stroke-linejoin:round;stroke-miterlimit:4;stroke-dasharray:none;stroke-opacity:1"
         d="m 176.70464,218.35672 -1.69021,-1.69021 v -5.13898 l -3.63363,3.63365 h -2.39039 v -2.39008 l 6.02402,-6.02435 v -2.39007 h -2.3904 l -3.63362,3.63362 v -5.13896 l -1.69021,-1.69021 -1.69021,1.69021 v 5.13896 l -3.63363,-3.63362 h -2.3904 v 2.39007 l 6.02403,6.02435 v 2.39008 h -2.3904 l -3.63363,-3.63365 v 5.13898 l -1.69021,1.69021 -1.69021,-1.69021 v -5.13898 l -3.63363,3.63365 h -2.39039 v -2.39008 l 6.02402,-6.02435 v -2.39007 h -2.39039 l -3.63363,3.63362 v -5.13896 l -1.69021,-1.69021 -1.69021,1.69021 v 5.13896 l -3.63363,-3.63362 h -2.3904 v 2.39007 l 6.02403,6.02435 v 2.39008 h -2.3904 l -3.63363,-3.63365 v 5.13898 l -1.69021,1.69021 -1.69021,-1.69021 v -5.13898 l -3.63362,3.63365 h -2.3904 v -2.39008 l 6.02402,-6.02435 v -2.39007 h -2.39039 l -3.63363,3.63362 v -5.13896 l -1.69021,-1.69021 -1.69021,1.69021 v 5.13896 l -3.63363,-3.63362 h -2.39039 v 2.39007 l 6.02402,6.02435 v 2.39008 h -2.3904 l -3.63362,-3.63365 v 5.13898 l -1.69021,1.69021 -1.69021,-1.69021 v -5.13898 l -3.63363,3.63365 h -2.3904 v -2.39008 l 6.02403,-6.02435 v -2.39007 h -2.3904 l -3.63363,3.63362 v -5.13896 l -1.69021,-1.69021 -1.69021,1.69021 v 5.13896 l -3.63363,-3.63362 h -2.39039 v 2.39007 l 6.02402,6.02435 v 2.39008 h -2.39039 l -3.63363,-3.63365 v 5.13898 l -1.69021,1.69021 -1.690212,-1.69021 v -5.13898 l -3.633628,3.63365 h -2.390396 v -2.39008 l 6.024024,-6.02435 v -2.39007 h -2.390395 l -3.633629,3.63362 v -5.13896 l -1.69021,-1.69021 -1.69021,1.69021 v 5.13896 l -3.633628,-3.63362 H 84.35041 v 2.39007 l 6.024024,6.02435 v 2.39008 h -2.390396 l -3.633628,-3.63365 v 5.13898 l -1.69021,1.69021 -1.69021,-1.69021 v -5.13898 l -3.633628,3.63365 h -2.390396 v -2.39008 l 6.024024,-6.02435 v -2.39007 h -2.390396 l -3.633628,3.63362 v -5.13896 l -1.69021,-1.69021 -1.69021,1.69021 v 5.13896 l -3.633629,-3.63362 h -2.390398 v 2.39007 l 6.024027,6.02435 v 2.39008 H 69.17515 l -3.633631,-3.63365 v 5.13898 l -1.6902,1.69021 -1.69021,-1.69021 v -5.13898 l -3.63364,3.63365 h -2.3904 v -2.39008 l 6.02404,-6.02435 v -2.39007 h -2.3904 l -3.63364,3.63362 v -5.13896 l -1.6902,-1.69021 -1.69021,1.69021 v 5.13896 l -3.63363,-3.63362 h -2.3904 v 2.39007 l 6.02403,6.02435 v 2.39008 h -2.3904 l -3.63363,-3.63365 v 5.13898 l -1.69021,1.69021 v 17.51088 l 1.69021,1.69021 v 5.13898 l 3.63363,-3.63365 h 2.3904 v 2.39008 l -6.02403,6.02435 v 2.39007 h 2.3904 l 3.63363,-3.63362 v 5.13896 l 1.69021,1.69021 1.6902,-1.69021 v -5.13896 l 3.63364,3.63362 h 2.3904 v -2.39007 l -6.02404,-6.02435 v -2.39008 h 2.3904 l 3.63364,3.63365 v -5.13898 l 1.69021,-1.69021 1.6902,1.69021 v 5.13898 l 3.633631,-3.63365 h 2.390396 v 2.39008 l -6.024027,6.02435 v 2.39007 h 2.390398 l 3.633629,-3.63362 v 5.13896 l 1.69021,1.69021 1.69021,-1.69021 v -5.13896 l 3.633628,3.63362 h 2.390396 v -2.39007 l -6.024024,-6.02435 v -2.39008 h 2.390396 l 3.633628,3.63365 v -5.13898 l 1.69021,-1.69021 1.69021,1.69021 v 5.13898 l 3.633628,-3.63365 h 2.390396 v 2.39008 l -6.024024,6.02435 v 2.39007 h 2.390396 l 3.633628,-3.63362 v 5.13896 l 1.69021,1.69021 1.69021,-1.69021 v -5.13896 l 3.633629,3.63362 h 2.390395 v -2.39007 l -6.024024,-6.02435 v -2.39008 h 2.390396 l 3.633628,3.63365 v -5.13898 l 1.690212,-1.69021 1.69021,1.69021 v 5.13898 l 3.63363,-3.63365 h 2.39039 v 2.39008 l -6.02402,6.02435 v 2.39007 h 2.39039 l 3.63363,-3.63362 v 5.13896 l 1.69021,1.69021 1.69021,-1.69021 v -5.13896 l 3.63363,3.63362 h 2.3904 v -2.39007 l -6.02403,-6.02435 v -2.39008 h 2.3904 l 3.63363,3.63365 v -5.13898 l 1.69021,-1.69021 1.69021,1.69021 v 5.13898 l 3.63362,-3.63365 h 2.3904 v 2.39008 l -6.02402,6.02435 v 2.39007 h 2.39039 l 3.63363,-3.63362 v 5.13896 l 1.69021,1.69021 1.69021,-1.69021 v -5.13896 l 3.63363,3.63362 h 2.39039 v -2.39007 l -6.02402,-6.02435 v -2.39008 h 2.3904 l 3.63362,3.63365 v -5.13898 l 1.69021,-1.69021 1.69021,1.69021 v 5.13898 l 3.63363,-3.63365 h 2.3904 v 2.39008 l -6.02403,6.02435 v 2.39007 h 2.3904 l 3.63363,-3.63362 v 5.13896 l 1.69021,1.69021 1.69021,-1.69021 v -5.13896 l 3.63363,3.63362 h 2.39039 v -2.39007 l -6.02402,-6.02435 v -2.39008 h 2.39039 l 3.63363,3.63365 v -5.13898 l 1.69021,-1.69021 1.69021,1.69021 v 5.13898 l 3.63363,-3.63365 h 2.3904 v 2.39008 l -6.02403,6.02435 v 2.39007 h 2.3904 l 3.63363,-3.63362 v 5.13896 l 1.69021,1.69021 1.69021,-1.69021 v -5.13896 l 3.63362,3.63362 h 2.3904 v -2.39007 l -6.02402,-6.02435 v -2.39008 h 2.39039 l 3.63363,3.63365 v -5.13898 l 1.69021,-1.69021 z"
         sodipodi:nodetypes="ccccccccccccccccccccccccccccccccccccccccccccccccccccccccccccccccccccccccccccccccccccccccccccccccccccccccccccccccccccccccccccccccccccccccccccccccccccccccccccccccccccccccccccccccccccccccccccccccccccccccccccccccccccccccccccccccccccccccccccccccccccccccccccccccccccccccccccccccccccccccccccccccccccccccccccccccccccccc" />
    </g>
    <g
       id="g13346"
       style="stroke:#806000;stroke-width:0.264583;stroke-linecap:round;stroke-linejoin:round;stroke-miterlimit:4;stroke-dasharray:none;stroke-opacity:1"
       transform="translate(-129.12414,-148.84298)" />
  </g>
</svg>
