<?xml version="1.0" encoding="UTF-8" standalone="no"?>
<!-- Created with Inkscape (http://www.inkscape.org/) -->

<svg
   width="498.62103"
   height="563.23358"
   viewBox="0 0 131.92681 149.02222"
   version="1.1"
   id="svg8"
   inkscape:export-filename="C:\Users\厂永刄先生\Documents\VENCAQ1\新しいフォルダー\pièces I.png"
   inkscape:export-xdpi="96"
   inkscape:export-ydpi="96"
   inkscape:version="1.3 (0e150ed6c4, 2023-07-21)"
   sodipodi:docname="fessembattled.svg"
   xmlns:inkscape="http://www.inkscape.org/namespaces/inkscape"
   xmlns:sodipodi="http://sodipodi.sourceforge.net/DTD/sodipodi-0.dtd"
   xmlns="http://www.w3.org/2000/svg"
   xmlns:svg="http://www.w3.org/2000/svg"
   xmlns:rdf="http://www.w3.org/1999/02/22-rdf-syntax-ns#"
   xmlns:cc="http://creativecommons.org/ns#"
   xmlns:dc="http://purl.org/dc/elements/1.1/">
  <defs
     id="defs2" />
  <sodipodi:namedview
     id="base"
     pagecolor="#000000"
     bordercolor="#666666"
     borderopacity="1.0"
     inkscape:pageopacity="1"
     inkscape:pageshadow="2"
     inkscape:zoom="2.1636362"
     inkscape:cx="265.29414"
     inkscape:cy="365.81936"
     inkscape:document-units="px"
     inkscape:current-layer="g2979"
     showgrid="false"
     units="px"
     fit-margin-top="1"
     fit-margin-left="1"
     fit-margin-right="1"
     fit-margin-bottom="1"
     inkscape:window-width="1920"
     inkscape:window-height="1009"
     inkscape:window-x="-8"
     inkscape:window-y="-8"
     inkscape:window-maximized="1"
     showguides="false"
     inkscape:guide-bbox="true"
     inkscape:snap-intersection-paths="true"
     inkscape:snap-smooth-nodes="true"
     inkscape:pagecheckerboard="false"
     inkscape:snap-nodes="false"
     inkscape:showpageshadow="0"
     inkscape:deskcolor="#505050" />
  <metadata
     id="metadata5">
    <rdf:RDF>
      <cc:Work
         rdf:about="">
        <dc:format>image/svg+xml</dc:format>
        <dc:type
           rdf:resource="http://purl.org/dc/dcmitype/StillImage" />
      </cc:Work>
    </rdf:RDF>
  </metadata>
  <g
     inkscape:label="レイヤー 1"
     inkscape:groupmode="layer"
     id="layer1"
     transform="translate(-44.910127,-157.56696)">
    <g
       transform="translate(547.99099,8e-5)"
       id="g1763" />
    <g
       id="g2979">
      <path
         style="fill:#ffffff;fill-opacity:1;stroke:#806000;stroke-width:0.264583;stroke-linecap:butt;stroke-linejoin:round;stroke-miterlimit:4;stroke-dasharray:none;stroke-opacity:1"
         d="m 45.042419,157.69925 v 102.37908 c 0,15.99296 10.794921,25.82029 25.36018,30.96895 11.74152,4.1505 26.84817,6.14794 40.470931,15.4096 13.62276,-9.26166 28.72941,-11.2591 40.47094,-15.4096 14.56522,-5.14866 25.36018,-14.97599 25.36018,-30.96895 V 157.69925 Z"
         id="path1768"
         inkscape:connector-curvature="0"
         sodipodi:nodetypes="csscsscc" />
      <path
         style="fill:#ff0000;fill-opacity:1;fill-rule:evenodd;stroke:#806000;stroke-width:0.26458333;stroke-linecap:round;stroke-linejoin:miter;stroke-miterlimit:4;stroke-dasharray:none;stroke-dashoffset:0;stroke-opacity:1"
         d="m 176.70464,238.15513 c -1.72952,0 -3.45096,0.63469 -4.54469,1.36546 -1.33433,0.89156 -1.88246,2.14561 -1.88246,3.29653 0,1.15091 1.88246,2.14562 1.88246,3.29653 0,1.15092 -0.54812,2.40498 -1.88246,3.29653 -1.09373,0.73079 -2.90498,1.36547 -4.5447,1.36547 -1.63972,0 -3.45097,-0.63468 -4.54469,-1.36547 -1.33435,-0.89155 -1.88248,-2.14561 -1.88248,-3.29653 0,-1.15091 1.88248,-2.14562 1.88248,-3.29653 0,-1.15092 -0.54812,-2.40497 -1.88248,-3.29653 -1.09372,-0.73078 -2.81517,-1.36546 -4.54469,-1.36546 -1.72951,0 -3.45096,0.63469 -4.54468,1.36546 -1.33435,0.89156 -1.88247,2.14561 -1.88247,3.29653 0,1.15091 1.88247,2.14562 1.88247,3.29653 0,1.15092 -0.54812,2.40498 -1.88247,3.29653 -1.09373,0.73079 -2.90498,1.36547 -4.54469,1.36547 -1.63972,0 -3.45097,-0.63468 -4.54469,-1.36547 -1.33435,-0.89155 -1.88247,-2.14561 -1.88247,-3.29653 0,-1.15091 1.88247,-2.14562 1.88247,-3.29653 0,-1.15092 -0.54813,-2.40497 -1.88247,-3.29653 -1.09373,-0.73078 -2.81517,-1.36546 -4.54469,-1.36546 -1.72952,0 -3.45096,0.63469 -4.54469,1.36546 -1.33433,0.89156 -1.88246,2.14561 -1.88246,3.29653 0,1.15091 1.88246,2.14562 1.88246,3.29653 0,1.15092 -0.54812,2.40498 -1.88246,3.29653 -1.09373,0.73079 -2.90499,1.36547 -4.5447,1.36547 -1.63972,0 -3.45097,-0.63468 -4.54469,-1.36547 -1.33435,-0.89155 -1.88248,-2.14561 -1.88248,-3.29653 0,-1.15091 1.88248,-2.14562 1.88248,-3.29653 0,-1.15092 -0.54812,-2.40497 -1.88248,-3.29653 -1.09372,-0.73078 -2.81517,-1.36546 -4.54469,-1.36546 -1.72951,0 -3.45096,0.63469 -4.54468,1.36546 -1.33435,0.89156 -1.88247,2.14561 -1.88247,3.29653 0,1.15091 1.88247,2.14562 1.88247,3.29653 0,1.15092 -0.54812,2.40498 -1.88247,3.29653 -1.09373,0.73079 -2.90499,1.36547 -4.544691,1.36547 -1.639715,0 -3.450966,-0.63468 -4.544695,-1.36547 -1.334354,-0.89155 -1.882473,-2.14561 -1.882473,-3.29653 0,-1.15091 1.882473,-2.14562 1.882473,-3.29653 0,-1.15092 -0.548127,-2.40497 -1.882473,-3.29653 -1.093729,-0.73078 -2.815172,-1.36546 -4.544689,-1.36546 -1.729518,0 -3.450957,0.63469 -4.544688,1.36546 -1.334336,0.89156 -1.882466,2.14561 -1.882466,3.29653 0,1.15091 1.882466,2.14562 1.882466,3.29653 0,1.15092 -0.54812,2.40498 -1.882466,3.29653 -1.093731,0.73079 -2.904981,1.36547 -4.544697,1.36547 -1.639715,0 -3.450966,-0.63468 -4.544696,-1.36547 -1.334355,-0.89155 -1.882476,-2.14561 -1.882476,-3.29653 0,-1.15091 1.882476,-2.14562 1.882476,-3.29653 0,-1.15092 -0.548121,-2.40497 -1.882476,-3.29653 -1.093721,-0.73078 -2.815166,-1.36546 -4.544687,-1.36546 -1.729512,0 -3.450957,0.63469 -4.544678,1.36546 -1.334355,0.89156 -1.882476,2.14561 -1.882476,3.29653 0,1.15091 1.882476,2.14562 1.882476,3.29653 0,1.15092 -0.548121,2.40498 -1.882476,3.29653 -1.09373,0.73079 -2.904981,1.36547 -4.544691,1.36547 -1.639715,0 -3.450968,-0.63468 -4.544696,-1.36547 -1.334353,-0.89155 -1.882472,-2.14561 -1.882472,-3.29653 0,-1.15091 1.882472,-2.14562 1.882472,-3.29653 0,-1.15092 -0.548126,-2.40497 -1.882472,-3.29653 -1.093729,-0.73078 -2.815176,-1.36546 -4.54469,-1.36546 v -22.08594 c 1.729514,0 3.450961,-0.63468 4.54469,-1.36546 1.334346,-0.89156 1.882472,-2.14561 1.882472,-3.29653 0,-1.15091 -1.882472,-2.14562 -1.882472,-3.29653 0,-1.15092 0.548119,-2.40498 1.882472,-3.29653 1.093728,-0.73079 2.904981,-1.36547 4.544696,-1.36547 1.63971,0 3.450961,0.63468 4.544691,1.36547 1.334355,0.89155 1.882476,2.14561 1.882476,3.29653 0,1.15091 -1.882476,2.14562 -1.882476,3.29653 0,1.15092 0.548121,2.40497 1.882476,3.29653 1.093721,0.73077 2.815166,1.36546 4.544678,1.36546 1.729521,0 3.450966,-0.63468 4.544687,-1.36546 1.334355,-0.89156 1.882476,-2.14561 1.882476,-3.29653 0,-1.15091 -1.882476,-2.14562 -1.882476,-3.29653 0,-1.15092 0.548121,-2.40498 1.882476,-3.29653 1.09373,-0.73079 2.904981,-1.36547 4.544696,-1.36547 1.639716,0 3.450966,0.63468 4.544697,1.36547 1.334346,0.89155 1.882466,2.14561 1.882466,3.29653 0,1.15091 -1.882466,2.14562 -1.882466,3.29653 0,1.15092 0.54813,2.40497 1.882466,3.29653 1.093731,0.73077 2.81517,1.36546 4.544688,1.36546 1.729517,0 3.45096,-0.63468 4.544689,-1.36546 1.334346,-0.89156 1.882473,-2.14561 1.882473,-3.29653 0,-1.15091 -1.882473,-2.14562 -1.882473,-3.29653 0,-1.15092 0.548119,-2.40498 1.882473,-3.29653 1.093729,-0.73079 2.90498,-1.36547 4.544695,-1.36547 1.639701,0 3.450961,0.63468 4.544691,1.36547 1.33435,0.89155 1.88247,2.14561 1.88247,3.29653 0,1.15091 -1.88247,2.14562 -1.88247,3.29653 0,1.15092 0.54812,2.40497 1.88247,3.29653 1.09372,0.73077 2.81517,1.36546 4.54468,1.36546 1.72952,0 3.45097,-0.63468 4.54469,-1.36546 1.33436,-0.89156 1.88248,-2.14561 1.88248,-3.29653 0,-1.15091 -1.88248,-2.14562 -1.88248,-3.29653 0,-1.15092 0.54813,-2.40498 1.88248,-3.29653 1.09372,-0.73079 2.90497,-1.36547 4.54469,-1.36547 1.63971,0 3.45097,0.63468 4.5447,1.36547 1.33434,0.89155 1.88246,2.14561 1.88246,3.29653 0,1.15091 -1.88246,2.14562 -1.88246,3.29653 0,1.15092 0.54813,2.40497 1.88246,3.29653 1.09373,0.73077 2.81517,1.36546 4.54469,1.36546 1.72952,0 3.45096,-0.63468 4.54469,-1.36546 1.33434,-0.89156 1.88247,-2.14561 1.88247,-3.29653 0,-1.15091 -1.88247,-2.14562 -1.88247,-3.29653 0,-1.15092 0.54812,-2.40498 1.88247,-3.29653 1.09372,-0.73079 2.90497,-1.36547 4.54469,-1.36547 1.63971,0 3.45096,0.63468 4.54469,1.36547 1.33435,0.89155 1.88247,2.14561 1.88247,3.29653 0,1.15091 -1.88247,2.14562 -1.88247,3.29653 0,1.15092 0.54812,2.40497 1.88247,3.29653 1.09372,0.73077 2.81517,1.36546 4.54468,1.36546 1.72952,0 3.45097,-0.63468 4.54469,-1.36546 1.33436,-0.89156 1.88248,-2.14561 1.88248,-3.29653 0,-1.15091 -1.88248,-2.14562 -1.88248,-3.29653 0,-1.15092 0.54813,-2.40498 1.88248,-3.29653 1.09372,-0.73079 2.90497,-1.36547 4.54469,-1.36547 1.63972,0 3.45097,0.63468 4.5447,1.36547 1.33434,0.89155 1.88246,2.14561 1.88246,3.29653 0,1.15091 -1.88246,2.14562 -1.88246,3.29653 0,1.15092 0.54813,2.40497 1.88246,3.29653 1.09373,0.73077 2.81517,1.36546 4.54469,1.36546 z"
         id="path4"
         inkscape:connector-curvature="0"
         sodipodi:nodetypes="csssszssssssssszsssszsssszssssssssszsssszsssszssssssssszssssccsssszssssssssszsssszsssszssssssssszsssszsssszssssssssszsssscc" />
    </g>
    <g
       id="g13346"
       style="stroke:#806000;stroke-width:0.264583;stroke-linecap:round;stroke-linejoin:round;stroke-miterlimit:4;stroke-dasharray:none;stroke-opacity:1"
       transform="translate(-129.12414,-148.84298)" />
  </g>
</svg>
