<?xml version="1.0" encoding="UTF-8" standalone="no"?>
<!-- Created with Inkscape (http://www.inkscape.org/) -->

<svg
   width="498.62103"
   height="563.23358"
   viewBox="0 0 131.9268 149.02223"
   version="1.1"
   id="svg8"
   inkscape:export-filename="C:\Users\厂永刄先生\Documents\VENCAQ1\新しいフォルダー\pièces II.png"
   inkscape:export-xdpi="96"
   inkscape:export-ydpi="96"
   inkscape:version="1.3 (0e150ed6c4, 2023-07-21)"
   sodipodi:docname="orle.svg"
   xmlns:inkscape="http://www.inkscape.org/namespaces/inkscape"
   xmlns:sodipodi="http://sodipodi.sourceforge.net/DTD/sodipodi-0.dtd"
   xmlns="http://www.w3.org/2000/svg"
   xmlns:svg="http://www.w3.org/2000/svg"
   xmlns:rdf="http://www.w3.org/1999/02/22-rdf-syntax-ns#"
   xmlns:cc="http://creativecommons.org/ns#"
   xmlns:dc="http://purl.org/dc/elements/1.1/">
  <defs
     id="defs2" />
  <sodipodi:namedview
     id="base"
     pagecolor="#000000"
     bordercolor="#666666"
     borderopacity="1.0"
     inkscape:pageopacity="1"
     inkscape:pageshadow="2"
     inkscape:zoom="1.19107"
     inkscape:cx="196.04221"
     inkscape:cy="248.09625"
     inkscape:document-units="px"
     inkscape:current-layer="layer1"
     showgrid="false"
     units="px"
     fit-margin-top="10"
     fit-margin-left="10"
     fit-margin-right="10"
     fit-margin-bottom="10"
     inkscape:window-width="1920"
     inkscape:window-height="1009"
     inkscape:window-x="-8"
     inkscape:window-y="-8"
     inkscape:window-maximized="1"
     showguides="true"
     inkscape:guide-bbox="true"
     inkscape:snap-intersection-paths="true"
     inkscape:snap-smooth-nodes="true"
     inkscape:pagecheckerboard="false"
     inkscape:showpageshadow="0"
     inkscape:deskcolor="#505050" />
  <metadata
     id="metadata5">
    <rdf:RDF>
      <cc:Work
         rdf:about="">
        <dc:format>image/svg+xml</dc:format>
        <dc:type
           rdf:resource="http://purl.org/dc/dcmitype/StillImage" />
      </cc:Work>
    </rdf:RDF>
  </metadata>
  <g
     inkscape:label="レイヤー 1"
     inkscape:groupmode="layer"
     id="layer1"
     transform="translate(-181.86409,-582.0823)">
    <path
       sodipodi:nodetypes="csscsscc"
       inkscape:connector-curvature="0"
       id="path1"
       d="m 192.9668,593.18555 v 91.4082 c 0.33241,11.47549 7.94851,16.90868 18.04687,20.625 8.72671,3.0848 22.67678,5.14088 36.81445,12.91016 14.13716,-7.76859 28.08809,-9.82548 36.81446,-12.91016 9.33378,-3.50272 18.23021,-9.63657 18.04492,-20.625 v -91.4082 z"
       style="fill:#ff0000;fill-opacity:1;stroke:#806000;stroke-width:0.264583;stroke-linecap:butt;stroke-linejoin:round;stroke-miterlimit:4;stroke-dasharray:none;stroke-opacity:1;paint-order:normal" />
    <path
       sodipodi:nodetypes="csscsscccsscssccsscsscc"
       inkscape:connector-curvature="0"
       id="path1560"
       d="m 203.93932,604.1582 0.001,73.92369 c 1.5e-4,10.66206 7.19667,15.09699 16.90692,18.52946 7.82774,2.76702 17.89892,3.04033 26.98084,9.21482 9.08191,-6.17449 19.15309,-6.4478 26.98083,-9.21482 9.71023,-3.43247 16.90708,-7.8674 16.90693,-18.52946 l -0.001,-73.92369 z m 109.71929,-21.94361 v 102.37908 c 0,15.99296 -10.79496,25.82029 -25.36019,30.96895 -11.74151,4.1505 -26.84817,6.14794 -40.47093,15.4096 -13.62276,-9.26166 -28.72941,-11.2591 -40.47093,-15.4096 -14.56526,-5.14866 -25.36018,-14.97599 -25.36018,-30.96895 v -102.37908 0 102.37908 c 0,15.99296 10.79492,25.82029 25.36018,30.96895 11.74152,4.1505 26.84817,6.14794 40.47093,15.4096 13.62276,-9.26166 28.72942,-11.2591 40.47093,-15.4096 14.56523,-5.14866 25.36019,-14.97599 25.36019,-30.96895 V 582.21459 Z"
       style="fill:#ff0000;fill-opacity:1;stroke:#806000;stroke-width:0.264583;stroke-linecap:butt;stroke-linejoin:round;stroke-miterlimit:4;stroke-dasharray:none;stroke-opacity:1" />
    <g
       transform="translate(547.99099,8e-5)"
       id="g1763" />
    <g
       id="g13346"
       style="stroke:#806000;stroke-width:0.264583;stroke-linecap:round;stroke-linejoin:round;stroke-miterlimit:4;stroke-dasharray:none;stroke-opacity:1"
       transform="translate(-129.12414,-148.84298)" />
    <path
       style="fill:#ffffff;fill-opacity:1;stroke:#806000;stroke-width:0.264583;stroke-linecap:butt;stroke-linejoin:round;stroke-miterlimit:4;stroke-dasharray:none;stroke-opacity:1"
       d="m 203.93932,604.1582 0.001,73.92369 c 1.5e-4,10.66206 7.19667,15.09699 16.90692,18.52946 7.82774,2.76702 17.89892,3.04033 26.98084,9.21482 9.08191,-6.17449 19.15309,-6.4478 26.98083,-9.21482 9.71023,-3.43247 16.90708,-7.8674 16.90693,-18.52946 l -0.001,-73.92369 z"
       id="path1562"
       inkscape:connector-curvature="0"
       sodipodi:nodetypes="csscsscc" />
  </g>
</svg>
