<?xml version="1.0" encoding="UTF-8" standalone="no"?>
<!-- Created with Inkscape (http://www.inkscape.org/) -->

<svg
   width="498.62097"
   height="563.23352"
   viewBox="0 0 131.92679 149.02221"
   version="1.1"
   id="svg8"
   inkscape:export-filename="C:\Users\厂永刄先生\Documents\VENCAQ1\新しいフォルダー\couleurs.png"
   inkscape:export-xdpi="96"
   inkscape:export-ydpi="96"
   inkscape:version="1.3 (0e150ed6c4, 2023-07-21)"
   sodipodi:docname="or.svg"
   xmlns:inkscape="http://www.inkscape.org/namespaces/inkscape"
   xmlns:sodipodi="http://sodipodi.sourceforge.net/DTD/sodipodi-0.dtd"
   xmlns:xlink="http://www.w3.org/1999/xlink"
   xmlns="http://www.w3.org/2000/svg"
   xmlns:svg="http://www.w3.org/2000/svg"
   xmlns:rdf="http://www.w3.org/1999/02/22-rdf-syntax-ns#"
   xmlns:cc="http://creativecommons.org/ns#"
   xmlns:dc="http://purl.org/dc/elements/1.1/">
  <defs
     id="defs2">
    <pattern
       inkscape:collect="always"
       xlink:href="#pattern1"
       preserveAspectRatio="xMidYMid"
       id="pattern2"
       patternTransform="matrix(0.248,0,0,0.248,502.48208,567.705)"
       x="0"
       y="0" />
    <pattern
       patternUnits="userSpaceOnUse"
       width="40.00195"
       height="40"
       patternTransform="matrix(0.26458333,0,0,0.26458333,128.93965,235.49225)"
       id="pattern1788"
       inkscape:label="pattern1788">
      <path
         id="circle1034"
         d="M 0,0 V 7.5 C 4.14214,7.5 7.5,4.14214 7.5,0 Z m 32.50195,0 c 0,4.14214 3.35787,7.5 7.5,7.5 V 0 Z m -12.5,12.5 c -4.14213,0 -7.5,3.35787 -7.5,7.5 0,4.14214 3.35787,7.5 7.5,7.5 4.14214,0 7.5,-3.35786 7.5,-7.5 0,-4.14217 -3.35782,-7.5 -7.5,-7.5 z M 0,32.5 V 40 H 7.5 C 7.5,35.85787 4.14214,32.5 0,32.5 Z m 40.00195,0 c -4.14213,0 -7.5,3.35787 -7.5,7.5 h 7.5 z"
         style="opacity:1;fill:#000000;fill-opacity:1;fill-rule:evenodd;stroke:none;stroke-width:5.4329114;stroke-linecap:butt;stroke-linejoin:round;stroke-miterlimit:4;stroke-dasharray:none;stroke-dashoffset:0;stroke-opacity:1"
         inkscape:connector-curvature="0" />
    </pattern>
    <pattern
       patternUnits="userSpaceOnUse"
       width="40.001952"
       height="39.999998"
       patternTransform="translate(1357.739,307.53276)"
       preserveAspectRatio="xMidYMid"
       id="pattern43"
       inkscape:label="pattern43">
      <path
         id="path43"
         d="M 0,0 V 7.4999999 C 4.1421354,7.4999999 7.499981,4.1421392 7.499981,0 Z m 32.501933,0 c 0,4.1421392 3.357884,7.4999999 7.500019,7.4999999 V 0 Z M 20.00194,12.500001 c -4.142135,0 -7.499981,3.357868 -7.499981,7.5 0,4.142139 3.357846,7.5 7.499981,7.5 4.142135,0 7.500019,-3.357861 7.500019,-7.5 0,-4.142173 -3.357846,-7.5 -7.500019,-7.5 z M 0,32.499998 v 7.5 h 7.499981 c 0,-4.142128 -3.3578456,-7.5 -7.499981,-7.5 z m 40.001952,0 c -4.142135,0 -7.500019,3.357872 -7.500019,7.5 h 7.500019 z"
         style="opacity:1;fill:#806000;fill-opacity:1;fill-rule:evenodd;stroke:none;stroke-width:5.43292;stroke-linecap:butt;stroke-linejoin:round;stroke-miterlimit:4;stroke-dasharray:none;stroke-dashoffset:0;stroke-opacity:1"
         inkscape:connector-curvature="0" />
    </pattern>
    <pattern
       patternUnits="userSpaceOnUse"
       width="37.797166"
       height="37.795276"
       patternTransform="translate(498.62098,563.23352)"
       preserveAspectRatio="xMidYMid"
       id="pattern1"
       inkscape:label="pattern1">
      <path
         id="path1"
         d="m 0,0 v 7.0866142 c 3.9137008,0 7.0866142,-3.1728 7.0866142,-7.0866142 z m 30.710551,0 c 0,3.9138142 3.172914,7.0866142 7.086615,7.0866142 V 0 Z M 18.899528,11.811024 c -3.913701,0 -7.086615,3.1728 -7.086615,7.086614 0,3.913814 3.172914,7.086614 7.086615,7.086614 3.913701,0 7.086614,-3.1728 7.086614,-7.086614 0,-3.913852 -3.172913,-7.086614 -7.086614,-7.086614 z M 0,30.708662 v 7.086614 H 7.0866142 C 7.0866142,33.881462 3.9137008,30.708662 0,30.708662 Z m 37.797166,0 c -3.913701,0 -7.086615,3.1728 -7.086615,7.086614 h 7.086615 z"
         style="opacity:1;fill:#a88000;fill-opacity:1;fill-rule:evenodd;stroke:none;stroke-width:5.13347;stroke-linecap:butt;stroke-linejoin:round;stroke-miterlimit:4;stroke-dasharray:none;stroke-dashoffset:0;stroke-opacity:1"
         inkscape:connector-curvature="0" />
    </pattern>
  </defs>
  <sodipodi:namedview
     id="base"
     pagecolor="#000000"
     bordercolor="#666666"
     borderopacity="1.0"
     inkscape:pageopacity="1"
     inkscape:pageshadow="2"
     inkscape:zoom="7.8574583"
     inkscape:cx="234.36332"
     inkscape:cy="538.02385"
     inkscape:document-units="px"
     inkscape:current-layer="layer1"
     showgrid="false"
     units="px"
     fit-margin-top="5"
     fit-margin-left="5"
     fit-margin-right="5"
     fit-margin-bottom="3"
     inkscape:window-width="1920"
     inkscape:window-height="1009"
     inkscape:window-x="-8"
     inkscape:window-y="-8"
     inkscape:window-maximized="1"
     showguides="true"
     inkscape:guide-bbox="true"
     inkscape:snap-intersection-paths="false"
     inkscape:snap-smooth-nodes="false"
     inkscape:pagecheckerboard="true"
     inkscape:showpageshadow="0"
     inkscape:deskcolor="#505050" />
  <metadata
     id="metadata5">
    <rdf:RDF>
      <cc:Work
         rdf:about="">
        <dc:format>image/svg+xml</dc:format>
        <dc:type
           rdf:resource="http://purl.org/dc/dcmitype/StillImage" />
      </cc:Work>
    </rdf:RDF>
  </metadata>
  <g
     inkscape:label="レイヤー 1"
     inkscape:groupmode="layer"
     id="layer1"
     transform="translate(-324.03432,22.940691)">
    <path
       style="fill:url(#pattern2);fill-opacity:1;stroke:#a88000;stroke-width:0.264583;stroke-linecap:round;stroke-linejoin:round;stroke-miterlimit:4;stroke-dasharray:none;stroke-opacity:1"
       d="m 389.99772,-22.8084 h 65.83111 V 79.57068 c 0,15.99296 -10.79492,25.82029 -25.36018,30.96895 -11.74152,4.1505 -26.84817,6.14794 -40.47093,15.4096 z"
       id="path996"
       inkscape:connector-curvature="0"
       sodipodi:nodetypes="ccsscc" />
    <g
       id="g13346"
       style="stroke:#806000;stroke-width:0.264583;stroke-linecap:round;stroke-linejoin:round;stroke-miterlimit:4;stroke-dasharray:none;stroke-opacity:1"
       transform="translate(-129.12414,-148.84298)" />
    <path
       sodipodi:nodetypes="ccsscc"
       inkscape:connector-curvature="0"
       id="path1795"
       d="m 389.99772,-22.8084 h 65.83111 V 79.57068 c 0,15.99296 -10.79492,25.82029 -25.36018,30.96895 -11.74152,4.1505 -26.84817,6.14794 -40.47093,15.4096 z"
       style="fill:none;fill-opacity:1;stroke:#a88000;stroke-width:0.264583;stroke-linecap:round;stroke-linejoin:round;stroke-miterlimit:4;stroke-dasharray:none;stroke-opacity:1" />
    <path
       sodipodi:nodetypes="ccsscc"
       inkscape:connector-curvature="0"
       id="path994"
       d="M 389.99772,-22.8084 H 324.16661 V 79.57068 c 0,15.99296 10.79492,25.82029 25.36018,30.96895 11.74152,4.1505 26.84817,6.14794 40.47093,15.4096 z"
       style="fill:#ffc000;fill-opacity:1;stroke:#a88000;stroke-width:0.264583;stroke-linecap:round;stroke-linejoin:round;stroke-miterlimit:4;stroke-dasharray:none;stroke-opacity:1" />
  </g>
</svg>
