<?xml version="1.0" encoding="UTF-8" standalone="no"?>
<!-- Created with Inkscape (http://www.inkscape.org/) -->

<svg
   width="498.62103"
   height="563.23358"
   viewBox="0 0 131.9268 149.02223"
   version="1.1"
   id="svg8"
   inkscape:export-filename="C:\Users\厂永刄先生\Documents\VENCAQ1\新しいフォルダー\pièces II.png"
   inkscape:export-xdpi="96"
   inkscape:export-ydpi="96"
   inkscape:version="1.3 (0e150ed6c4, 2023-07-21)"
   sodipodi:docname="priesthood.svg"
   xmlns:inkscape="http://www.inkscape.org/namespaces/inkscape"
   xmlns:sodipodi="http://sodipodi.sourceforge.net/DTD/sodipodi-0.dtd"
   xmlns:xlink="http://www.w3.org/1999/xlink"
   xmlns="http://www.w3.org/2000/svg"
   xmlns:svg="http://www.w3.org/2000/svg"
   xmlns:rdf="http://www.w3.org/1999/02/22-rdf-syntax-ns#"
   xmlns:cc="http://creativecommons.org/ns#"
   xmlns:dc="http://purl.org/dc/elements/1.1/">
  <defs
     id="defs2">
    <radialGradient
       inkscape:collect="always"
       xlink:href="#linearGradient16662"
       id="radialGradient45224"
       gradientUnits="userSpaceOnUse"
       gradientTransform="matrix(1,0,0,1.1295825,0,80.011497)"
       cx="4110.8408"
       cy="-617.45599"
       fx="4110.8408"
       fy="-617.45599"
       r="249.3105" />
    <linearGradient
       inkscape:collect="always"
       id="linearGradient16662">
      <stop
         style="stop-color:#b0b0b0;stop-opacity:1"
         offset="0"
         id="stop16658" />
      <stop
         style="stop-color:#909090;stop-opacity:1"
         offset="1"
         id="stop16660" />
    </linearGradient>
    <radialGradient
       inkscape:collect="always"
       xlink:href="#linearGradient3271"
       id="radialGradient45222"
       gradientUnits="userSpaceOnUse"
       gradientTransform="matrix(1,0,0,1.1295825,0,80.011497)"
       cx="4110.8408"
       cy="-617.45599"
       fx="4110.8408"
       fy="-617.45599"
       r="249.3105" />
    <linearGradient
       id="linearGradient3271"
       inkscape:collect="always">
      <stop
         id="stop3267"
         offset="0"
         style="stop-color:#ff0000;stop-opacity:1" />
      <stop
         id="stop3269"
         offset="1"
         style="stop-color:#c00000;stop-opacity:1" />
    </linearGradient>
    <linearGradient
       inkscape:collect="always"
       xlink:href="#linearGradient2507"
       id="linearGradient45226"
       gradientUnits="userSpaceOnUse"
       gradientTransform="rotate(45,-55.58869,160.56215)"
       x1="-50.297031"
       y1="160.56215"
       x2="-43.282944"
       y2="160.56215" />
    <linearGradient
       inkscape:collect="always"
       id="linearGradient2507">
      <stop
         style="stop-color:#ffc000;stop-opacity:1"
         offset="0"
         id="stop2503" />
      <stop
         style="stop-color:#c09000;stop-opacity:1"
         offset="1"
         id="stop2505" />
    </linearGradient>
    <linearGradient
       inkscape:collect="always"
       xlink:href="#linearGradient3235"
       id="linearGradient45228"
       gradientUnits="userSpaceOnUse"
       gradientTransform="matrix(0.70710678,-0.70710678,-0.70710678,-0.70710678,97.253035,293.80626)"
       x1="-50.297031"
       y1="160.56215"
       x2="-43.282944"
       y2="160.56215" />
    <linearGradient
       id="linearGradient3235"
       inkscape:collect="always">
      <stop
         id="stop3231"
         offset="0"
         style="stop-color:#f0b400;stop-opacity:1" />
      <stop
         id="stop3233"
         offset="1"
         style="stop-color:#d09d00;stop-opacity:1" />
    </linearGradient>
    <linearGradient
       inkscape:collect="always"
       xlink:href="#linearGradient3257"
       id="linearGradient45230"
       gradientUnits="userSpaceOnUse"
       gradientTransform="rotate(-135,-13.857596,177.84773)"
       x1="-50.297031"
       y1="160.56215"
       x2="-43.282944"
       y2="160.56215" />
    <linearGradient
       id="linearGradient3257"
       inkscape:collect="always">
      <stop
         style="stop-color:#c09000;stop-opacity:1"
         offset="0"
         id="stop3255" />
      <stop
         style="stop-color:#ffc000;stop-opacity:1"
         offset="1"
         id="stop3253" />
    </linearGradient>
    <linearGradient
       inkscape:collect="always"
       xlink:href="#linearGradient3249"
       id="linearGradient45232"
       gradientUnits="userSpaceOnUse"
       gradientTransform="matrix(-0.70710678,0.70710678,0.70710678,0.70710678,-149.41373,86.3347)"
       x1="-50.297031"
       y1="160.56215"
       x2="-43.282944"
       y2="160.56215" />
    <linearGradient
       inkscape:collect="always"
       id="linearGradient3249">
      <stop
         id="stop3247"
         offset="0"
         style="stop-color:#d09d00;stop-opacity:1" />
      <stop
         id="stop3245"
         offset="1"
         style="stop-color:#f0b400;stop-opacity:1" />
    </linearGradient>
  </defs>
  <sodipodi:namedview
     id="base"
     pagecolor="#000000"
     bordercolor="#666666"
     borderopacity="1.0"
     inkscape:pageopacity="1"
     inkscape:pageshadow="2"
     inkscape:zoom="0.595535"
     inkscape:cx="459.25093"
     inkscape:cy="306.44714"
     inkscape:document-units="px"
     inkscape:current-layer="g44474"
     showgrid="false"
     units="px"
     fit-margin-top="10"
     fit-margin-left="10"
     fit-margin-right="10"
     fit-margin-bottom="10"
     inkscape:window-width="1920"
     inkscape:window-height="1057"
     inkscape:window-x="-8"
     inkscape:window-y="-8"
     inkscape:window-maximized="1"
     showguides="true"
     inkscape:guide-bbox="true"
     inkscape:snap-intersection-paths="true"
     inkscape:snap-smooth-nodes="true"
     inkscape:pagecheckerboard="false"
     inkscape:showpageshadow="0"
     inkscape:deskcolor="#505050" />
  <metadata
     id="metadata5">
    <rdf:RDF>
      <cc:Work
         rdf:about="">
        <dc:format>image/svg+xml</dc:format>
        <dc:type
           rdf:resource="http://purl.org/dc/dcmitype/StillImage" />
      </cc:Work>
    </rdf:RDF>
  </metadata>
  <g
     inkscape:label="レイヤー 1"
     inkscape:groupmode="layer"
     id="layer1"
     transform="translate(-44.910129,-582.0823)">
    <g
       transform="translate(547.99099,8e-5)"
       id="g1763" />
    <g
       id="g13346"
       style="stroke:#806000;stroke-width:0.264583;stroke-linecap:round;stroke-linejoin:round;stroke-miterlimit:4;stroke-dasharray:none;stroke-opacity:1"
       transform="translate(-129.12414,-148.84298)" />
    <g
       id="g1">
      <g
         id="g1142"
         transform="translate(145.31209,482.08017)"
         style="stroke-width:0.264583;stroke-dasharray:none">
        <g
           transform="matrix(0.26458333,0,0,0.26458333,-1122.0985,337.8818)"
           id="g44474"
           style="display:inline;fill:url(#radialGradient45224);fill-opacity:1;stroke:#806000;stroke-width:1;stroke-dasharray:none;stroke-opacity:1">
          <path
             sodipodi:nodetypes="csscsscccc"
             inkscape:connector-curvature="0"
             id="path44472"
             d="m 3862.0303,-723.67416 0,212.04595 c 0,60.4458 40.7997,97.5885 95.8495,117.048 44.3774,15.6869 101.4734,23.2363 152.961,58.241 51.4876,-35.0047 108.5836,-42.5541 152.961,-58.241 55.0497,-19.4595 95.8495,-56.6022 95.8495,-117.048 v -386.94457 h -331.7474 v 174.89862 z"
             style="fill:url(#radialGradient45222);fill-opacity:1;stroke:#806000;stroke-width:1;stroke-linecap:round;stroke-linejoin:round;stroke-miterlimit:4;stroke-dasharray:none;stroke-opacity:1" />
        </g>
        <g
           transform="translate(-8.358204,-20.523142)"
           style="stroke:#806000;stroke-width:0.264583;stroke-dasharray:none;stroke-opacity:1"
           id="g44484">
          <path
             sodipodi:nodetypes="ccccc"
             inkscape:connector-curvature="0"
             id="path44476"
             d="m -84.909957,190.07049 24.512335,-1e-5 34.317274,-34.31728 -3e-6,-24.51232 z"
             style="fill:url(#linearGradient45226);fill-opacity:1;stroke:#806000;stroke-width:0.264583;stroke-linecap:butt;stroke-linejoin:miter;stroke-dasharray:none;stroke-opacity:1" />
          <path
             style="fill:url(#linearGradient45228);fill-opacity:1;stroke:#806000;stroke-width:0.264583;stroke-linecap:butt;stroke-linejoin:miter;stroke-dasharray:none;stroke-opacity:1"
             d="m -84.909957,190.07047 24.512335,1e-5 34.317274,34.31728 -3e-6,24.51232 z"
             id="path44478"
             inkscape:connector-curvature="0"
             sodipodi:nodetypes="ccccc" />
          <path
             style="fill:url(#linearGradient45230);fill-opacity:1;stroke:#806000;stroke-width:0.264583;stroke-linecap:butt;stroke-linejoin:miter;stroke-dasharray:none;stroke-opacity:1"
             d="m 32.749261,190.07047 -24.512335,1e-5 -34.317274,34.31728 3e-6,24.51232 z"
             id="path44480"
             inkscape:connector-curvature="0"
             sodipodi:nodetypes="ccccc" />
          <path
             sodipodi:nodetypes="ccccc"
             inkscape:connector-curvature="0"
             id="path44482"
             d="m 32.749261,190.07049 -24.512335,-1e-5 -34.317274,-34.31728 3e-6,-24.51232 z"
             style="fill:url(#linearGradient45232);fill-opacity:1;stroke:#806000;stroke-width:0.264583;stroke-linecap:butt;stroke-linejoin:miter;stroke-dasharray:none;stroke-opacity:1" />
        </g>
      </g>
      <path
         sodipodi:nodetypes="ccccc"
         inkscape:connector-curvature="0"
         id="path1408"
         d="m 45.042426,582.21459 v 46.27526 h 43.88739 v -46.27526 z"
         style="fill:#ffffff;fill-opacity:1;stroke:#806000;stroke-width:0.264583;stroke-linecap:butt;stroke-linejoin:round;stroke-miterlimit:4;stroke-dasharray:none;stroke-opacity:1" />
      <path
         style="fill:#000000;fill-opacity:1;stroke:#806000;stroke-width:0.275696;stroke-linecap:round;stroke-linejoin:round;stroke-miterlimit:4;stroke-dasharray:none;stroke-opacity:1"
         d="m 77.957976,588.08438 c 0,0 -1.37804,1.03227 -1.37804,3.3073 0,2.27499 1.37804,3.27984 1.37804,3.27984 0,0 1.37804,-1.00485 1.37805,-3.27984 0,-2.27503 -1.37805,-3.3073 -1.37805,-3.3073 z m -3.30729,5.23655 c -2.27501,0 -3.30729,1.37804 -3.30729,1.37804 0,0 1.03228,1.37803 3.30729,1.37803 2.27502,0 3.27983,-1.37803 3.27983,-1.37803 0,0 -1.00481,-1.37804 -3.27983,-1.37804 z m 6.6146,0 c -2.27502,0 -3.27984,1.37804 -3.27984,1.37804 0,0 1.00482,1.37803 3.27984,1.37803 2.27502,0 3.30729,-1.37803 3.30729,-1.37803 0,0 -1.03227,-1.37804 -3.30729,-1.37804 z m -3.30731,1.40549 c 0,0 -1.37804,1.00481 -1.37804,3.27984 0,3.04061 -3.33844,10.0397 -5.23654,11.93781 0,0 1.88696,0.0622 3.8978,-1.94866 0.25378,-0.25378 0.47444,-0.50569 0.66265,-0.75307 0.14415,2.61723 2.05413,3.80953 2.05413,3.80953 0,0 1.90999,-1.1923 2.05414,-3.80953 0.18821,0.24738 0.40886,0.49929 0.66265,0.75307 2.01085,2.01087 3.89781,1.94866 3.89781,1.94866 -1.89811,-1.89811 -5.23655,-8.8972 -5.23655,-11.93781 0,-2.27503 -1.37805,-3.27984 -1.37805,-3.27984 z"
         id="path7587"
         inkscape:connector-curvature="0"
         sodipodi:nodetypes="cscscscscsscscscscscccscsc" />
      <path
         style="fill:#000000;fill-opacity:1;stroke:#806000;stroke-width:0.275696;stroke-linecap:round;stroke-linejoin:round;stroke-miterlimit:4;stroke-dasharray:none;stroke-opacity:1"
         d="m 88.929816,605.43762 c 0,0 -1.37804,1.03227 -1.37804,3.3073 0,2.27499 1.37804,3.27984 1.37804,3.27984 z m -3.30729,5.23655 c -2.27501,0 -3.30729,1.37804 -3.30729,1.37804 0,0 1.03228,1.37803 3.30729,1.37803 2.27502,0 3.27983,-1.37803 3.27983,-1.37803 0,0 -1.00481,-1.37804 -3.27983,-1.37804 z m 3.30729,1.40549 c 0,0 -1.37804,1.00481 -1.37804,3.27984 0,3.04061 -3.33844,10.0397 -5.23654,11.93781 0,0 1.88696,0.0622 3.8978,-1.94866 0.25378,-0.25378 0.47444,-0.50569 0.66265,-0.75307 0.14415,2.61723 2.05413,3.80953 2.05413,3.80953 z"
         id="path7669"
         inkscape:connector-curvature="0"
         sodipodi:nodetypes="csccscscscscsccc" />
      <path
         id="path7969"
         style="fill:#000000;fill-opacity:1;stroke:#806000;stroke-width:0.275696;stroke-linecap:round;stroke-linejoin:round;stroke-miterlimit:4;stroke-dasharray:none;stroke-opacity:1"
         d="m 77.957856,622.79105 c 0,0 -1.37769,1.03226 -1.37769,3.30729 0,1.07028 0.30484,1.85592 0.62786,2.39159 h 1.49965 c 0.32305,-0.53567 0.62839,-1.32123 0.62839,-2.39159 0,-2.27503 -1.37821,-3.30729 -1.37821,-3.30729 z m -3.30729,5.23637 c -0.88325,0 -1.57662,0.20837 -2.09755,0.46251 h 4.18631 c -0.51587,-0.25415 -1.2055,-0.46251 -2.08876,-0.46251 z m 6.61458,0 c -0.88326,0 -1.57289,0.20836 -2.08876,0.46251 h 4.18682 c -0.52093,-0.25414 -1.21481,-0.46251 -2.09806,-0.46251 z" />
      <path
         style="fill:#000000;fill-opacity:1;stroke:#806000;stroke-width:0.275696;stroke-linecap:round;stroke-linejoin:round;stroke-miterlimit:4;stroke-dasharray:none;stroke-opacity:1"
         d="m 88.929813,593.69864 c 0,0 -1.90999,-1.19235 -2.05414,-3.80958 -0.18821,0.24738 -0.40871,0.49914 -0.66249,0.75292 -2.01085,2.01087 -3.89795,1.94872 -3.89795,1.94872 1.62125,-1.62125 4.28673,-6.9573 5.03173,-10.37611 h 1.58285 z"
         id="path8167"
         inkscape:connector-curvature="0"
         sodipodi:nodetypes="ccscccc" />
      <path
         style="fill:#000000;fill-opacity:1;stroke:#806000;stroke-width:0.275696;stroke-linecap:round;stroke-linejoin:round;stroke-miterlimit:4;stroke-dasharray:none;stroke-opacity:1"
         d="m 66.986136,605.43762 c 0,0 1.37804,1.03227 1.37804,3.3073 0,2.27499 -1.37804,3.27984 -1.37804,3.27984 0,0 -1.37804,-1.00485 -1.37805,-3.27984 0,-2.27503 1.37805,-3.3073 1.37805,-3.3073 z m 3.30729,5.23655 c 2.27501,0 3.30729,1.37804 3.30729,1.37804 0,0 -1.03228,1.37803 -3.30729,1.37803 -2.27502,0 -3.27983,-1.37803 -3.27983,-1.37803 0,0 1.00481,-1.37804 3.27983,-1.37804 z m -6.6146,0 c 2.27502,0 3.27984,1.37804 3.27984,1.37804 0,0 -1.00482,1.37803 -3.27984,1.37803 -2.27502,0 -3.30729,-1.37803 -3.30729,-1.37803 0,0 1.03227,-1.37804 3.30729,-1.37804 z m 3.30731,1.40549 c 0,0 1.37804,1.00481 1.37804,3.27984 0,3.04061 3.33844,10.0397 5.23654,11.93781 0,0 -1.88696,0.0622 -3.8978,-1.94866 -0.25378,-0.25378 -0.47444,-0.50569 -0.66265,-0.75307 -0.14415,2.61723 -2.05413,3.80953 -2.05413,3.80953 0,0 -1.90999,-1.1923 -2.05414,-3.80953 -0.18821,0.24738 -0.40886,0.49929 -0.66265,0.75307 -2.01085,2.01087 -3.89781,1.94866 -3.89781,1.94866 1.89811,-1.89811 5.23655,-8.8972 5.23655,-11.93781 0,-2.27503 1.37805,-3.27984 1.37805,-3.27984 z"
         id="path2"
         inkscape:connector-curvature="0"
         sodipodi:nodetypes="cscscscscsscscscscscccscsc" />
      <path
         id="path4"
         style="fill:#000000;fill-opacity:1;stroke:#806000;stroke-width:0.275696;stroke-linecap:round;stroke-linejoin:round;stroke-miterlimit:4;stroke-dasharray:none;stroke-opacity:1"
         d="m 56.014176,622.79105 c 0,0 -1.37769,1.03226 -1.37769,3.30729 0,1.07028 0.30484,1.85592 0.62786,2.39159 h 1.49965 c 0.32305,-0.53567 0.62839,-1.32123 0.62839,-2.39159 0,-2.27503 -1.37821,-3.30729 -1.37821,-3.30729 z m -3.30729,5.23637 c -0.88325,0 -1.57662,0.20837 -2.09755,0.46251 h 4.18631 c -0.51587,-0.25415 -1.2055,-0.46251 -2.08876,-0.46251 z m 6.61458,0 c -0.88326,0 -1.57289,0.20836 -2.08876,0.46251 h 4.18682 c -0.52093,-0.25414 -1.21481,-0.46251 -2.09806,-0.46251 z" />
      <path
         style="fill:#000000;fill-opacity:1;stroke:#806000;stroke-width:0.275696;stroke-linecap:round;stroke-linejoin:round;stroke-miterlimit:4;stroke-dasharray:none;stroke-opacity:1"
         d="m 45.042456,605.43762 c 0,0 1.37804,1.03227 1.37804,3.3073 0,2.27499 -1.37804,3.27984 -1.37804,3.27984 z m 3.30729,5.23655 c 2.27501,0 3.30729,1.37804 3.30729,1.37804 0,0 -1.03228,1.37803 -3.30729,1.37803 -2.27502,0 -3.27983,-1.37803 -3.27983,-1.37803 0,0 1.00481,-1.37804 3.27983,-1.37804 z m -3.30729,1.40549 c 0,0 1.37804,1.00481 1.37804,3.27984 0,3.04061 3.33844,10.0397 5.23654,11.93781 0,0 -1.88696,0.0622 -3.8978,-1.94866 -0.25378,-0.25378 -0.47444,-0.50569 -0.66265,-0.75307 -0.14415,2.61723 -2.05413,3.80953 -2.05413,3.80953 z"
         id="path7"
         inkscape:connector-curvature="0"
         sodipodi:nodetypes="csccscscscscsccc" />
      <path
         style="fill:#000000;fill-opacity:1;stroke:#806000;stroke-width:0.275696;stroke-linecap:round;stroke-linejoin:round;stroke-miterlimit:4;stroke-dasharray:none;stroke-opacity:1"
         d="m 45.042426,593.69864 c 0,0 1.90999,-1.19235 2.05414,-3.80958 0.18821,0.24738 0.40871,0.49914 0.66249,0.75292 2.01085,2.01087 3.89795,1.94872 3.89795,1.94872 -1.62125,-1.62125 -4.28673,-6.9573 -5.03173,-10.37611 h -1.58285 z"
         id="path8"
         inkscape:connector-curvature="0"
         sodipodi:nodetypes="ccscccc" />
      <path
         style="fill:#000000;fill-opacity:1;stroke:#806000;stroke-width:0.275696;stroke-linecap:round;stroke-linejoin:round;stroke-miterlimit:4;stroke-dasharray:none;stroke-opacity:1"
         d="m 56.014421,588.08438 c 0,0 -1.37804,1.03227 -1.37804,3.3073 0,2.27499 1.37804,3.27984 1.37804,3.27984 0,0 1.37804,-1.00485 1.37805,-3.27984 0,-2.27503 -1.37805,-3.3073 -1.37805,-3.3073 z m -3.30729,5.23655 c -2.27501,0 -3.30729,1.37804 -3.30729,1.37804 0,0 1.03228,1.37803 3.30729,1.37803 2.27502,0 3.27983,-1.37803 3.27983,-1.37803 0,0 -1.00481,-1.37804 -3.27983,-1.37804 z m 6.6146,0 c -2.27502,0 -3.27984,1.37804 -3.27984,1.37804 0,0 1.00482,1.37803 3.27984,1.37803 2.27502,0 3.30729,-1.37803 3.30729,-1.37803 0,0 -1.03227,-1.37804 -3.30729,-1.37804 z m -3.30731,1.40549 c 0,0 -1.37804,1.00481 -1.37804,3.27984 0,3.04061 -3.33844,10.0397 -5.23654,11.93781 0,0 1.88696,0.0622 3.8978,-1.94866 0.25378,-0.25378 0.47444,-0.50569 0.66265,-0.75307 0.14415,2.61723 2.05413,3.80953 2.05413,3.80953 0,0 1.90999,-1.1923 2.05414,-3.80953 0.18821,0.24738 0.40886,0.49929 0.66265,0.75307 2.01085,2.01087 3.89781,1.94866 3.89781,1.94866 -1.89811,-1.89811 -5.23655,-8.8972 -5.23655,-11.93781 0,-2.27503 -1.37805,-3.27984 -1.37805,-3.27984 z"
         id="path9"
         inkscape:connector-curvature="0"
         sodipodi:nodetypes="cscscscscsscscscscscccscsc" />
      <path
         style="fill:#000000;fill-opacity:1;stroke:#806000;stroke-width:0.275696;stroke-linecap:round;stroke-linejoin:round;stroke-miterlimit:4;stroke-dasharray:none;stroke-opacity:1"
         d="m 64.931986,589.88906 c -0.18821,0.24738 -0.40871,0.49914 -0.66249,0.75292 -2.01085,2.01087 -3.89795,1.94872 -3.89795,1.94872 1.62125,-1.62125 4.28673,-6.9573 5.03173,-10.37611 h 3.1657 c 0.745,3.41881 3.41048,8.75486 5.03173,10.37611 0,0 -1.8871,0.0621 -3.89795,-1.94872 -0.25378,-0.25378 -0.47428,-0.50554 -0.66249,-0.75292 -0.14415,2.61723 -2.05414,3.80958 -2.05414,3.80958 0,0 -1.90999,-1.19235 -2.05414,-3.80958 z"
         id="path11"
         inkscape:connector-curvature="0"
         sodipodi:nodetypes="csccccsccc" />
    </g>
  </g>
</svg>
