<?xml version="1.0" encoding="UTF-8" standalone="no"?>
<!-- Created with Inkscape (http://www.inkscape.org/) -->

<svg
   width="498.62103"
   height="563.23358"
   viewBox="0 0 131.9268 149.02223"
   version="1.1"
   id="svg8"
   inkscape:export-filename="C:\Users\厂永刄先生\Documents\VENCAQ1\新しいフォルダー\pièces II.png"
   inkscape:export-xdpi="96"
   inkscape:export-ydpi="96"
   inkscape:version="1.3 (0e150ed6c4, 2023-07-21)"
   sodipodi:docname="secondgrandson.svg"
   xmlns:inkscape="http://www.inkscape.org/namespaces/inkscape"
   xmlns:sodipodi="http://sodipodi.sourceforge.net/DTD/sodipodi-0.dtd"
   xmlns:xlink="http://www.w3.org/1999/xlink"
   xmlns="http://www.w3.org/2000/svg"
   xmlns:svg="http://www.w3.org/2000/svg"
   xmlns:rdf="http://www.w3.org/1999/02/22-rdf-syntax-ns#"
   xmlns:cc="http://creativecommons.org/ns#"
   xmlns:dc="http://purl.org/dc/elements/1.1/">
  <defs
     id="defs2">
    <linearGradient
       inkscape:collect="always"
       id="linearGradient24">
      <stop
         id="stop24"
         offset="0"
         style="stop-color:#0055ff;stop-opacity:1;" />
      <stop
         id="stop23"
         offset="1"
         style="stop-color:#0038a8;stop-opacity:1;" />
    </linearGradient>
    <linearGradient
       id="linearGradient20"
       inkscape:collect="always">
      <stop
         style="stop-color:#ff0000;stop-opacity:1;"
         offset="0"
         id="stop20" />
      <stop
         style="stop-color:#c00000;stop-opacity:1;"
         offset="1"
         id="stop21" />
    </linearGradient>
    <linearGradient
       inkscape:collect="always"
       id="linearGradient2507">
      <stop
         style="stop-color:#ffc000;stop-opacity:1"
         offset="0"
         id="stop2503" />
      <stop
         style="stop-color:#c09000;stop-opacity:1"
         offset="1"
         id="stop2505" />
    </linearGradient>
    <linearGradient
       id="linearGradient3235"
       inkscape:collect="always">
      <stop
         id="stop3231"
         offset="0"
         style="stop-color:#f0b400;stop-opacity:1" />
      <stop
         id="stop3233"
         offset="1"
         style="stop-color:#d09d00;stop-opacity:1" />
    </linearGradient>
    <linearGradient
       id="linearGradient3257"
       inkscape:collect="always">
      <stop
         style="stop-color:#c09000;stop-opacity:1"
         offset="0"
         id="stop3255" />
      <stop
         style="stop-color:#ffc000;stop-opacity:1"
         offset="1"
         id="stop3253" />
    </linearGradient>
    <linearGradient
       inkscape:collect="always"
       id="linearGradient3249">
      <stop
         id="stop3247"
         offset="0"
         style="stop-color:#d09d00;stop-opacity:1" />
      <stop
         id="stop3245"
         offset="1"
         style="stop-color:#f0b400;stop-opacity:1" />
    </linearGradient>
    <linearGradient
       inkscape:collect="always"
       xlink:href="#linearGradient2507"
       id="linearGradient16"
       gradientUnits="userSpaceOnUse"
       gradientTransform="rotate(45,-55.58869,160.56215)"
       x1="-50.297031"
       y1="160.56215"
       x2="-43.282944"
       y2="160.56215" />
    <linearGradient
       inkscape:collect="always"
       xlink:href="#linearGradient3235"
       id="linearGradient17"
       gradientUnits="userSpaceOnUse"
       gradientTransform="matrix(0.70710678,-0.70710678,-0.70710678,-0.70710678,97.253035,293.80626)"
       x1="-50.297031"
       y1="160.56215"
       x2="-43.282944"
       y2="160.56215" />
    <linearGradient
       inkscape:collect="always"
       xlink:href="#linearGradient3257"
       id="linearGradient18"
       gradientUnits="userSpaceOnUse"
       gradientTransform="rotate(-135,-13.857596,177.84773)"
       x1="-50.297031"
       y1="160.56215"
       x2="-43.282944"
       y2="160.56215" />
    <linearGradient
       inkscape:collect="always"
       xlink:href="#linearGradient3249"
       id="linearGradient19"
       gradientUnits="userSpaceOnUse"
       gradientTransform="matrix(-0.70710678,0.70710678,0.70710678,0.70710678,-149.41373,86.3347)"
       x1="-50.297031"
       y1="160.56215"
       x2="-43.282944"
       y2="160.56215" />
    <radialGradient
       inkscape:collect="always"
       xlink:href="#linearGradient24"
       id="radialGradient2"
       cx="-34.438687"
       cy="174.5271"
       fx="-34.438687"
       fy="174.5271"
       r="65.963404"
       gradientTransform="matrix(1,0,0,1.1297925,0,-22.652311)"
       gradientUnits="userSpaceOnUse" />
    <radialGradient
       inkscape:collect="always"
       xlink:href="#linearGradient20"
       id="radialGradient3"
       gradientUnits="userSpaceOnUse"
       gradientTransform="matrix(1,0,0,1.1297925,0,-22.652311)"
       cx="-34.438687"
       cy="174.5271"
       fx="-34.438687"
       fy="174.5271"
       r="65.963404" />
  </defs>
  <sodipodi:namedview
     id="base"
     pagecolor="#000000"
     bordercolor="#666666"
     borderopacity="1.0"
     inkscape:pageopacity="1"
     inkscape:pageshadow="2"
     inkscape:zoom="1.19107"
     inkscape:cx="262.36913"
     inkscape:cy="269.92536"
     inkscape:document-units="px"
     inkscape:current-layer="g1142"
     showgrid="false"
     units="px"
     fit-margin-top="10"
     fit-margin-left="10"
     fit-margin-right="10"
     fit-margin-bottom="10"
     inkscape:window-width="1920"
     inkscape:window-height="1057"
     inkscape:window-x="-8"
     inkscape:window-y="-8"
     inkscape:window-maximized="1"
     showguides="true"
     inkscape:guide-bbox="true"
     inkscape:snap-intersection-paths="true"
     inkscape:snap-smooth-nodes="true"
     inkscape:pagecheckerboard="false"
     inkscape:showpageshadow="0"
     inkscape:deskcolor="#505050" />
  <metadata
     id="metadata5">
    <rdf:RDF>
      <cc:Work
         rdf:about="">
        <dc:format>image/svg+xml</dc:format>
        <dc:type
           rdf:resource="http://purl.org/dc/dcmitype/StillImage" />
      </cc:Work>
    </rdf:RDF>
  </metadata>
  <g
     inkscape:label="レイヤー 1"
     inkscape:groupmode="layer"
     id="layer1"
     transform="translate(-44.910129,-582.0823)">
    <g
       transform="translate(547.99099,8e-5)"
       id="g1763" />
    <g
       id="g13346"
       style="stroke:#806000;stroke-width:0.264583;stroke-linecap:round;stroke-linejoin:round;stroke-miterlimit:4;stroke-dasharray:none;stroke-opacity:1"
       transform="translate(-129.12414,-148.84298)" />
    <g
       id="g1">
      <g
         id="g1142"
         transform="translate(145.31209,482.08017)"
         style="stroke-width:0.264583;stroke-dasharray:none">
        <path
           style="display:inline;fill:url(#radialGradient3);fill-opacity:1;stroke:#806000;stroke-width:0.264583px;stroke-linecap:butt;stroke-linejoin:miter;stroke-opacity:1"
           d="m -42.222092,227.22686 c 0,0 -5.355933,6.08635 -8.726778,5.17676 -3.370845,-0.90959 -5.256821,-9.43637 -5.256821,-9.43637 0,0 -5.927778,5.81748 -9.231339,4.63405 -3.303561,-1.18343 -4.349856,-9.80403 -4.349856,-9.80403 0,0 -7.90149,4.31774 -10.736844,1.98064 -2.835354,-2.3371 -0.107289,-11.12787 -0.107289,-11.12787 0,0 -8.677195,-0.0798 -9.987597,-3.50246 -1.310402,-3.42267 5.490448,-9.9973 5.490448,-9.9973 0,0 -7.758985,-3.74049 -7.827036,-7.24102 -0.06805,-3.50053 7.314565,-7.31457 7.314565,-7.31457 0,0 -7.314565,-3.86644 -7.314565,-7.31456 0,-3.44812 7.314565,-7.31457 7.314565,-7.31457 0,0 -7.314565,-3.86644 -7.314565,-7.31456 0,-3.44812 7.314565,-7.31457 7.314565,-7.31457 0,0 -7.314565,-3.86644 -7.314565,-7.31456 0,-3.44812 7.314565,-7.31457 7.314565,-7.31457 0,0 -7.314565,-3.86644 -7.314565,-7.31456 0,-3.44812 7.314565,-7.31457 7.314565,-7.31457 0,0 -7.493979,-4.07498 -7.314565,-7.31456 0.179414,-3.23958 4.07498,-7.13514 7.314565,-7.31457 3.239584,-0.17942 7.314565,7.31457 7.314565,7.31457 0,0 3.866435,-7.31457 7.314564,-7.31457 3.44813,0 7.314565,7.31457 7.314565,7.31457 0,0 3.866436,-7.31457 7.314565,-7.31457 3.44813,0 7.314565,7.31457 7.314565,7.31457 0,0 3.866436,-7.31457 7.314565,-7.31457 3.448129,0 7.314565,7.31457 7.314565,7.31457 0,0 3.866436,-7.31457 7.314565,-7.31457 3.448129,0 7.314565,7.31457 7.314565,7.31457 0,0 3.866435,-7.31457 7.314565,-7.31457 3.448129,0 7.3145646,7.31457 7.3145646,7.31457 0,0 3.8664354,-7.31457 7.3145654,-7.31457 3.448129,0 7.314564,7.31457 7.314564,7.31457 0,0 4.074981,-7.49399 7.314565,-7.31457 3.239585,0.17943 7.135151,4.07499 7.314565,7.31457 0.179414,3.23958 -7.314565,7.31456 -7.314565,7.31456 0,0 7.314565,3.86645 7.314565,7.31457 0,3.44812 -7.314565,7.31456 -7.314565,7.31456 0,0 7.314565,3.86645 7.314565,7.31457 0,3.44812 -7.314565,7.31456 -7.314565,7.31456 0,0 7.314565,3.86645 7.314565,7.31457 0,3.44812 -7.314565,7.31456 -7.314565,7.31456 0,0 7.314565,3.86645 7.314565,7.31457 0,3.44812 -7.314565,7.31456 -7.314565,7.31456 0,0 7.382616,3.81404 7.314565,7.31457 -0.06805,3.50053 -7.827063,7.24102 -7.827063,7.24102 0,0 6.800877,6.57463 5.490475,9.9973 -1.310402,3.42266 -9.987597,3.50246 -9.987597,3.50246 0,0 2.728118,8.79076 -0.107236,11.12787 -2.835354,2.33712 -10.736924,-1.98064 -10.736924,-1.98064 0,0 -1.046268,8.62059 -4.349829,9.80403 -3.3035612,1.18343 -9.231339,-4.63405 -9.231339,-4.63405 0,0 -1.885976,8.52678 -5.256821,9.43637 -3.370845,0.90959 -8.726778,-5.17676 -8.726778,-5.17676 0,0 -3.447971,10.42033 -7.783407,10.42033 -4.335436,0 -7.783407,-10.42033 -7.783407,-10.42033 z"
           id="path2"
           inkscape:connector-curvature="0"
           sodipodi:nodetypes="czczczczczczczczczczzczczczczczczczzczczczczczczczczczczc" />
        <path
           style="display:inline;fill:url(#radialGradient2);fill-opacity:1;stroke:#806000;stroke-width:0.264583px;stroke-linecap:butt;stroke-linejoin:miter;stroke-opacity:1"
           d="m -42.222092,227.22686 c 0,0 -5.355933,6.08635 -8.726778,5.17676 -3.370845,-0.90959 -5.256821,-9.43637 -5.256821,-9.43637 0,0 -5.927778,5.81748 -9.231339,4.63405 -3.303561,-1.18343 -4.349856,-9.80403 -4.349856,-9.80403 0,0 -7.90149,4.31774 -10.736844,1.98064 -2.835354,-2.3371 -0.107289,-11.12787 -0.107289,-11.12787 0,0 -8.677195,-0.0798 -9.987597,-3.50246 -1.310402,-3.42267 5.490448,-9.9973 5.490448,-9.9973 0,0 -7.758985,-3.74049 -7.827036,-7.24102 -0.06805,-3.50053 7.314565,-7.31457 7.314565,-7.31457 0,0 -7.314565,-3.86644 -7.314565,-7.31456 0,-3.44812 7.314565,-7.31457 7.314565,-7.31457 0,0 -7.314565,-3.86644 -7.314565,-7.31456 0,-3.44812 7.314565,-7.31457 7.314565,-7.31457 0,0 -7.314565,-3.86644 -7.314565,-7.31456 0,-3.44812 7.314565,-7.31457 7.314565,-7.31457 0,0 -7.314565,-3.86644 -7.314565,-7.31456 0,-3.44812 7.314565,-7.31457 7.314565,-7.31457 0,0 -7.493979,-4.07498 -7.314565,-7.31456 0.179414,-3.23958 4.07498,-7.13514 7.314565,-7.31457 3.239584,-0.17942 7.314565,7.31457 7.314565,7.31457 0,0 3.866435,-7.31457 7.314564,-7.31457 3.44813,0 7.314565,7.31457 7.314565,7.31457 0,0 3.866436,-7.31457 7.314565,-7.31457 3.44813,0 7.314565,7.31457 7.314565,7.31457 0,0 3.866436,-7.31457 7.314565,-7.31457 3.448129,0 7.314565,7.31457 7.314565,7.31457 0,0 3.866436,-7.31457 7.314565,-7.31457 3.448129,0 7.314565,7.31457 7.314565,7.31457 0,0 3.866435,-7.31457 7.314565,-7.31457 3.448129,0 7.3145646,7.31457 7.3145646,7.31457 0,0 3.8664354,-7.31457 7.3145654,-7.31457 3.448129,0 7.314564,7.31457 7.314564,7.31457 0,0 4.074981,-7.49399 7.314565,-7.31457 3.239585,0.17943 7.135151,4.07499 7.314565,7.31457 0.179414,3.23958 -7.314565,7.31456 -7.314565,7.31456 0,0 7.314565,3.86645 7.314565,7.31457 0,3.44812 -7.314565,7.31456 -7.314565,7.31456 0,0 7.314565,3.86645 7.314565,7.31457 0,3.44812 -7.314565,7.31456 -7.314565,7.31456 0,0 7.314565,3.86645 7.314565,7.31457 0,3.44812 -7.314565,7.31456 -7.314565,7.31456 0,0 7.314565,3.86645 7.314565,7.31457 0,3.44812 -7.314565,7.31456 -7.314565,7.31456 0,0 7.382616,3.81404 7.314565,7.31457 -0.06805,3.50053 -7.827063,7.24102 -7.827063,7.24102 0,0 6.800877,6.57463 5.490475,9.9973 -1.310402,3.42266 -9.987597,3.50246 -9.987597,3.50246 0,0 2.728118,8.79076 -0.107236,11.12787 -2.835354,2.33712 -10.736924,-1.98064 -10.736924,-1.98064 0,0 -1.046268,8.62059 -4.349829,9.80403 -3.3035612,1.18343 -9.231339,-4.63405 -9.231339,-4.63405 0,0 -1.885976,8.52678 -5.256821,9.43637 -3.370845,0.90959 -8.726778,-5.17676 -8.726778,-5.17676 0,0 -3.447971,10.42033 -7.783407,10.42033 -4.335436,0 -7.783407,-10.42033 -7.783407,-10.42033 z m 48.254338,6.25563 c 14.565259,-5.14866 25.36018,-14.97599 25.36018,-30.96895 V 100.13443 H -100.2698 v 102.37911 c 0,15.99296 10.794925,25.82029 25.360184,30.96895 11.74152,4.1505 26.84817,6.14794 40.470931,15.4096 13.622761,-9.26166 28.7294104,-11.2591 40.470931,-15.4096 z"
           id="path10668"
           inkscape:connector-curvature="0"
           sodipodi:nodetypes="czczczczczczczczczczzczczczczczczczzczczczczczczczczczczcssccsscs" />
        <g
           transform="matrix(0.80954132,0,0,0.80954132,-13.325433,15.677431)"
           style="stroke:#806000;stroke-width:0.32683116;stroke-dasharray:none;stroke-opacity:1"
           id="g16">
          <path
             sodipodi:nodetypes="ccccc"
             inkscape:connector-curvature="0"
             id="path13"
             d="m -84.909957,190.07049 24.512335,-1e-5 34.317274,-34.31728 -3e-6,-24.51232 z"
             style="fill:url(#linearGradient16);fill-opacity:1;stroke:#806000;stroke-width:0.32683116;stroke-linecap:butt;stroke-linejoin:miter;stroke-dasharray:none;stroke-opacity:1" />
          <path
             style="fill:url(#linearGradient17);fill-opacity:1;stroke:#806000;stroke-width:0.32683116;stroke-linecap:butt;stroke-linejoin:miter;stroke-dasharray:none;stroke-opacity:1"
             d="m -84.909957,190.07047 24.512335,1e-5 34.317274,34.31728 -3e-6,24.51232 z"
             id="path14"
             inkscape:connector-curvature="0"
             sodipodi:nodetypes="ccccc" />
          <path
             style="fill:url(#linearGradient18);fill-opacity:1;stroke:#806000;stroke-width:0.32683116;stroke-linecap:butt;stroke-linejoin:miter;stroke-dasharray:none;stroke-opacity:1"
             d="m 32.749261,190.07047 -24.512335,1e-5 -34.317274,34.31728 3e-6,24.51232 z"
             id="path15"
             inkscape:connector-curvature="0"
             sodipodi:nodetypes="ccccc" />
          <path
             sodipodi:nodetypes="ccccc"
             inkscape:connector-curvature="0"
             id="path16"
             d="m 32.749261,190.07049 -24.512335,-1e-5 -34.317274,-34.31728 3e-6,-24.51232 z"
             style="fill:url(#linearGradient19);fill-opacity:1;stroke:#806000;stroke-width:0.32683116;stroke-linecap:butt;stroke-linejoin:miter;stroke-dasharray:none;stroke-opacity:1" />
        </g>
      </g>
    </g>
  </g>
</svg>
