<?xml version="1.0" encoding="UTF-8" standalone="no"?>
<!-- Created with Inkscape (http://www.inkscape.org/) -->

<svg
   width="1863.3495"
   height="1863.3495"
   viewBox="0 0 493.01121 493.01121"
   version="1.1"
   id="svg8"
   inkscape:version="1.3 (0e150ed6c4, 2023-07-21)"
   sodipodi:docname="building-off.svg"
   inkscape:export-filename="C:\Users\drk22\Documents\DOUXLU - PJOUX1SE\A93-a.png"
   inkscape:export-xdpi="96"
   inkscape:export-ydpi="96"
   xml:space="preserve"
   xmlns:inkscape="http://www.inkscape.org/namespaces/inkscape"
   xmlns:sodipodi="http://sodipodi.sourceforge.net/DTD/sodipodi-0.dtd"
   xmlns="http://www.w3.org/2000/svg"
   xmlns:svg="http://www.w3.org/2000/svg"
   xmlns:rdf="http://www.w3.org/1999/02/22-rdf-syntax-ns#"
   xmlns:cc="http://creativecommons.org/ns#"
   xmlns:dc="http://purl.org/dc/elements/1.1/"><defs
     id="defs2"><clipPath
       clipPathUnits="userSpaceOnUse"
       id="clipPath78"><path
         inkscape:connector-curvature="0"
         id="path78"
         d="m 772.70427,1246.5951 h -157.0763 c -0.003,3.4617 1.06505,6.9244 3.20019,9.0595 l 144.82457,144.8245 c 2.1351,2.1351 5.5978,3.2018 9.0595,3.2002 z"
         style="fill:#000000;fill-opacity:1;fill-rule:nonzero;stroke:none;stroke-width:0.366342;stroke-linecap:round;stroke-linejoin:round;stroke-miterlimit:4;stroke-dasharray:none;stroke-dashoffset:0;stroke-opacity:1;paint-order:markers fill stroke"
         sodipodi:nodetypes="ccsscc" /></clipPath></defs><sodipodi:namedview
     id="base"
     pagecolor="#ffffff"
     bordercolor="#666666"
     borderopacity="1.0"
     inkscape:pageopacity="0.0"
     inkscape:pageshadow="2"
     inkscape:zoom="0.43829837"
     inkscape:cx="865.84853"
     inkscape:cy="1002.7416"
     inkscape:document-units="px"
     inkscape:current-layer="layer1"
     showgrid="false"
     inkscape:snap-smooth-nodes="true"
     inkscape:pagecheckerboard="true"
     fit-margin-top="0"
     fit-margin-left="0"
     fit-margin-right="0"
     fit-margin-bottom="0"
     inkscape:snap-intersection-paths="true"
     inkscape:object-nodes="true"
     inkscape:window-width="1920"
     inkscape:window-height="1057"
     inkscape:window-x="-8"
     inkscape:window-y="-8"
     inkscape:window-maximized="1"
     showguides="false"
     inkscape:object-paths="false"
     inkscape:showpageshadow="0"
     inkscape:deskcolor="#505050"
     inkscape:lockguides="true" /><metadata
     id="metadata5"><rdf:RDF><cc:Work
         rdf:about=""><dc:format>image/svg+xml</dc:format><dc:type
           rdf:resource="http://purl.org/dc/dcmitype/StillImage" /></cc:Work></rdf:RDF></metadata><g
     inkscape:label="レイヤー 1"
     inkscape:groupmode="layer"
     id="layer1"
     transform="translate(-479.4165,95.047164)"><g
       id="g10"
       style="stroke:#ece3c6;stroke-width:6.61458;stroke-dasharray:none;stroke-opacity:0.33000004;fill:none"><path
         sodipodi:nodetypes="cssssc"
         style="fill:none;fill-opacity:1;fill-rule:nonzero;stroke:#ece3c6;stroke-width:6.61458;stroke-linecap:round;stroke-linejoin:round;stroke-miterlimit:4;stroke-dasharray:none;stroke-dashoffset:0;stroke-opacity:0.33000004;paint-order:markers fill stroke"
         d="M 725.92212,-16.921358 884.94749,142.10401 c 4.40973,4.40972 4.40973,14.29915 10e-6,18.70887 L 735.27655,310.48382 c -4.40972,4.40973 -14.29914,4.40973 -18.70887,0 L 557.54231,151.45845"
         id="path937"
         inkscape:connector-curvature="0" /><g
         transform="translate(2.5282435,-374.95221)"
         id="g927"
         style="stroke:#ece3c6;stroke-width:6.61458;stroke-dasharray:none;stroke-opacity:0.33000004;fill:none"><path
           style="fill:none;stroke:#ece3c6;stroke-width:6.61458;stroke-linecap:round;stroke-linejoin:round;stroke-miterlimit:4;stroke-dasharray:none;stroke-opacity:0.33"
           d="m 789.07838,592.97182 c 0,0 -18.1656,-20.94314 -19.96877,-33.94691 -1.32311,-9.54176 7.32187,-27.95627 7.32187,-27.95627 0,0 -20.51833,13.37566 -25.29377,23.96251 -5.20332,11.53543 -1.33125,37.94067 -1.33125,37.94067 m -42.60001,-99.84383 c 0,0 21.62673,6.93049 31.95003,3.99376 8.49888,-2.41773 20.63435,-16.64065 20.63435,-16.64065 0,0 -8.0408,16.87918 -15.62433,21.4142 -9.21147,5.50853 -31.89502,4.4116 -31.89502,4.4116 l -23.35074,-60.75725 m 32.4243,-8.7023 c -12.44159,-3.33372 -24.40231,-1.03148 -34.39872,3.56501 -9.99641,4.5965 -19.70684,11.0062 -24.39883,21.62479 0,0 7.06902,-7.82474 26.37325,-16.4875 19.30423,-8.66276 32.4243,-8.7023 32.4243,-8.7023 z m 17.72909,29.80961 c 0,-6.77351 5.49102,-12.26452 12.26452,-12.26452 6.77351,0 12.26451,5.49102 12.26451,12.26452 0,6.7735 -5.491,12.26452 -12.26451,12.26452 -6.7735,0 -12.26452,-5.49101 -12.26452,-12.26452 z m 20.71672,13.82414 c 0,0 9.92694,13.50363 12.64688,21.30001 3.24554,9.30297 3.99375,29.28753 3.99375,29.28753"
           id="path1045"
           inkscape:connector-curvature="0"
           sodipodi:nodetypes="cacaccacaccczczczzzzzcac" /><path
           style="fill:none;fill-opacity:1;stroke:#ece3c6;stroke-width:6.61458;stroke-linecap:round;stroke-linejoin:round;stroke-miterlimit:4;stroke-dasharray:none;stroke-opacity:0.33"
           d="m 712.4899,600.9094 c 0,0 -2.78732,-34.97813 -12.90569,-48.16464 -5.29123,-6.89566 -13.89015,-13.03769 -22.58195,-13.03769 -8.6918,0 -17.29072,6.14203 -22.58195,13.03769 -10.11837,13.18651 -12.90569,48.16464 -12.90569,48.16464 l 163.75851,2e-5"
           id="path1095"
           inkscape:connector-curvature="0"
           sodipodi:nodetypes="cssscc" /></g><path
         inkscape:connector-curvature="0"
         id="path7"
         d="M 923.59414,151.45845 735.26324,-36.872439 c -4.40344,-4.40344 -14.27878,-4.403447 -18.68223,0 L 537.59123,142.11734 c -4.40345,4.40344 -4.40345,14.27878 0,18.68223 l 187.12914,187.12914"
         style="fill:none;fill-opacity:1;fill-rule:nonzero;stroke:#ece3c6;stroke-width:6.61458;stroke-linecap:round;stroke-linejoin:round;stroke-miterlimit:4;stroke-dasharray:none;stroke-dashoffset:0;stroke-opacity:0.33000004;paint-order:markers fill stroke"
         sodipodi:nodetypes="cssssc" /></g><g
       transform="rotate(180,123.40923,112.73661)"
       id="g838"><g
         id="g836"
         transform="rotate(-90,93.738093,75.127977)" /></g></g></svg>
