<?xml version="1.0" encoding="UTF-8" standalone="no"?>
<svg
   xml:space="preserve"
   width="528.45581"
   height="528.45587"
   viewBox="0 0 528.45581 528.45587"
   version="1.1"
   id="svg341"
   sodipodi:docname="logo pixiv.svg"
   inkscape:version="1.3 (0e150ed6c4, 2023-07-21)"
   xmlns:inkscape="http://www.inkscape.org/namespaces/inkscape"
   xmlns:sodipodi="http://sodipodi.sourceforge.net/DTD/sodipodi-0.dtd"
   xmlns="http://www.w3.org/2000/svg"
   xmlns:svg="http://www.w3.org/2000/svg"><defs
     id="defs341">&#10;&#10;&#10;&#10;&#10;&#10;&#10;&#10;&#10;&#10;&#10;&#10;&#10;&#10;&#10;&#10;&#10;&#10;&#10;&#10;&#10;&#10;&#10;&#10;&#10;&#10;&#10;&#10;&#10;&#10;&#10;&#10;&#10;&#10;&#10;&#10;&#10;&#10;&#10;&#10;&#10;&#10;&#10;&#10;&#10;&#10;&#10;&#10;&#10;&#10;&#10;&#10;&#10;&#10;&#10;&#10;&#10;&#10;&#10;&#10;&#10;&#10;&#10;&#10;&#10;&#10;&#10;&#10;&#10;&#10;&#10;&#10;&#10;&#10;&#10;&#10;&#10;&#10;&#10;&#10;&#10;&#10;&#10;&#10;&#10;&#10;&#10;&#10;&#10;&#10;&#10;&#10;&#10;&#10;&#10;&#10;&#10;&#10;&#10;&#10;&#10;&#10;&#10;&#10;&#10;&#10;&#10;&#10;&#10;&#10;&#10;&#10;&#10;&#10;&#10;&#10;&#10;&#10;&#10;&#10;&#10;&#10;&#10;&#10;&#10;&#10;&#10;&#10;&#10;&#10;&#10;&#10;&#10;&#10;&#10;&#10;&#10;&#10;&#10;&#10;&#10;&#10;&#10;&#10;&#10;&#10;&#10;&#10;&#10;&#10;&#10;&#10;&#10;&#10;&#10;&#10;&#10;&#10;&#10;&#10;&#10;&#10;&#10;&#10;&#10;&#10;&#10;&#10;&#10;&#10;&#10;&#10;&#10;&#10;&#10;&#10;&#10;&#10;&#10;&#10;&#10;&#10;&#10;&#10;&#10;&#10;&#10;&#10;&#10;&#10;&#10;&#10;&#10;&#10;&#10;&#10;&#10;&#10;&#10;&#10;&#10;&#10;&#10;&#10;&#10;&#10;&#10;&#10;&#10;&#10;&#10;&#10;&#10;&#10;&#10;&#10;&#10;&#10;&#10;&#10;&#10;&#10;&#10;&#10;&#10;&#10;&#10;&#10;&#10;&#10;&#10;&#10;&#10;&#10;&#10;&#10;&#10;&#10;&#10;&#10;&#10;&#10;&#10;&#10;&#10;&#10;&#10;&#10;&#10;&#10;&#10;&#10;&#10;&#10;&#10;&#10;&#10;&#10;&#10;&#10;&#10;&#10;&#10;&#10;&#10;&#10;&#10;&#10;&#10;&#10;&#10;&#10;&#10;&#10;&#10;&#10;&#10;&#10;&#10;&#10;&#10;&#10;&#10;&#10;&#10;&#10;&#10;&#10;&#10;&#10;&#10;&#10;&#10;&#10;&#10;&#10;&#10;&#10;&#10;&#10;&#10;&#10;&#10;&#10;&#10;&#10;&#10;&#10;&#10;&#10;&#10;&#10;&#10;&#10;&#10;&#10;&#10;&#10;&#10;&#10;&#10;&#10;&#10;&#10;&#10;&#10;&#10;&#10;&#10;&#10;&#10;&#10;&#10;&#10;&#10;<filter
   inkscape:collect="always"
   style="color-interpolation-filters:sRGB"
   id="filter1"
   x="-0.069555466"
   y="-0.069555458"
   width="1.1391109"
   height="1.1391109"><feGaussianBlur
     inkscape:collect="always"
     stdDeviation="9.2783915"
     id="feGaussianBlur1" /></filter><filter
   inkscape:collect="always"
   style="color-interpolation-filters:sRGB"
   id="filter2"
   x="-0.033555463"
   y="-0.033555459"
   width="1.0671109"
   height="1.0671109"><feGaussianBlur
     inkscape:collect="always"
     stdDeviation="2.3195979"
     id="feGaussianBlur2" /></filter></defs><sodipodi:namedview
     id="namedview341"
     pagecolor="#505050"
     bordercolor="#eeeeee"
     borderopacity="1"
     inkscape:showpageshadow="0"
     inkscape:pageopacity="0"
     inkscape:pagecheckerboard="0"
     inkscape:deskcolor="#505050"
     inkscape:zoom="1.0265152"
     inkscape:cx="243.05534"
     inkscape:cy="232.33948"
     inkscape:window-width="1920"
     inkscape:window-height="1009"
     inkscape:window-x="-8"
     inkscape:window-y="-8"
     inkscape:window-maximized="1"
     inkscape:current-layer="g427" /><g
     id="g429"
     style="fill:none;stroke:#cceaff;stroke-opacity:0.33"
     transform="translate(-393.73186,-345.73185)"><g
       id="g428"
       style="fill:none;stroke:#cceaff;stroke-width:10;stroke-dasharray:none;stroke-opacity:0.33"><g
         id="g427"
         style="fill:none;stroke:#cceaff;stroke-width:10;stroke-dasharray:none;stroke-opacity:0.33"><path
           id="path1"
           style="fill:none;fill-opacity:1;stroke:#33abff;stroke-width:20;stroke-linecap:round;stroke-linejoin:round;stroke-dasharray:none;stroke-opacity:1;paint-order:markers stroke fill;filter:url(#filter2)"
           d="M 855.40173,841.91959 H 460.51782 C 441.45416,841.91959 426,826.46544 426,807.40177 V 412.51782 c 0,-19.06367 15.45415,-34.51783 34.51782,-34.51783 h 394.88391 c 19.06367,0 34.51782,15.45416 34.51782,34.51783 m -53.30867,173.40475 c -0.0169,-37.66622 -16.1716,-72.2076 -44.08632,-96.38073 -27.95553,-24.20843 -67.02194,-38.23071 -112.46573,-38.22901 -118.4525,0.002 -199.01001,90.80934 -199.01001,90.80934 l 22.69477,35.78797 m 44.84186,-62.05254 v 238.3858 c -9.46315,2.64875 -21.97244,7.6332 -13.44832,16.1031 h 65.22503 m 2.75604,-5.21907 c 0.0674,-5.4904 -9.55208,-9.01767 -15.96962,-10.88403 m 0,-56.23737 c 0,0 44.70937,17.43349 92.91025,17.43349 m -3.97913,-22.24335 c 33.24161,0.002 62.10516,-12.22712 81.88198,-31.70349 19.858,-19.55638 31.06236,-45.15761 31.0744,-76.18415 0.0121,-31.84509 -10.46464,-59.28388 -29.58155,-79.86525 -19.07315,-20.53431 -47.37616,-33.98683 -83.37483,-34.03617"
           sodipodi:nodetypes="csssssccsscccccccccccsssc" /><path
           id="path2"
           style="fill:none;fill-opacity:1;stroke:#33abff;stroke-width:20;stroke-linecap:round;stroke-linejoin:round;stroke-dasharray:none;stroke-opacity:1;paint-order:markers stroke fill;filter:url(#filter1)"
           d="M 855.40173,841.91959 H 460.51782 C 441.45416,841.91959 426,826.46544 426,807.40177 V 412.51782 c 0,-19.06367 15.45415,-34.51783 34.51782,-34.51783 h 394.88391 c 19.06367,0 34.51782,15.45416 34.51782,34.51783 m -53.30867,173.40475 c -0.0169,-37.66622 -16.1716,-72.2076 -44.08632,-96.38073 -27.95553,-24.20843 -67.02194,-38.23071 -112.46573,-38.22901 -118.4525,0.002 -199.01001,90.80934 -199.01001,90.80934 l 22.69477,35.78797 m 44.84186,-62.05254 v 238.3858 c -9.46315,2.64875 -21.97244,7.6332 -13.44832,16.1031 h 65.22503 m 2.75604,-5.21907 c 0.0674,-5.4904 -9.55208,-9.01767 -15.96962,-10.88403 m 0,-56.23737 c 0,0 44.70937,17.43349 92.91025,17.43349 m -3.97913,-22.24335 c 33.24161,0.002 62.10516,-12.22712 81.88198,-31.70349 19.858,-19.55638 31.06236,-45.15761 31.0744,-76.18415 0.0121,-31.84509 -10.46464,-59.28388 -29.58155,-79.86525 -19.07315,-20.53431 -47.37616,-33.98683 -83.37483,-34.03617"
           sodipodi:nodetypes="csssssccsscccccccccccsssc" /><path
           id="circle4-5"
           style="fill:none;fill-opacity:1;stroke:#cceaff;stroke-width:9.99999;stroke-linecap:round;stroke-linejoin:round;stroke-dasharray:none;stroke-opacity:1;paint-order:markers stroke fill"
           d="M 855.40173,841.91959 H 460.51782 C 441.45416,841.91959 426,826.46544 426,807.40177 V 412.51782 c 0,-19.06367 15.45415,-34.51783 34.51782,-34.51783 h 394.88391 c 19.06367,0 34.51782,15.45416 34.51782,34.51783 m -53.30867,173.40475 c -0.0169,-37.66622 -16.1716,-72.2076 -44.08632,-96.38073 -27.95553,-24.20843 -67.02194,-38.23071 -112.46573,-38.22901 -118.4525,0.002 -199.01001,90.80934 -199.01001,90.80934 l 22.69477,35.78797 m 44.84186,-62.05254 v 238.3858 c -9.46315,2.64875 -21.97244,7.6332 -13.44832,16.1031 h 65.22503 m 2.75604,-5.21907 c 0.0674,-5.4904 -9.55208,-9.01767 -15.96962,-10.88403 m 0,-56.23737 c 0,0 44.70937,17.43349 92.91025,17.43349 m -3.97913,-22.24335 c 33.24161,0.002 62.10516,-12.22712 81.88198,-31.70349 19.858,-19.55638 31.06236,-45.15761 31.0744,-76.18415 0.0121,-31.84509 -10.46464,-59.28388 -29.58155,-79.86525 -19.07315,-20.53431 -47.37616,-33.98683 -83.37483,-34.03617"
           sodipodi:nodetypes="csssssccsscccccccccccsssc" /></g></g></g></svg>
