<?xml version="1.0" encoding="UTF-8" standalone="no"?>
<!-- Created with Inkscape (http://www.inkscape.org/) -->

<svg
   xmlns:dc="http://purl.org/dc/elements/1.1/"
   xmlns:cc="http://creativecommons.org/ns#"
   xmlns:rdf="http://www.w3.org/1999/02/22-rdf-syntax-ns#"
   xmlns:svg="http://www.w3.org/2000/svg"
   xmlns="http://www.w3.org/2000/svg"
   xmlns:sodipodi="http://sodipodi.sourceforge.net/DTD/sodipodi-0.dtd"
   xmlns:inkscape="http://www.inkscape.org/namespaces/inkscape"
   width="139.48799mm"
   height="220.61526mm"
   viewBox="0 0 139.48799 220.61526"
   version="1.1"
   id="svg8"
   inkscape:version="0.92.4 (5da689c313, 2019-01-14)"
   sodipodi:docname="poussin.svg">
  <defs
     id="defs2" />
  <sodipodi:namedview
     id="base"
     pagecolor="#ffffff"
     bordercolor="#666666"
     borderopacity="1.0"
     inkscape:pageopacity="0.0"
     inkscape:pageshadow="2"
     inkscape:zoom="0.86058175"
     inkscape:cx="23.270817"
     inkscape:cy="415.22146"
     inkscape:document-units="mm"
     inkscape:current-layer="layer1"
     showgrid="false"
     inkscape:snap-smooth-nodes="true"
     inkscape:object-paths="false"
     fit-margin-top="0"
     fit-margin-left="0"
     fit-margin-right="0"
     fit-margin-bottom="0"
     inkscape:window-width="1920"
     inkscape:window-height="1051"
     inkscape:window-x="-9"
     inkscape:window-y="-9"
     inkscape:window-maximized="1" />
  <metadata
     id="metadata5">
    <rdf:RDF>
      <cc:Work
         rdf:about="">
        <dc:format>image/svg+xml</dc:format>
        <dc:type
           rdf:resource="http://purl.org/dc/dcmitype/StillImage" />
        <dc:title />
      </cc:Work>
    </rdf:RDF>
  </metadata>
  <g
     inkscape:label="レイヤー 1"
     inkscape:groupmode="layer"
     id="layer1"
     transform="translate(113.13189,-44.553451)">
    <g
       id="g842">
      <path
         sodipodi:nodetypes="csssssssscscsssssssssscc"
         inkscape:connector-curvature="0"
         id="path842"
         d="m -14.130864,217.43237 c 0,0 2.903491,6.93113 3.531665,10.60303 0.7397899,4.32433 0.7543777,8.92718 0.228323,13.15948 -0.480111,3.86267 -0.931153,8.00606 -5.039908,10.53354 -3.161773,1.94494 -7.325068,1.30145 -11.029663,1.53723 -3.375307,0.21482 -6.691241,0.14552 -10.145752,-0.11529 -0.911347,-0.0688 -1.980445,0.58354 -2.344285,1.42194 -0.323061,0.74443 -0.08393,1.81876 0.499602,2.38272 1.019182,0.985 2.783653,0.91472 4.188965,0.73018 1.268219,-0.16654 3.804658,-0.4996 3.804658,-0.4996 4.433547,-1.86432 9.773118,-1.22053 13.988841,-3.53564 2.224049,-1.22136 4.580453,-2.87527 5.534047,-5.2266 -0.953594,2.35133 -3.309998,4.00524 -5.534047,5.2266 -4.215723,2.31511 -9.555294,1.67132 -13.988841,3.53564 -1.992846,0.838 -4.645124,1.41126 -5.534046,3.38192 -0.735403,1.63032 1.489083,3.6246 2.940995,3.09312 4.444842,-1.62706 13.976071,-4.2139 21.193598,-4.9378 3.5194682,-0.35299 7.1143531,-0.25222 10.6069238,0.30744 4.3371528,0.69499 8.1239374,3.55457 12.6317042,3.75304 1.932024,0.0851 1.815525,-3.09083 0.68129,-3.57294 -4.296646,-1.8263 -9.9679669,-3.28588 -12.23692953,-8.02 -3.04308697,-6.3493 -2.88373227,-12.35957 -3.13654497,-18.66262 -0.2403114,-5.99137 1.5510853,-17.92157 1.5510853,-17.92157 z"
         style="fill:#ff5601;fill-opacity:1;stroke:#806000;stroke-width:0.26458332px;stroke-linecap:butt;stroke-linejoin:miter;stroke-opacity:1" />
      <path
         style="fill:#ff5601;fill-opacity:1;stroke:#806000;stroke-width:0.26458332px;stroke-linecap:butt;stroke-linejoin:miter;stroke-opacity:1"
         d="m -74.803147,250.12853 c -4.650519,1.11942 -9.555294,1.67132 -13.988841,3.53564 -1.992846,0.838 -4.645124,1.41126 -5.534046,3.38192 -0.735403,1.63032 1.489083,3.6246 2.940995,3.09312 4.444842,-1.62706 13.976071,-4.2139 21.193598,-4.9378 3.519468,-0.35299 7.114353,-0.25222 10.606924,0.30744 4.337153,0.69499 8.123937,3.55457 12.631704,3.75304 1.932024,0.0851 1.815525,-3.09083 0.68129,-3.57294 -4.296646,-1.8263 -10.559799,-3.04533 -12.236929,-8.02 -1.847397,-5.47971 3.32419,-13.35939 7.407253,-18.66262 4.387397,-5.69851 13.50797,-14.11711 13.50797,-14.11711 l -17.813609,-2.8918 c 0,0 -2.322496,8.43366 -3.872884,12.51655 -1.709816,4.50274 -3.438222,9.0606 -5.967517,13.15948 -2.371315,3.84286 -4.409519,8.00606 -8.518274,10.53354 -3.161773,1.94494 -7.325068,1.30145 -11.029663,1.53723 -3.375307,0.21482 -6.691241,0.14552 -10.145752,-0.11529 -0.911347,-0.0688 -1.980445,0.58354 -2.344285,1.42194 -0.323061,0.74443 -0.08393,1.81876 0.499602,2.38272 1.019182,0.985 2.783653,0.91472 4.188965,0.73018 1.268219,-0.16654 3.804658,-0.4996 3.804658,-0.4996 4.433547,-1.86432 9.338322,-2.41622 13.988841,-3.53564 2.466884,-0.5938 4.849237,-2.79523 6.889821,-4.92916 -2.040584,2.13393 -4.422937,4.33536 -6.889821,4.92916 z"
         id="path865"
         inkscape:connector-curvature="0"
         sodipodi:nodetypes="ssssssssssccaasssssscscs" />
      <path
         style="fill:#ffc701;fill-opacity:1;stroke:#806000;stroke-width:0.26458332px;stroke-linecap:butt;stroke-linejoin:miter;stroke-opacity:1"
         d="m -91.30712,159.82192 c 8.52126,11.78472 7.34977,18.85612 12.964803,27.17474 6.32714,9.3736 13.271805,19.12619 22.935479,25.00076 5.933308,3.60687 13.167071,5.29703 20.109306,5.43495 4.235791,0.0842 8.933862,-0.37822 12.391681,-2.82618"
         id="path838"
         inkscape:connector-curvature="0"
         sodipodi:nodetypes="caaac" />
      <path
         sodipodi:nodetypes="caaaaasssaaaaaaaaac"
         inkscape:connector-curvature="0"
         id="path826"
         d="m -23.365977,97.466855 c 0,0 -3.975517,-24.338246 -10.453199,-34.434073 -4.508637,-7.026961 -10.928201,-13.693776 -18.754273,-16.602141 -7.397504,-2.749098 -16.109422,-1.943445 -23.673421,0.307449 -6.049446,1.800194 -11.804721,5.418919 -15.987249,10.145752 -3.007365,3.398737 -5.191184,7.806473 -5.841492,12.297883 -1.04058,7.186857 0.319761,14.936697 3.381915,21.521295 1.427349,3.06925 2.716318,7.172903 1.875582,10.69245 -1.358233,5.68592 -9.263166,19.71366 -8.924106,30.16472 0.32562,10.03695 4.550902,20.12401 10.4351,28.26173 8.521261,11.78472 23.065886,17.73841 34.131471,27.17474 9.406238,8.0213 16.77009,18.67694 27.392136,25.00076 4.74575,2.82538 10.137871,5.13143 15.652649,5.43495 4.2302247,0.23282 8.9338614,-0.37822 12.3916808,-2.82618 7.2035287,-5.09972 8.6819076,-15.44886 14.1308642,-22.39198 3.606957,-4.59602 10.095516,-7.14902 12.174282,-12.60908 3.199803,-8.40457 1.1665,-18.25117 -1.086989,-26.95734 C 20.368717,140.63157 14.772143,128.84832 6.739335,119.38591 -1.2940713,109.9228 -23.365977,97.466855 -23.365977,97.466855 Z"
         style="fill:#ffc701;fill-opacity:1;stroke:#806000;stroke-width:0.26458332px;stroke-linecap:butt;stroke-linejoin:miter;stroke-opacity:1" />
      <path
         sodipodi:nodetypes="cscscc"
         inkscape:connector-curvature="0"
         id="path846"
         d="m -36.586199,253.15036 c 0,0 -2.724756,-0.1016 -3.996812,0.30745 -1.482999,0.47688 -3.301418,2.25771 -3.497211,4.34268 0.45306,-0.92697 1.862164,-1.76871 3.458778,-1.88311 0.805898,-0.0577 2.190562,1.03764 2.190562,1.03764 -0.214246,-1.43684 0.203616,-2.46314 1.844683,-3.80466 z"
         style="fill:#c0c0c0;fill-opacity:1;stroke:#806000;stroke-width:0.26458332px;stroke-linecap:butt;stroke-linejoin:miter;stroke-opacity:1" />
      <path
         sodipodi:nodetypes="cscacc"
         inkscape:connector-curvature="0"
         id="path848"
         d="m -35.314313,259.6089 c 0,0 -2.245045,0.53338 -3.078138,1.26607 -1.096277,0.96415 -1.932783,2.34515 -1.498804,3.91995 0.48679,-1.004 1.423668,-1.52639 2.382712,-1.76782 0.945207,-0.23795 2.893371,0.42276 2.893371,0.42276 -0.620201,-0.9208 -1.151842,-2.34964 -0.699141,-3.84096 z"
         style="fill:#c0c0c0;fill-opacity:1;stroke:#806000;stroke-width:0.26458332px;stroke-linecap:butt;stroke-linejoin:miter;stroke-opacity:1" />
      <path
         sodipodi:nodetypes="cscscc"
         inkscape:connector-curvature="0"
         id="path848-4"
         d="m 12.083206,259.21038 c 0,0 2.245045,0.53338 3.078138,1.26607 1.096277,0.96415 1.932783,2.34515 1.498804,3.91995 -0.48679,-1.004 -1.751302,-1.49219 -2.518586,-1.65912 -1.028289,-0.2237 -1.659782,0.11549 -2.739646,0.046 0.620201,-0.9208 1.133991,-2.08162 0.68129,-3.57294 z"
         style="fill:#c0c0c0;fill-opacity:1;stroke:#806000;stroke-width:0.26458332px;stroke-linecap:butt;stroke-linejoin:miter;stroke-opacity:1" />
      <path
         style="fill:#c0c0c0;fill-opacity:1;stroke:#806000;stroke-width:0.26458332px;stroke-linecap:butt;stroke-linejoin:miter;stroke-opacity:1"
         d="m -94.940928,249.62893 c 0,0 -2.724756,-0.1016 -3.996812,0.30745 -1.483,0.47688 -3.30143,2.25771 -3.49722,4.34268 0.45306,-0.92697 1.86217,-1.76871 3.458787,-1.88311 0.805898,-0.0577 2.190562,1.03764 2.190562,1.03764 -0.214246,-1.43684 0.203616,-2.46314 1.844683,-3.80466 z"
         id="path867"
         inkscape:connector-curvature="0"
         sodipodi:nodetypes="cscscc" />
      <path
         style="fill:#c0c0c0;fill-opacity:1;stroke:#806000;stroke-width:0.26458332px;stroke-linecap:butt;stroke-linejoin:miter;stroke-opacity:1"
         d="m -93.669042,256.08747 c 0,0 -2.245045,0.53338 -3.078138,1.26607 -1.096277,0.96415 -1.932783,2.34515 -1.498804,3.91995 0.48679,-1.004 1.423668,-1.52639 2.382712,-1.76782 0.945207,-0.23795 2.893371,0.42276 2.893371,0.42276 -0.620201,-0.9208 -1.151842,-2.34964 -0.699141,-3.84096 z"
         id="path869"
         inkscape:connector-curvature="0"
         sodipodi:nodetypes="cscacc" />
      <path
         style="fill:#c0c0c0;fill-opacity:1;stroke:#806000;stroke-width:0.26458332px;stroke-linecap:butt;stroke-linejoin:miter;stroke-opacity:1"
         d="m -46.271523,255.68895 c 0,0 2.245045,0.53338 3.078138,1.26607 1.096277,0.96415 1.932783,2.34515 1.498804,3.91995 -0.48679,-1.004 -1.751302,-1.49219 -2.518586,-1.65912 -1.028289,-0.2237 -1.659782,0.11549 -2.739646,0.046 0.620201,-0.9208 1.133991,-2.08162 0.68129,-3.57294 z"
         id="path871"
         inkscape:connector-curvature="0"
         sodipodi:nodetypes="cscsccc" />
      <path
         sodipodi:nodetypes="scscscs"
         inkscape:connector-curvature="0"
         id="path830"
         d="m -93.481097,79.275998 c -2.252387,-2.931527 -4.594512,-10.094273 -4.594512,-10.094273 0,0 -3.390381,4.320571 -5.297091,6.28981 -3.01617,3.115083 -9.67421,8.695915 -9.67421,8.695915 0,0 9.83951,-2.420605 14.67436,-1.521786 3.830464,0.7121 8.946842,5.45456 14.022166,4.130562 0,0 -6.730982,-4.37693 -9.130713,-7.500228 z"
         style="fill:#ff5601;fill-opacity:1;stroke:#806000;stroke-width:0.26458332px;stroke-linecap:butt;stroke-linejoin:miter;stroke-opacity:1" />
      <circle
         r="4.5653558"
         cy="72.754059"
         cx="-77.176254"
         id="path836"
         style="opacity:1;fill:#000209;fill-opacity:1;stroke:#806000;stroke-width:0.26458332;stroke-linecap:round;stroke-linejoin:round;stroke-miterlimit:4;stroke-dasharray:none;stroke-dashoffset:0;stroke-opacity:1" />
      <path
         sodipodi:nodetypes="aaaaascaa"
         inkscape:connector-curvature="0"
         id="path840"
         d="m -13.47867,116.77713 c -5.669996,-0.20424 -12.288804,2.45286 -15.43525,7.17414 -3.016466,4.52624 -1.807747,10.98971 -0.652196,16.30484 1.535342,7.06203 4.59278,14.31928 9.782907,19.34842 4.307238,4.17363 10.3178075,7.96516 16.3048425,7.60891 4.9380955,-0.29383 8.0468306,-5.35672 12.6090782,-7.82632 4.3302083,-2.34398 9.9342193,-3.28134 14.3482623,-6.73933 0,0 -9.861303,-18.19281 -17.3918327,-25.00076 -5.53443928,-5.00339 -12.1098189,-10.60131 -19.5658113,-10.8699 z"
         style="fill:#ffc701;fill-opacity:1;stroke:#806000;stroke-width:0.26458332px;stroke-linecap:butt;stroke-linejoin:miter;stroke-opacity:1" />
      <path
         style="fill:#ff5601;fill-opacity:1;stroke:#806000;stroke-width:0.26458332px;stroke-linecap:butt;stroke-linejoin:miter;stroke-opacity:1"
         d="m -98.37255,82.645664 c -4.83485,-0.898819 -14.67436,1.521786 -14.67436,1.521786 11.51011,2.316196 11.99201,5.518989 18.353216,6.535568 3.641665,0.581972 10.34331,-3.926792 10.34331,-3.926792 -5.075324,1.323998 -10.191702,-3.418462 -14.022166,-4.130562 z"
         id="path879"
         inkscape:connector-curvature="0"
         sodipodi:nodetypes="scscs" />
      <circle
         style="opacity:1;fill:#ffffff;fill-opacity:1;stroke:#806000;stroke-width:0.26458332;stroke-linecap:round;stroke-linejoin:round;stroke-miterlimit:4;stroke-dasharray:none;stroke-dashoffset:0;stroke-opacity:1"
         id="circle881"
         cx="-78.96299"
         cy="70.926552"
         r="2.0041366" />
    </g>
  </g>
</svg>
